STARTFONT 2.1
COMMENT
COMMENT Converted from OpenType font "xuong_regular.otf" by "otf2bdf 3.0".
COMMENT
FONT -FreeType-Xuong-Bold-R-Normal--33-240-100-100-P-165-ISO10646-1
SIZE 24 100 100
FONTBOUNDINGBOX 36 40 -3 -5
STARTPROPERTIES 19
FOUNDRY "FreeType"
FAMILY_NAME "Xuong"
WEIGHT_NAME "Bold"
SLANT "R"
SETWIDTH_NAME "Normal"
ADD_STYLE_NAME ""
PIXEL_SIZE 33
POINT_SIZE 240
RESOLUTION_X 100
RESOLUTION_Y 100
SPACING "P"
AVERAGE_WIDTH 165
CHARSET_REGISTRY "ISO10646"
CHARSET_ENCODING "1"
FONT_ASCENT 29
FONT_DESCENT 5
COPYRIGHT "-FreeType-Xuong-Bold-R-Normal--33-240-100-100-P-165-ISO10646-1"
_OTF_FONTFILE "xuong_regular.otf"
_OTF_PSNAME "Xuong"
ENDPROPERTIES
CHARS 445
STARTCHAR 0000
ENCODING 0
SWIDTH 0 0
DWIDTH 0 0
BBX 0 0 0 0
BITMAP
ENDCHAR
STARTCHAR 000D
ENCODING 13
SWIDTH 240 0
DWIDTH 8 0
BBX 0 0 0 0
BITMAP
ENDCHAR
STARTCHAR 0020
ENCODING 32
SWIDTH 240 0
DWIDTH 8 0
BBX 0 0 0 0
BITMAP
ENDCHAR
STARTCHAR 0021
ENCODING 33
SWIDTH 150 0
DWIDTH 5 0
BBX 4 23 1 0
BITMAP
F0
F0
F0
F0
F0
F0
F0
F0
F0
F0
F0
E0
E0
60
60
60
60
00
00
F0
F0
F0
F0
ENDCHAR
STARTCHAR 0022
ENCODING 34
SWIDTH 240 0
DWIDTH 8 0
BBX 8 8 0 15
BITMAP
F7
F7
F7
77
67
67
67
67
ENDCHAR
STARTCHAR 0023
ENCODING 35
SWIDTH 720 0
DWIDTH 24 0
BBX 24 23 0 0
BITMAP
003870
003870
0078F0
0070F0
0070E0
00F0E0
1FFFFF
3FFFFF
3FFFFF
3FFFFF
01E3C0
01C380
01C380
FFFFFC
FFFFFC
FFFFFC
078700
078F00
070F00
070E00
0F0E00
0F1E00
0E1E00
ENDCHAR
STARTCHAR 0024
ENCODING 36
SWIDTH 540 0
DWIDTH 18 0
BBX 16 30 1 -3
BITMAP
03C0
03C0
03C0
03C0
7FFC
FFFC
FFFE
FFFF
FFFF
FC1F
FE00
7F00
3F80
1FC0
0FE0
07F0
03F8
01FC
00FE
007F
003F
F81F
FFFF
FFFF
7FFF
3FFF
1FFE
03C0
03C0
03C0
ENDCHAR
STARTCHAR 0025
ENCODING 37
SWIDTH 600 0
DWIDTH 20 0
BBX 18 23 1 0
BITMAP
7F0700
FF0F00
FF0E00
E71E00
E71C00
FF3C00
FF3800
7E7800
007000
00F000
00F000
01E000
01E000
03C000
03C000
079FC0
07BFC0
073FC0
0F39C0
0E39C0
1E3FC0
1C3FC0
3C1FC0
ENDCHAR
STARTCHAR 0026
ENCODING 38
SWIDTH 690 0
DWIDTH 23 0
BBX 22 23 1 0
BITMAP
0FFE00
0FFE00
1FFF00
3FFF80
3FFF80
3E0F80
3E0F80
3E1F80
3FFF00
7FFF00
FFFE00
FFFE10
F83E78
F81FFC
F80FFC
F80FFC
F80FF0
FC3FE0
FFFFF0
FFFFF0
7FFFF8
3FFCFC
1FF878
ENDCHAR
STARTCHAR 0027
ENCODING 39
SWIDTH 120 0
DWIDTH 4 0
BBX 4 8 0 15
BITMAP
F0
F0
F0
70
60
60
60
60
ENDCHAR
STARTCHAR 0028
ENCODING 40
SWIDTH 210 0
DWIDTH 7 0
BBX 6 26 1 -1
BITMAP
1C
1C
3C
38
70
F0
E0
E0
E0
E0
E0
E0
E0
E0
E0
E0
E0
E0
E0
E0
F0
F0
78
38
3C
1C
ENDCHAR
STARTCHAR 0029
ENCODING 41
SWIDTH 210 0
DWIDTH 7 0
BBX 7 26 0 -1
BITMAP
E0
F0
70
78
38
3C
1C
1E
1E
1E
1E
1E
1E
1E
1E
1E
1E
1E
1E
1E
1E
3C
38
78
F0
E0
ENDCHAR
STARTCHAR 002A
ENCODING 42
SWIDTH 390 0
DWIDTH 13 0
BBX 11 11 1 12
BITMAP
0E00
4E40
7EE0
FFE0
7FE0
3F80
7FE0
FFE0
7FE0
4E40
0E00
ENDCHAR
STARTCHAR 002B
ENCODING 43
SWIDTH 420 0
DWIDTH 14 0
BBX 13 13 1 5
BITMAP
0700
0700
0700
0700
0700
FFF8
FFF8
FFF8
0700
0700
0700
0700
0700
ENDCHAR
STARTCHAR 002C
ENCODING 44
SWIDTH 180 0
DWIDTH 6 0
BBX 6 8 -1 -3
BITMAP
18
1C
1C
1C
1C
38
78
F0
ENDCHAR
STARTCHAR 002D
ENCODING 45
SWIDTH 420 0
DWIDTH 14 0
BBX 13 4 1 11
BITMAP
FFF8
FFF8
FFF8
FFF8
ENDCHAR
STARTCHAR 002E
ENCODING 46
SWIDTH 150 0
DWIDTH 5 0
BBX 4 4 1 0
BITMAP
F0
F0
F0
F0
ENDCHAR
STARTCHAR 002F
ENCODING 47
SWIDTH 240 0
DWIDTH 8 0
BBX 10 27 -1 -2
BITMAP
01C0
01C0
01C0
03C0
0380
0380
0780
0780
0700
0700
0F00
0F00
0E00
0E00
1E00
1E00
1C00
1C00
3C00
3800
3800
7800
7800
7000
7000
F000
F000
ENDCHAR
STARTCHAR 0030
ENCODING 48
SWIDTH 570 0
DWIDTH 19 0
BBX 17 23 1 0
BITMAP
3FFE00
3FFF00
7FFF00
FFFF80
FFFF80
FC1F80
FC0F80
FC0F80
FC0F80
FC0F80
FC0F80
FC0F80
FC0F80
FC0F80
FC0F80
FC0F80
FC0F80
FC1F80
FFFF80
FFFF80
7FFF00
3FFE00
1FFE00
ENDCHAR
STARTCHAR 0031
ENCODING 49
SWIDTH 390 0
DWIDTH 13 0
BBX 11 23 1 0
BITMAP
07E0
0FE0
3FE0
7FE0
FFE0
FFE0
FFE0
FBE0
F3E0
03E0
03E0
03E0
03E0
03E0
03E0
03E0
03E0
03E0
03E0
03E0
03E0
03E0
03E0
ENDCHAR
STARTCHAR 0032
ENCODING 50
SWIDTH 540 0
DWIDTH 18 0
BBX 16 23 1 0
BITMAP
3FFF
3FFF
7FFF
FFFF
FFFF
FC1F
FC1F
003F
007F
00FE
01FC
03F8
07F0
0FF0
1FE0
1FC0
3F80
7F00
FFFF
FFFF
FFFF
FFFF
FFFF
ENDCHAR
STARTCHAR 0033
ENCODING 51
SWIDTH 510 0
DWIDTH 17 0
BBX 15 23 1 0
BITMAP
FFFE
7FFE
7FFE
3FFE
1FFE
003E
003E
003E
003E
1FFE
1FFE
1FFE
1FFE
1FFE
003E
003E
003E
003E
1FFE
3FFE
7FFE
7FFE
7FFE
ENDCHAR
STARTCHAR 0034
ENCODING 52
SWIDTH 570 0
DWIDTH 19 0
BBX 17 23 1 0
BITMAP
01FC00
01FC00
03FC00
07FC00
07FC00
0FFC00
1FFC00
1FFC00
3F7C00
3F7C00
7E7C00
FC7C00
FC7C00
FFFF00
FFFF80
FFFF80
FFFF80
FFFF80
7FFF80
007C00
007C00
007C00
007C00
ENDCHAR
STARTCHAR 0035
ENCODING 53
SWIDTH 510 0
DWIDTH 17 0
BBX 15 23 1 0
BITMAP
7FFE
FFFE
FFFC
FFF8
FFF8
FC00
FC00
FC00
FFFC
FFFE
FFFE
FFFE
FFFE
7FFE
003E
003E
003E
003E
1FFE
3FFE
7FFE
FFFE
FFFC
ENDCHAR
STARTCHAR 0036
ENCODING 54
SWIDTH 540 0
DWIDTH 18 0
BBX 16 23 1 0
BITMAP
7FFC
FFFC
FFFE
FFFF
FFFF
FC1F
FC0F
FC00
FC00
FC00
FFFE
FFFF
FFFF
FFFF
FFFF
FC3F
FC1F
FC3F
FFFF
FFFF
FFFF
FFFF
7FFE
ENDCHAR
STARTCHAR 0037
ENCODING 55
SWIDTH 480 0
DWIDTH 16 0
BBX 15 23 0 0
BITMAP
FFFC
7FFE
7FFE
3FFE
1FFE
007C
00FC
00FC
00FC
01F8
01F8
01F8
03F0
03F0
03F0
07E0
07E0
07E0
0FC0
0FC0
0FC0
0F80
0F80
ENDCHAR
STARTCHAR 0038
ENCODING 56
SWIDTH 570 0
DWIDTH 19 0
BBX 17 23 1 0
BITMAP
3FFE00
3FFF00
7FFF00
FFFF80
FFFF80
FC1F80
FC0F80
FC0F80
FC0F80
FE1F80
7FFF00
3FFE00
7FFF80
FC1F80
FC0F80
FC0F80
FC0F80
FE1F80
FFFF80
FFFF80
7FFF00
3FFF00
1FFE00
ENDCHAR
STARTCHAR 0039
ENCODING 57
SWIDTH 540 0
DWIDTH 18 0
BBX 16 23 1 0
BITMAP
7FFF
FFFF
FFFF
FFFF
FFFF
FC3F
FC1F
FC3F
FFFF
FFFF
FFFF
FFFF
7FFF
001F
001F
001F
F81F
FC1F
FFFF
FFFF
7FFF
3FFF
1FFE
ENDCHAR
STARTCHAR 003A
ENCODING 58
SWIDTH 150 0
DWIDTH 5 0
BBX 4 17 1 0
BITMAP
F0
F0
F0
F0
00
00
00
00
00
00
00
00
00
F0
F0
F0
F0
ENDCHAR
STARTCHAR 003B
ENCODING 59
SWIDTH 150 0
DWIDTH 5 0
BBX 6 20 -1 -3
BITMAP
3C
3C
3C
3C
00
00
00
00
00
00
00
00
38
3C
3C
3C
3C
38
70
F0
ENDCHAR
STARTCHAR 003C
ENCODING 60
SWIDTH 390 0
DWIDTH 13 0
BBX 12 18 1 4
BITMAP
0030
00F0
03F0
07F0
1FE0
7F80
FE00
F800
E000
E000
F800
FE00
7F80
1FE0
07F0
01F0
0070
0030
ENDCHAR
STARTCHAR 003D
ENCODING 61
SWIDTH 420 0
DWIDTH 14 0
BBX 13 9 1 7
BITMAP
FFF8
FFF8
FFF8
FFF8
0000
0000
FFF8
FFF8
FFF8
ENDCHAR
STARTCHAR 003E
ENCODING 62
SWIDTH 390 0
DWIDTH 13 0
BBX 12 18 1 4
BITMAP
8000
E000
F800
FE00
FF00
3FC0
0FF0
03F0
00F0
00F0
03F0
0FF0
3FC0
FF00
FC00
F800
E000
8000
ENDCHAR
STARTCHAR 003F
ENCODING 63
SWIDTH 510 0
DWIDTH 17 0
BBX 16 23 1 0
BITMAP
3FFE
3FFF
7FFF
FFFF
FFFF
F83F
F83F
007E
007C
00F8
00F8
01F0
03E0
03E0
03E0
03E0
03E0
0000
0000
03E0
03E0
03E0
03E0
ENDCHAR
STARTCHAR 0040
ENCODING 64
SWIDTH 780 0
DWIDTH 26 0
BBX 24 27 1 -4
BITMAP
7FFFFF
FFFFFF
FFFFFF
F00007
F00007
F07F07
F07F07
F07F07
F0FF07
F0E787
F0E387
F0E387
F0E387
F1E387
F1C3C7
F1FFC7
F1FFC7
F1FDC7
F3C1FF
F3C1FF
F381FF
F00000
F00000
FFFE00
FFFF00
FFFF00
7FFF00
ENDCHAR
STARTCHAR 0041
ENCODING 65
SWIDTH 570 0
DWIDTH 19 0
BBX 19 23 0 0
BITMAP
07FE00
07FE00
0FFE00
0FFE00
0FFF00
0F1F00
0F1F00
1F0F00
1F0F00
1F0F80
1E0F80
1E0F80
3E0F80
3E0780
3F0FC0
3FFFC0
3FFFC0
7DFFC0
7C07C0
7C07E0
7C03E0
7C03E0
FC03E0
ENDCHAR
STARTCHAR 0042
ENCODING 66
SWIDTH 570 0
DWIDTH 19 0
BBX 17 23 1 0
BITMAP
FFFE00
FFFF00
FFFF00
FFFF80
FC1F80
FC0F80
FC0F80
FC0F80
FC1F80
FFFF80
FFFF00
FFFF00
FFFF80
FFFF80
FC0F80
FC0F80
FC0F80
FC0F80
FFFF80
FFFF80
FFFF00
FFFE00
FFFE00
ENDCHAR
STARTCHAR 0043
ENCODING 67
SWIDTH 540 0
DWIDTH 18 0
BBX 16 23 1 0
BITMAP
FFFC
FFFE
FFFE
FFFF
FFFF
FC1F
FC00
FC00
FC00
FC00
FC00
FC00
FC00
FC00
FC00
FC00
FC00
FC3F
FFFF
FFFF
FFFE
FFFC
FFFC
ENDCHAR
STARTCHAR 0044
ENCODING 68
SWIDTH 570 0
DWIDTH 19 0
BBX 17 23 1 0
BITMAP
FFFE00
FFFF00
FFFF00
FFFF80
FFFF80
FC1F80
FC0F80
FC0F80
FC0F80
FC0F80
FC0F80
FC0F80
FC0F80
FC0F80
FC0F80
FC0F80
FC0F80
FC1F80
FFFF80
FFFF80
FFFF00
FFFE00
FFFE00
ENDCHAR
STARTCHAR 0045
ENCODING 69
SWIDTH 540 0
DWIDTH 18 0
BBX 16 23 1 0
BITMAP
FFFC
FFFC
FFFE
FFFF
FFFF
FC1F
FC00
FC00
FC00
FFF0
FFF0
FFF0
FFF0
FC00
FC00
FC00
FC00
FC1F
FFFF
FFFF
FFFE
FFFC
FFF8
ENDCHAR
STARTCHAR 0046
ENCODING 70
SWIDTH 510 0
DWIDTH 17 0
BBX 15 23 1 0
BITMAP
FFF8
FFFC
FFFC
FFFE
FFFE
FC1E
FC00
FC00
FC00
FC00
FFF8
FFF8
FFF8
FFF8
FFF8
FC00
FC00
FC00
FC00
FC00
FC00
FC00
FC00
ENDCHAR
STARTCHAR 0047
ENCODING 71
SWIDTH 540 0
DWIDTH 18 0
BBX 16 23 1 0
BITMAP
FFFC
FFFE
FFFF
FFFF
FFFF
FC1F
FC00
FC00
FC00
FC00
FCFF
FCFF
FCFF
FCFF
FCFF
FC1F
FC1F
FC1F
FFFF
FFFF
FFFF
FFFF
FFF7
ENDCHAR
STARTCHAR 0048
ENCODING 72
SWIDTH 570 0
DWIDTH 19 0
BBX 17 23 1 0
BITMAP
FC0F80
FC0F80
FC0F80
FC0F80
FC0F80
FC0F80
FC0F80
FC0F80
FFFF80
FFFF80
FFFF80
FFFF80
FFFF80
FFFF80
FC0F80
FC0F80
FC0F80
FC0F80
FC0F80
FC0F80
FC0F80
FC0F80
FC0F80
ENDCHAR
STARTCHAR 0049
ENCODING 73
SWIDTH 210 0
DWIDTH 7 0
BBX 6 23 1 0
BITMAP
FC
FC
FC
FC
FC
FC
FC
FC
FC
FC
FC
FC
FC
FC
FC
FC
FC
FC
FC
FC
FC
FC
FC
ENDCHAR
STARTCHAR 004A
ENCODING 74
SWIDTH 510 0
DWIDTH 17 0
BBX 15 23 1 0
BITMAP
1FFE
1FFE
1FFE
1FFE
1FFE
007E
007E
007E
007E
007E
007E
007E
007E
007E
007E
007E
007E
FC7E
FFFE
FFFE
7FFE
3FFE
1FFE
ENDCHAR
STARTCHAR 004B
ENCODING 75
SWIDTH 570 0
DWIDTH 19 0
BBX 17 23 1 0
BITMAP
FC1F80
FC3F80
FC3F80
FC7F00
FCFE00
FCFC00
FDFC00
FFF800
FFF000
FFF000
FFE000
FFC000
FFE000
FFF000
FFF000
FDF800
FDFC00
FCFE00
FC7E00
FC7F00
FC3F80
FC1F80
FC0F80
ENDCHAR
STARTCHAR 004C
ENCODING 76
SWIDTH 390 0
DWIDTH 13 0
BBX 13 23 1 0
BITMAP
FC00
FC00
FC00
FC00
FC00
FC00
FC00
FC00
FC00
FC00
FC00
FC00
FC00
FC00
FC00
FC00
FC00
FC00
FFF8
FFF8
FFF0
FFE0
FFE0
ENDCHAR
STARTCHAR 004D
ENCODING 77
SWIDTH 690 0
DWIDTH 23 0
BBX 21 23 1 0
BITMAP
3F8FE0
3F8FE0
7F8FF0
FF8FF8
FF8FF8
FF8FF8
FFCFF8
FFDEF8
FDDEF8
FDDCF8
FDDCF8
FDDCF8
FDFCF8
FDFCF8
FDFCF8
FCFCF8
FCF8F8
FC78F8
FC00F8
FC00F8
FC00F8
FC00F8
FC00F8
ENDCHAR
STARTCHAR 004E
ENCODING 78
SWIDTH 570 0
DWIDTH 19 0
BBX 17 23 1 0
BITMAP
3C0F80
3C0F80
7E0F80
FE0F80
FF0F80
FF0F80
FF8F80
FF8F80
FF8F80
FFCF80
FFCF80
FFFF80
FDFF80
FDFF80
FCFF80
FCFF80
FC7F80
FC7F80
FC3F80
FC3F80
FC3F00
FC1E00
FC1C00
ENDCHAR
STARTCHAR 004F
ENCODING 79
SWIDTH 600 0
DWIDTH 20 0
BBX 18 23 1 0
BITMAP
3FFF00
3FFF80
7FFFC0
FFFFC0
FFFFC0
FC07C0
FC07C0
FC07C0
FC07C0
FC07C0
FC07C0
FC07C0
FC07C0
FC07C0
FC07C0
FC07C0
FC07C0
FC07C0
FFFFC0
FFFFC0
7FFF80
3FFF80
1FFF00
ENDCHAR
STARTCHAR 0050
ENCODING 80
SWIDTH 540 0
DWIDTH 18 0
BBX 16 23 1 0
BITMAP
FFFC
FFFC
FFFE
FFFF
FFFF
FC3F
FC1F
FC1F
FC1F
FC3F
FFFF
FFFF
FFFE
FFFC
FFFC
FC00
FC00
FC00
FC00
FC00
FC00
FC00
FC00
ENDCHAR
STARTCHAR 0051
ENCODING 81
SWIDTH 630 0
DWIDTH 21 0
BBX 21 23 1 0
BITMAP
3FFF00
3FFF80
7FFFC0
FFFFC0
FFFFC0
FC07C0
FC07C0
FC07C0
FC07C0
FC07C0
FC07C0
FC07C0
FC07C0
FC07C0
FC07C0
FC07C0
FC07C0
FC07E0
FFFFF8
FFFFF8
7FFFF8
3FFFF0
1FFF60
ENDCHAR
STARTCHAR 0052
ENCODING 82
SWIDTH 540 0
DWIDTH 18 0
BBX 16 23 1 0
BITMAP
FFFC
FFFC
FFFE
FFFF
FFFF
FC3F
FC1F
FC1F
FC3F
FFFE
FFFE
FFFC
FFF8
FFF8
FCFC
FC7C
FC7E
FC7E
FC3F
FC3F
FC3F
FC1F
FC1F
ENDCHAR
STARTCHAR 0053
ENCODING 83
SWIDTH 540 0
DWIDTH 18 0
BBX 16 23 1 0
BITMAP
7FFC
FFFC
FFFE
FFFF
FFFF
FC1F
FE00
7F00
3F80
1FC0
0FE0
07F0
03F8
01FC
00FE
007F
003F
F81F
FFFF
FFFF
7FFF
3FFF
1FFE
ENDCHAR
STARTCHAR 0054
ENCODING 84
SWIDTH 510 0
DWIDTH 17 0
BBX 18 23 0 0
BITMAP
3FFF00
7FFF00
7FFF80
FFFFC0
FBEFC0
F3E3C0
03E000
03E000
03E000
03E000
03E000
03E000
03E000
03E000
03E000
03E000
03E000
03E000
03E000
03E000
03E000
03E000
03E000
ENDCHAR
STARTCHAR 0055
ENCODING 85
SWIDTH 600 0
DWIDTH 20 0
BBX 18 23 1 0
BITMAP
FC07C0
FC07C0
FC07C0
FC07C0
FC07C0
FC07C0
FC07C0
FC07C0
FC07C0
FC07C0
FC07C0
FC07C0
FC07C0
FC07C0
FC07C0
FC07C0
FC07C0
FC0FC0
FFFFC0
FFFFC0
7FFF80
3FFF80
1FFF00
ENDCHAR
STARTCHAR 0056
ENCODING 86
SWIDTH 570 0
DWIDTH 19 0
BBX 19 23 0 0
BITMAP
F803E0
7C03E0
7C07C0
7C07C0
7C07C0
7C07C0
3C07C0
3E0780
3E0F80
3E0F80
3E0F80
1E0F80
1E0F00
1E0F00
1F0F00
1F1F00
0F1F00
0F1E00
0FFE00
0FFE00
0FFE00
07FE00
07FC00
ENDCHAR
STARTCHAR 0057
ENCODING 87
SWIDTH 870 0
DWIDTH 29 0
BBX 27 23 1 0
BITMAP
FC0003E0
FC0003E0
FC0007E0
7C0007E0
7C0007E0
7E0007C0
7E0F07C0
7E1F87C0
3E1F8FC0
3E3F8FC0
3F3F8F80
3F3FCF80
3F3BCF80
1F7BDF80
1F79DF80
1FF9FF00
1FF9FF00
0FF1FF00
0FF1FF00
0FF0FF00
0FF0FE00
0FF0FE00
07E0FE00
ENDCHAR
STARTCHAR 0058
ENCODING 88
SWIDTH 600 0
DWIDTH 20 0
BBX 18 23 1 0
BITMAP
FC07C0
FC0FC0
FE0FC0
7E0FC0
7E1F80
3F1F80
3F3F00
1FBF00
1FFE00
0FFE00
0FFC00
0FFC00
0FFE00
1FFE00
1FBF00
3F3F00
3F3F80
3F1F80
7E1F80
7E0FC0
FC0FC0
FC07C0
FC07C0
ENDCHAR
STARTCHAR 0059
ENCODING 89
SWIDTH 450 0
DWIDTH 15 0
BBX 16 23 0 0
BITMAP
F81F
F83F
FC3E
7C3E
7E7E
3E7C
3E7C
3FF8
1FF8
1FF0
0FF0
0FE0
07E0
07E0
07C0
07C0
07C0
07C0
07C0
07C0
07C0
07C0
07C0
ENDCHAR
STARTCHAR 005A
ENCODING 90
SWIDTH 540 0
DWIDTH 18 0
BBX 17 23 1 0
BITMAP
FFFE00
FFFE00
FFFF00
FFFF80
7FFF00
007E00
00FE00
00FC00
01F800
03F800
03F000
07F000
0FE000
0FC000
1FC000
1F8000
3F8000
7F0000
7FFF00
FFFF80
7FFF80
3FFF80
1FFF80
ENDCHAR
STARTCHAR 005B
ENCODING 91
SWIDTH 240 0
DWIDTH 8 0
BBX 7 27 1 -2
BITMAP
FE
FE
FE
FC
E0
E0
E0
E0
E0
E0
E0
E0
E0
E0
E0
E0
E0
E0
E0
E0
E0
E0
E0
FC
FE
FE
FE
ENDCHAR
STARTCHAR 005C
ENCODING 92
SWIDTH 240 0
DWIDTH 8 0
BBX 11 27 -1 -2
BITMAP
F000
F000
7000
7000
7800
3800
3800
3800
3C00
1C00
1C00
1E00
1E00
0E00
0E00
0F00
0F00
0700
0700
0780
0780
0380
0380
03C0
03C0
01C0
01E0
ENDCHAR
STARTCHAR 005D
ENCODING 93
SWIDTH 240 0
DWIDTH 8 0
BBX 7 27 1 -2
BITMAP
FE
FE
FE
FE
1E
1E
1E
1E
1E
1E
1E
1E
1E
1E
1E
1E
1E
1E
1E
1E
1E
1E
1E
FE
FE
FE
FE
ENDCHAR
STARTCHAR 005E
ENCODING 94
SWIDTH 570 0
DWIDTH 19 0
BBX 18 12 1 11
BITMAP
03F000
07F800
0FF800
0F3C00
1F3C00
1E3E00
3E1E00
3C1F00
7C0F00
780F80
F80780
F007C0
ENDCHAR
STARTCHAR 005F
ENCODING 95
SWIDTH 420 0
DWIDTH 14 0
BBX 13 3 1 0
BITMAP
FFF8
FFF8
FFF8
ENDCHAR
STARTCHAR 0060
ENCODING 96
SWIDTH 390 0
DWIDTH 13 0
BBX 12 3 1 25
BITMAP
F800
FFC0
7FF0
ENDCHAR
STARTCHAR 0061
ENCODING 97
SWIDTH 570 0
DWIDTH 19 0
BBX 19 23 0 0
BITMAP
07FE00
07FE00
0FFE00
0FFE00
0FFF00
0F1F00
0F1F00
1F0F00
1F0F00
1F0F80
1E0F80
1E0F80
3E0F80
3E0780
3F0FC0
3FFFC0
3FFFC0
7DFFC0
7C07C0
7C07E0
7C03E0
7C03E0
FC03E0
ENDCHAR
STARTCHAR 0062
ENCODING 98
SWIDTH 570 0
DWIDTH 19 0
BBX 17 23 1 0
BITMAP
FFFE00
FFFF00
FFFF00
FFFF80
FC1F80
FC0F80
FC0F80
FC0F80
FC1F80
FFFF80
FFFF00
FFFF00
FFFF80
FFFF80
FC0F80
FC0F80
FC0F80
FC0F80
FFFF80
FFFF80
FFFF00
FFFE00
FFFE00
ENDCHAR
STARTCHAR 0063
ENCODING 99
SWIDTH 540 0
DWIDTH 18 0
BBX 16 23 1 0
BITMAP
FFFC
FFFE
FFFE
FFFF
FFFF
FC1F
FC00
FC00
FC00
FC00
FC00
FC00
FC00
FC00
FC00
FC00
FC00
FC3F
FFFF
FFFF
FFFE
FFFC
FFFC
ENDCHAR
STARTCHAR 0064
ENCODING 100
SWIDTH 570 0
DWIDTH 19 0
BBX 17 23 1 0
BITMAP
FFFE00
FFFF00
FFFF00
FFFF80
FFFF80
FC1F80
FC0F80
FC0F80
FC0F80
FC0F80
FC0F80
FC0F80
FC0F80
FC0F80
FC0F80
FC0F80
FC0F80
FC1F80
FFFF80
FFFF80
FFFF00
FFFE00
FFFE00
ENDCHAR
STARTCHAR 0065
ENCODING 101
SWIDTH 540 0
DWIDTH 18 0
BBX 16 23 1 0
BITMAP
FFFC
FFFC
FFFE
FFFF
FFFF
FC1F
FC00
FC00
FC00
FFF0
FFF0
FFF0
FFF0
FC00
FC00
FC00
FC00
FC1F
FFFF
FFFF
FFFE
FFFC
FFF8
ENDCHAR
STARTCHAR 0066
ENCODING 102
SWIDTH 510 0
DWIDTH 17 0
BBX 15 23 1 0
BITMAP
FFF8
FFFC
FFFC
FFFE
FFFE
FC1E
FC00
FC00
FC00
FC00
FFF8
FFF8
FFF8
FFF8
FFF8
FC00
FC00
FC00
FC00
FC00
FC00
FC00
FC00
ENDCHAR
STARTCHAR 0067
ENCODING 103
SWIDTH 540 0
DWIDTH 18 0
BBX 16 23 1 0
BITMAP
FFFC
FFFE
FFFF
FFFF
FFFF
FC1F
FC00
FC00
FC00
FC00
FCFF
FCFF
FCFF
FCFF
FCFF
FC1F
FC1F
FC1F
FFFF
FFFF
FFFF
FFFF
FFF7
ENDCHAR
STARTCHAR 0068
ENCODING 104
SWIDTH 570 0
DWIDTH 19 0
BBX 17 23 1 0
BITMAP
FC0F80
FC0F80
FC0F80
FC0F80
FC0F80
FC0F80
FC0F80
FC0F80
FFFF80
FFFF80
FFFF80
FFFF80
FFFF80
FFFF80
FC0F80
FC0F80
FC0F80
FC0F80
FC0F80
FC0F80
FC0F80
FC0F80
FC0F80
ENDCHAR
STARTCHAR 0069
ENCODING 105
SWIDTH 210 0
DWIDTH 7 0
BBX 6 23 1 0
BITMAP
FC
FC
FC
FC
FC
FC
FC
FC
FC
FC
FC
FC
FC
FC
FC
FC
FC
FC
FC
FC
FC
FC
FC
ENDCHAR
STARTCHAR 006A
ENCODING 106
SWIDTH 510 0
DWIDTH 17 0
BBX 15 23 1 0
BITMAP
1FFE
1FFE
1FFE
1FFE
1FFE
007E
007E
007E
007E
007E
007E
007E
007E
007E
007E
007E
007E
FC7E
FFFE
FFFE
7FFE
3FFE
1FFE
ENDCHAR
STARTCHAR 006B
ENCODING 107
SWIDTH 570 0
DWIDTH 19 0
BBX 17 23 1 0
BITMAP
FC1F80
FC3F80
FC3F80
FC7F00
FCFE00
FCFC00
FDFC00
FFF800
FFF000
FFF000
FFE000
FFC000
FFE000
FFF000
FFF000
FDF800
FDFC00
FCFE00
FC7E00
FC7F00
FC3F80
FC1F80
FC0F80
ENDCHAR
STARTCHAR 006C
ENCODING 108
SWIDTH 390 0
DWIDTH 13 0
BBX 13 23 1 0
BITMAP
FC00
FC00
FC00
FC00
FC00
FC00
FC00
FC00
FC00
FC00
FC00
FC00
FC00
FC00
FC00
FC00
FC00
FC00
FFF8
FFF8
FFF0
FFE0
FFE0
ENDCHAR
STARTCHAR 006D
ENCODING 109
SWIDTH 690 0
DWIDTH 23 0
BBX 21 23 1 0
BITMAP
3F8FE0
3F8FE0
7F8FF0
FF8FF8
FF8FF8
FF8FF8
FFCFF8
FFDEF8
FDDEF8
FDDCF8
FDDCF8
FDDCF8
FDFCF8
FDFCF8
FDFCF8
FCFCF8
FCF8F8
FC78F8
FC00F8
FC00F8
FC00F8
FC00F8
FC00F8
ENDCHAR
STARTCHAR 006E
ENCODING 110
SWIDTH 570 0
DWIDTH 19 0
BBX 17 23 1 0
BITMAP
3C0F80
3C0F80
7E0F80
FE0F80
FF0F80
FF0F80
FF8F80
FF8F80
FF8F80
FFCF80
FFCF80
FFFF80
FDFF80
FDFF80
FCFF80
FCFF80
FC7F80
FC7F80
FC3F80
FC3F80
FC3F00
FC1E00
FC1C00
ENDCHAR
STARTCHAR 006F
ENCODING 111
SWIDTH 600 0
DWIDTH 20 0
BBX 18 23 1 0
BITMAP
3FFF00
3FFF80
7FFFC0
FFFFC0
FFFFC0
FC07C0
FC07C0
FC07C0
FC07C0
FC07C0
FC07C0
FC07C0
FC07C0
FC07C0
FC07C0
FC07C0
FC07C0
FC07C0
FFFFC0
FFFFC0
7FFF80
3FFF80
1FFF00
ENDCHAR
STARTCHAR 0070
ENCODING 112
SWIDTH 540 0
DWIDTH 18 0
BBX 16 23 1 0
BITMAP
FFFC
FFFC
FFFE
FFFF
FFFF
FC3F
FC1F
FC1F
FC1F
FC3F
FFFF
FFFF
FFFE
FFFC
FFFC
FC00
FC00
FC00
FC00
FC00
FC00
FC00
FC00
ENDCHAR
STARTCHAR 0071
ENCODING 113
SWIDTH 630 0
DWIDTH 21 0
BBX 21 23 1 0
BITMAP
3FFF00
3FFF80
7FFFC0
FFFFC0
FFFFC0
FC07C0
FC07C0
FC07C0
FC07C0
FC07C0
FC07C0
FC07C0
FC07C0
FC07C0
FC07C0
FC07C0
FC07C0
FC07E0
FFFFF8
FFFFF8
7FFFF8
3FFFF0
1FFF60
ENDCHAR
STARTCHAR 0072
ENCODING 114
SWIDTH 540 0
DWIDTH 18 0
BBX 16 23 1 0
BITMAP
FFFC
FFFC
FFFE
FFFF
FFFF
FC3F
FC1F
FC1F
FC3F
FFFE
FFFE
FFFC
FFF8
FFF8
FCFC
FC7C
FC7E
FC7E
FC3F
FC3F
FC3F
FC1F
FC1F
ENDCHAR
STARTCHAR 0073
ENCODING 115
SWIDTH 540 0
DWIDTH 18 0
BBX 16 23 1 0
BITMAP
7FFC
FFFC
FFFE
FFFF
FFFF
FC1F
FE00
7F00
3F80
1FC0
0FE0
07F0
03F8
01FC
00FE
007F
003F
F81F
FFFF
FFFF
7FFF
3FFF
1FFE
ENDCHAR
STARTCHAR 0074
ENCODING 116
SWIDTH 510 0
DWIDTH 17 0
BBX 18 23 0 0
BITMAP
3FFF00
7FFF00
7FFF80
FFFFC0
FBEFC0
F3E3C0
03E000
03E000
03E000
03E000
03E000
03E000
03E000
03E000
03E000
03E000
03E000
03E000
03E000
03E000
03E000
03E000
03E000
ENDCHAR
STARTCHAR 0075
ENCODING 117
SWIDTH 600 0
DWIDTH 20 0
BBX 18 23 1 0
BITMAP
FC07C0
FC07C0
FC07C0
FC07C0
FC07C0
FC07C0
FC07C0
FC07C0
FC07C0
FC07C0
FC07C0
FC07C0
FC07C0
FC07C0
FC07C0
FC07C0
FC07C0
FC0FC0
FFFFC0
FFFFC0
7FFF80
3FFF80
1FFF00
ENDCHAR
STARTCHAR 0076
ENCODING 118
SWIDTH 570 0
DWIDTH 19 0
BBX 19 23 0 0
BITMAP
F803E0
7C03E0
7C07C0
7C07C0
7C07C0
7C07C0
3C07C0
3E0780
3E0F80
3E0F80
3E0F80
1E0F80
1E0F00
1E0F00
1F0F00
1F1F00
0F1F00
0F1E00
0FFE00
0FFE00
0FFE00
07FE00
07FC00
ENDCHAR
STARTCHAR 0077
ENCODING 119
SWIDTH 870 0
DWIDTH 29 0
BBX 27 23 1 0
BITMAP
FC0003E0
FC0003E0
FC0007E0
7C0007E0
7C0007E0
7E0007C0
7E0F07C0
7E1F87C0
3E1F8FC0
3E3F8FC0
3F3F8F80
3F3FCF80
3F3BCF80
1F7BDF80
1F79DF80
1FF9FF00
1FF9FF00
0FF1FF00
0FF1FF00
0FF0FF00
0FF0FE00
0FF0FE00
07E0FE00
ENDCHAR
STARTCHAR 0078
ENCODING 120
SWIDTH 600 0
DWIDTH 20 0
BBX 18 23 1 0
BITMAP
FC07C0
FC0FC0
FE0FC0
7E0FC0
7E1F80
3F1F80
3F3F00
1FBF00
1FFE00
0FFE00
0FFC00
0FFC00
0FFE00
1FFE00
1FBF00
3F3F00
3F3F80
3F1F80
7E1F80
7E0FC0
FC0FC0
FC07C0
FC07C0
ENDCHAR
STARTCHAR 0079
ENCODING 121
SWIDTH 450 0
DWIDTH 15 0
BBX 16 23 0 0
BITMAP
F81F
F83F
FC3E
7C3E
7E7E
3E7C
3E7C
3FF8
1FF8
1FF0
0FF0
0FE0
07E0
07E0
07C0
07C0
07C0
07C0
07C0
07C0
07C0
07C0
07C0
ENDCHAR
STARTCHAR 007A
ENCODING 122
SWIDTH 540 0
DWIDTH 18 0
BBX 17 23 1 0
BITMAP
FFFE00
FFFE00
FFFF00
FFFF80
7FFF00
007E00
00FE00
00FC00
01F800
03F800
03F000
07F000
0FE000
0FC000
1FC000
1F8000
3F8000
7F0000
7FFF00
FFFF80
7FFF80
3FFF80
1FFF80
ENDCHAR
STARTCHAR 007B
ENCODING 123
SWIDTH 270 0
DWIDTH 9 0
BBX 8 27 1 -2
BITMAP
3F
3F
3F
3E
38
38
38
38
38
38
38
78
F0
E0
F0
78
38
38
38
38
38
38
38
3E
3F
3F
3F
ENDCHAR
STARTCHAR 007C
ENCODING 124
SWIDTH 120 0
DWIDTH 4 0
BBX 3 27 1 -2
BITMAP
E0
E0
E0
E0
E0
E0
E0
E0
E0
E0
E0
E0
E0
E0
E0
E0
E0
E0
E0
E0
E0
E0
E0
E0
E0
E0
E0
ENDCHAR
STARTCHAR 007D
ENCODING 125
SWIDTH 270 0
DWIDTH 9 0
BBX 8 27 1 -2
BITMAP
FC
FC
FC
FC
3C
3C
3C
3C
3C
3C
3C
1E
0F
07
0F
1E
3C
3C
3C
3C
3C
3C
3C
FC
FC
FC
FC
ENDCHAR
STARTCHAR 007E
ENCODING 126
SWIDTH 450 0
DWIDTH 15 0
BBX 13 5 1 9
BITMAP
0800
3F08
FFF8
E1F8
C020
ENDCHAR
STARTCHAR 00A1
ENCODING 161
SWIDTH 150 0
DWIDTH 5 0
BBX 4 23 1 0
BITMAP
F0
F0
F0
F0
00
60
60
60
60
60
E0
E0
F0
F0
F0
F0
F0
F0
F0
F0
F0
F0
F0
ENDCHAR
STARTCHAR 00A2
ENCODING 162
SWIDTH 540 0
DWIDTH 18 0
BBX 16 30 1 -3
BITMAP
0380
0380
0380
0380
FFFC
FFFE
FFFE
FFFF
FFFF
FC1F
FC00
FC00
FC00
FC00
FC00
FC00
FC00
FC00
FC00
FC00
FC00
FC3F
FFFF
FFFF
FFFE
FFFC
FFFC
0380
0380
0380
ENDCHAR
STARTCHAR 00A3
ENCODING 163
SWIDTH 480 0
DWIDTH 16 0
BBX 14 23 1 0
BITMAP
7FFC
FFFC
FFFC
FFFC
FFFC
7C7C
7C00
7C00
3C00
FFFC
FFFC
FFFC
1F00
1F00
1F00
3F00
7E00
7C00
FFFC
FFFC
FFFC
FFFC
FFFC
ENDCHAR
STARTCHAR 00A4
ENCODING 164
SWIDTH 330 0
DWIDTH 11 0
BBX 9 10 1 7
BITMAP
0080
FF80
7F00
7F00
6300
6300
7F00
7F00
FF80
8080
ENDCHAR
STARTCHAR 00A5
ENCODING 165
SWIDTH 450 0
DWIDTH 15 0
BBX 16 23 0 0
BITMAP
F81F
F83F
FC3E
7C3E
7E7E
3E7C
3E7C
3FF8
1FF8
1FF0
0FF0
3FFC
3FFC
3FFC
3FFC
07C0
3FFC
3FFC
3FFC
07C0
07C0
07C0
07C0
ENDCHAR
STARTCHAR 00A6
ENCODING 166
SWIDTH 120 0
DWIDTH 4 0
BBX 3 26 1 -1
BITMAP
E0
E0
E0
E0
E0
E0
E0
E0
E0
E0
E0
E0
00
00
00
E0
E0
E0
E0
E0
E0
E0
E0
E0
E0
E0
ENDCHAR
STARTCHAR 00A7
ENCODING 167
SWIDTH 420 0
DWIDTH 14 0
BBX 12 23 1 0
BITMAP
7FE0
7FF0
7FF0
7870
7C00
3E00
7F00
FF80
FFC0
FFE0
F1F0
F8F0
7C70
3FF0
1FF0
0FF0
07C0
03E0
E1E0
FFE0
FFE0
7FE0
3FE0
ENDCHAR
STARTCHAR 00A8
ENCODING 168
SWIDTH 270 0
DWIDTH 9 0
BBX 8 3 1 25
BITMAP
E7
E7
E7
ENDCHAR
STARTCHAR 00A9
ENCODING 169
SWIDTH 720 0
DWIDTH 24 0
BBX 23 26 1 -1
BITMAP
7FFFFC
FFFFFE
FFFFFE
FFFFFE
E0001E
E0001E
E1FC1E
E1FE1E
E1FF1E
E1CF1E
E1C01E
E1C01E
E1C01E
E1C01E
E1C01E
E1C01E
E1C01E
E1FF1E
E1FF1E
E1FE1E
E0001E
E0001E
E0001E
FFFFFE
FFFFFE
FFFFFC
ENDCHAR
STARTCHAR 00AB
ENCODING 171
SWIDTH 450 0
DWIDTH 15 0
BBX 14 14 1 4
BITMAP
0004
060C
0E1C
1E3C
7CF0
F1E0
E1C0
E1C0
F1E0
78F0
3E78
0E1C
060C
0204
ENDCHAR
STARTCHAR 00AC
ENCODING 172
SWIDTH 540 0
DWIDTH 18 0
BBX 17 9 1 4
BITMAP
FFFF80
FFFF80
FFFF80
000380
000380
000380
000380
000380
000380
ENDCHAR
STARTCHAR 00AE
ENCODING 174
SWIDTH 360 0
DWIDTH 12 0
BBX 11 13 1 10
BITMAP
FFE0
8020
8020
9F20
9B20
9F20
9E20
9A20
9B20
9B20
8020
FFE0
FFE0
ENDCHAR
STARTCHAR 00AF
ENCODING 175
SWIDTH 420 0
DWIDTH 14 0
BBX 13 3 1 25
BITMAP
FFF8
FFF8
FFF8
ENDCHAR
STARTCHAR 00B0
ENCODING 176
SWIDTH 240 0
DWIDTH 8 0
BBX 7 6 1 17
BITMAP
FE
FE
CE
CE
FE
FE
ENDCHAR
STARTCHAR 00B1
ENCODING 177
SWIDTH 420 0
DWIDTH 14 0
BBX 13 17 1 1
BITMAP
0700
0700
0700
0700
0700
FFF8
FFF8
FFF8
0700
0700
0700
0700
0700
0000
FFF8
FFF8
FFF8
ENDCHAR
STARTCHAR 00B4
ENCODING 180
SWIDTH 390 0
DWIDTH 13 0
BBX 12 3 1 25
BITMAP
1FF0
FFE0
FC00
ENDCHAR
STARTCHAR 00B6
ENCODING 182
SWIDTH 420 0
DWIDTH 14 0
BBX 12 23 1 0
BITMAP
7FB0
FFB0
FFB0
FFB0
FFB0
FFB0
FFB0
FFB0
FFB0
7FB0
01B0
01B0
01B0
01B0
01B0
01B0
01B0
01B0
01B0
01B0
01B0
01B0
01B0
ENDCHAR
STARTCHAR 00B7
ENCODING 183
SWIDTH 150 0
DWIDTH 5 0
BBX 4 5 1 10
BITMAP
F0
F0
F0
F0
F0
ENDCHAR
STARTCHAR 00B8
ENCODING 184
SWIDTH 180 0
DWIDTH 6 0
BBX 5 5 1 -5
BITMAP
18
70
70
F0
F0
ENDCHAR
STARTCHAR 00BB
ENCODING 187
SWIDTH 450 0
DWIDTH 15 0
BBX 14 13 1 5
BITMAP
C100
E1C0
F1E0
78F0
1E78
0E3C
0E3C
1E3C
3CF0
F1E0
E1C0
C180
8200
ENDCHAR
STARTCHAR 00BC
ENCODING 188
SWIDTH 570 0
DWIDTH 19 0
BBX 17 23 1 0
BITMAP
3C0E00
7C0E00
FC1C00
FC1C00
9C3800
1C3800
1C3000
1C7000
1C7000
1CE000
1CE000
01C700
01CF00
039F00
039F00
073F00
073F00
0E7700
0E7F80
1C7F80
1C7F80
380700
380700
ENDCHAR
STARTCHAR 00BD
ENCODING 189
SWIDTH 630 0
DWIDTH 21 0
BBX 19 23 1 0
BITMAP
3C0E00
7C0E00
FC1C00
FC1C00
9C3800
1C3800
1C3000
1C7000
1C7000
1CE000
1CE000
01CFE0
01CFE0
039FE0
039CE0
0700E0
0701C0
0E0380
0E0700
1C0E00
1C1FE0
381FE0
381FE0
ENDCHAR
STARTCHAR 00BE
ENCODING 190
SWIDTH 630 0
DWIDTH 21 0
BBX 19 23 1 0
BITMAP
FF0380
7F0300
070700
070700
3F0E00
3F0E00
3F1C00
071C00
073800
7F3800
7F7000
007380
00E3C0
00E7C0
01CFC0
01CFC0
039DC0
039DC0
039FE0
071FE0
071FE0
0E01C0
0E01C0
ENDCHAR
STARTCHAR 00BF
ENCODING 191
SWIDTH 510 0
DWIDTH 17 0
BBX 16 23 1 0
BITMAP
07C0
07C0
07C0
07C0
0000
0000
07C0
07C0
07C0
07C0
0F80
0F80
1F00
3F00
3E00
7C00
FC1F
FC1F
FFFF
FFFE
FFFE
FFFC
7FF8
ENDCHAR
STARTCHAR 00C0
ENCODING 192
SWIDTH 570 0
DWIDTH 19 0
BBX 19 28 0 0
BITMAP
0F8000
0FFC00
07FF00
000000
000000
07FE00
07FE00
0FFE00
0FFE00
0FFF00
0F1F00
0F1F00
1F0F00
1F0F00
1F0F80
1E0F80
1E0F80
3E0F80
3E0780
3F0FC0
3FFFC0
3FFFC0
7DFFC0
7C07C0
7C07E0
7C03E0
7C03E0
FC03E0
ENDCHAR
STARTCHAR 00C1
ENCODING 193
SWIDTH 570 0
DWIDTH 19 0
BBX 19 28 0 0
BITMAP
01FF00
0FFE00
0FC000
000000
000000
07FE00
07FE00
0FFE00
0FFE00
0FFF00
0F1F00
0F1F00
1F0F00
1F0F00
1F0F80
1E0F80
1E0F80
3E0F80
3E0780
3F0FC0
3FFFC0
3FFFC0
7DFFC0
7C07C0
7C07E0
7C03E0
7C03E0
FC03E0
ENDCHAR
STARTCHAR 00C2
ENCODING 194
SWIDTH 570 0
DWIDTH 19 0
BBX 19 29 0 0
BITMAP
07FC00
0FFE00
1FFF00
1C0700
000000
000000
07FE00
07FE00
0FFE00
0FFE00
0FFF00
0F1F00
0F1F00
1F0F00
1F0F00
1F0F80
1E0F80
1E0F80
3E0F80
3E0780
3F0FC0
3FFFC0
3FFFC0
7DFFC0
7C07C0
7C07E0
7C03E0
7C03E0
FC03E0
ENDCHAR
STARTCHAR 00C3
ENCODING 195
SWIDTH 570 0
DWIDTH 19 0
BBX 19 29 0 0
BITMAP
038000
0FF380
1EFF80
181F00
000000
000000
07FE00
07FE00
0FFE00
0FFE00
0FFF00
0F1F00
0F1F00
1F0F00
1F0F00
1F0F80
1E0F80
1E0F80
3E0F80
3E0780
3F0FC0
3FFFC0
3FFFC0
7DFFC0
7C07C0
7C07E0
7C03E0
7C03E0
FC03E0
ENDCHAR
STARTCHAR 00C4
ENCODING 196
SWIDTH 570 0
DWIDTH 19 0
BBX 19 28 0 0
BITMAP
039C00
039C00
039C00
000000
000000
07FE00
07FE00
0FFE00
0FFE00
0FFF00
0F1F00
0F1F00
1F0F00
1F0F00
1F0F80
1E0F80
1E0F80
3E0F80
3E0780
3F0FC0
3FFFC0
3FFFC0
7DFFC0
7C07C0
7C07E0
7C03E0
7C03E0
FC03E0
ENDCHAR
STARTCHAR 00C5
ENCODING 197
SWIDTH 570 0
DWIDTH 19 0
BBX 19 29 0 0
BITMAP
01F000
019000
019000
01F000
000000
000000
07FE00
07FE00
0FFE00
0FFE00
0FFF00
0F1F00
0F1F00
1F0F00
1F0F00
1F0F80
1E0F80
1E0F80
3E0F80
3E0780
3F0FC0
3FFFC0
3FFFC0
7DFFC0
7C07C0
7C07E0
7C03E0
7C03E0
FC03E0
ENDCHAR
STARTCHAR 00C6
ENCODING 198
SWIDTH 840 0
DWIDTH 28 0
BBX 27 23 0 0
BITMAP
07FFFF80
07FFFF80
0FFFFFC0
0FFFFFE0
0FFFFFE0
0F1F03E0
0F1F0000
1F1F0000
1F1F0000
1F1FFE00
1E1FFE00
1E1FFE00
3E1FFE00
3E1F0000
3F1F0000
3FFF0000
3FFF0000
7DFF03E0
7C1FFFE0
7C1FFFE0
7C1FFFC0
7C1FFF80
FC1FFF00
ENDCHAR
STARTCHAR 00C7
ENCODING 199
SWIDTH 540 0
DWIDTH 18 0
BBX 16 28 1 -5
BITMAP
FFFC
FFFE
FFFE
FFFF
FFFF
FC1F
FC00
FC00
FC00
FC00
FC00
FC00
FC00
FC00
FC00
FC00
FC00
FC3F
FFFF
FFFF
FFFE
FFFC
FFFC
00C0
0380
0380
0780
0F00
ENDCHAR
STARTCHAR 00C8
ENCODING 200
SWIDTH 540 0
DWIDTH 18 0
BBX 16 28 1 0
BITMAP
3E00
3FF0
1FFC
0000
0000
FFFC
FFFC
FFFE
FFFF
FFFF
FC1F
FC00
FC00
FC00
FFF0
FFF0
FFF0
FFF0
FC00
FC00
FC00
FC00
FC1F
FFFF
FFFF
FFFE
FFFC
FFF8
ENDCHAR
STARTCHAR 00C9
ENCODING 201
SWIDTH 540 0
DWIDTH 18 0
BBX 16 28 1 0
BITMAP
07FC
3FF8
3F00
0000
0000
FFFC
FFFC
FFFE
FFFF
FFFF
FC1F
FC00
FC00
FC00
FFF0
FFF0
FFF0
FFF0
FC00
FC00
FC00
FC00
FC1F
FFFF
FFFF
FFFE
FFFC
FFF8
ENDCHAR
STARTCHAR 00CA
ENCODING 202
SWIDTH 540 0
DWIDTH 18 0
BBX 16 29 1 0
BITMAP
1FF0
3FF8
7FFC
F03C
0000
0000
FFFC
FFFC
FFFE
FFFF
FFFF
FC1F
FC00
FC00
FC00
FFF0
FFF0
FFF0
FFF0
FC00
FC00
FC00
FC00
FC1F
FFFF
FFFF
FFFE
FFFC
FFF8
ENDCHAR
STARTCHAR 00CB
ENCODING 203
SWIDTH 540 0
DWIDTH 18 0
BBX 16 28 1 0
BITMAP
1C70
1C70
1C70
0000
0000
FFFC
FFFC
FFFE
FFFF
FFFF
FC1F
FC00
FC00
FC00
FFF0
FFF0
FFF0
FFF0
FC00
FC00
FC00
FC00
FC1F
FFFF
FFFF
FFFE
FFFC
FFF8
ENDCHAR
STARTCHAR 00CC
ENCODING 204
SWIDTH 210 0
DWIDTH 7 0
BBX 12 28 -1 0
BITMAP
F800
FFC0
7FF0
0000
0000
3F00
3F00
3F00
3F00
3F00
3F00
3F00
3F00
3F00
3F00
3F00
3F00
3F00
3F00
3F00
3F00
3F00
3F00
3F00
3F00
3F00
3F00
3F00
ENDCHAR
STARTCHAR 00CD
ENCODING 205
SWIDTH 210 0
DWIDTH 7 0
BBX 12 28 -2 0
BITMAP
1FF0
FFE0
FC00
0000
0000
1F80
1F80
1F80
1F80
1F80
1F80
1F80
1F80
1F80
1F80
1F80
1F80
1F80
1F80
1F80
1F80
1F80
1F80
1F80
1F80
1F80
1F80
1F80
ENDCHAR
STARTCHAR 00CE
ENCODING 206
SWIDTH 480 0
DWIDTH 16 0
BBX 14 29 1 0
BITMAP
1FF0
3FF8
7FFC
F03C
0000
0000
07C0
07C0
07C0
07C0
07C0
07C0
07C0
07C0
07C0
07C0
07C0
07C0
07C0
07C0
07C0
07C0
07C0
07C0
07C0
07C0
07C0
07C0
07C0
ENDCHAR
STARTCHAR 00CF
ENCODING 207
SWIDTH 210 0
DWIDTH 7 0
BBX 8 28 0 0
BITMAP
E7
E7
E7
00
00
7E
7E
7E
7E
7E
7E
7E
7E
7E
7E
7E
7E
7E
7E
7E
7E
7E
7E
7E
7E
7E
7E
7E
ENDCHAR
STARTCHAR 00D0
ENCODING 208
SWIDTH 570 0
DWIDTH 19 0
BBX 19 23 -1 0
BITMAP
3FFF80
3FFFC0
3FFFC0
3FFFE0
3FFFE0
3F07E0
3F03E0
3F03E0
3F03E0
3F03E0
FFC3E0
FFC3E0
FFC3E0
3F03E0
3F03E0
3F03E0
3F03E0
3F07E0
3FFFE0
3FFFE0
3FFFC0
3FFF80
3FFF80
ENDCHAR
STARTCHAR 00D1
ENCODING 209
SWIDTH 570 0
DWIDTH 19 0
BBX 17 29 1 0
BITMAP
078000
1FE700
3DFF00
383E00
000000
000000
3C0F80
3C0F80
7E0F80
FE0F80
FF0F80
FF0F80
FF8F80
FF8F80
FF8F80
FFCF80
FFCF80
FFFF80
FDFF80
FDFF80
FCFF80
FCFF80
FC7F80
FC7F80
FC3F80
FC3F80
FC3F00
FC1E00
FC1C00
ENDCHAR
STARTCHAR 00D2
ENCODING 210
SWIDTH 600 0
DWIDTH 20 0
BBX 18 28 1 0
BITMAP
0F8000
0FFC00
07FF00
000000
000000
3FFF00
3FFF80
7FFFC0
FFFFC0
FFFFC0
FC07C0
FC07C0
FC07C0
FC07C0
FC07C0
FC07C0
FC07C0
FC07C0
FC07C0
FC07C0
FC07C0
FC07C0
FC07C0
FFFFC0
FFFFC0
7FFF80
3FFF80
1FFF00
ENDCHAR
STARTCHAR 00D3
ENCODING 211
SWIDTH 600 0
DWIDTH 20 0
BBX 18 28 1 0
BITMAP
01FF00
0FFE00
0FC000
000000
000000
3FFF00
3FFF80
7FFFC0
FFFFC0
FFFFC0
FC07C0
FC07C0
FC07C0
FC07C0
FC07C0
FC07C0
FC07C0
FC07C0
FC07C0
FC07C0
FC07C0
FC07C0
FC07C0
FFFFC0
FFFFC0
7FFF80
3FFF80
1FFF00
ENDCHAR
STARTCHAR 00D4
ENCODING 212
SWIDTH 600 0
DWIDTH 20 0
BBX 18 29 1 0
BITMAP
07FC00
0FFE00
1FFF00
1C0700
000000
000000
3FFF00
3FFF80
7FFFC0
FFFFC0
FFFFC0
FC07C0
FC07C0
FC07C0
FC07C0
FC07C0
FC07C0
FC07C0
FC07C0
FC07C0
FC07C0
FC07C0
FC07C0
FC07C0
FFFFC0
FFFFC0
7FFF80
3FFF80
1FFF00
ENDCHAR
STARTCHAR 00D5
ENCODING 213
SWIDTH 600 0
DWIDTH 20 0
BBX 18 29 1 0
BITMAP
038000
0FF300
1EFF00
183E00
000000
000000
3FFF00
3FFF80
7FFFC0
FFFFC0
FFFFC0
FC07C0
FC07C0
FC07C0
FC07C0
FC07C0
FC07C0
FC07C0
FC07C0
FC07C0
FC07C0
FC07C0
FC07C0
FC07C0
FFFFC0
FFFFC0
7FFF80
3FFF80
1FFF00
ENDCHAR
STARTCHAR 00D6
ENCODING 214
SWIDTH 600 0
DWIDTH 20 0
BBX 18 28 1 0
BITMAP
073C00
073C00
073C00
000000
000000
3FFF00
3FFF80
7FFFC0
FFFFC0
FFFFC0
FC07C0
FC07C0
FC07C0
FC07C0
FC07C0
FC07C0
FC07C0
FC07C0
FC07C0
FC07C0
FC07C0
FC07C0
FC07C0
FFFFC0
FFFFC0
7FFF80
3FFF80
1FFF00
ENDCHAR
STARTCHAR 00D7
ENCODING 215
SWIDTH 390 0
DWIDTH 13 0
BBX 12 10 1 7
BITMAP
60E0
F9F0
7FE0
3FC0
1F80
3F80
7FE0
FBF0
F0E0
6060
ENDCHAR
STARTCHAR 00D8
ENCODING 216
SWIDTH 600 0
DWIDTH 20 0
BBX 18 29 1 -3
BITMAP
0003C0
000780
000780
3FFF00
3FFF80
7FFFC0
FFFFC0
FFFFC0
FC3FC0
FC3FC0
FC7FC0
FC7FC0
FCF7C0
FCF7C0
FDE7C0
FDE7C0
FFC7C0
FFC7C0
FF87C0
FF87C0
FF07C0
FFFFC0
FFFFC0
7FFF80
3FFF80
3FFF00
380000
780000
780000
ENDCHAR
STARTCHAR 00D9
ENCODING 217
SWIDTH 600 0
DWIDTH 20 0
BBX 18 28 1 0
BITMAP
1F8000
1FF800
07FE00
000000
000000
FC07C0
FC07C0
FC07C0
FC07C0
FC07C0
FC07C0
FC07C0
FC07C0
FC07C0
FC07C0
FC07C0
FC07C0
FC07C0
FC07C0
FC07C0
FC07C0
FC07C0
FC0FC0
FFFFC0
FFFFC0
7FFF80
3FFF80
1FFF00
ENDCHAR
STARTCHAR 00DA
ENCODING 218
SWIDTH 600 0
DWIDTH 20 0
BBX 18 28 1 0
BITMAP
01FE00
1FFE00
1FC000
000000
000000
FC07C0
FC07C0
FC07C0
FC07C0
FC07C0
FC07C0
FC07C0
FC07C0
FC07C0
FC07C0
FC07C0
FC07C0
FC07C0
FC07C0
FC07C0
FC07C0
FC07C0
FC0FC0
FFFFC0
FFFFC0
7FFF80
3FFF80
1FFF00
ENDCHAR
STARTCHAR 00DB
ENCODING 219
SWIDTH 600 0
DWIDTH 20 0
BBX 18 29 1 0
BITMAP
07FC00
0FFE00
1FFF00
3C0700
000000
000000
FC07C0
FC07C0
FC07C0
FC07C0
FC07C0
FC07C0
FC07C0
FC07C0
FC07C0
FC07C0
FC07C0
FC07C0
FC07C0
FC07C0
FC07C0
FC07C0
FC07C0
FC0FC0
FFFFC0
FFFFC0
7FFF80
3FFF80
1FFF00
ENDCHAR
STARTCHAR 00DC
ENCODING 220
SWIDTH 600 0
DWIDTH 20 0
BBX 18 28 1 0
BITMAP
071C00
071C00
071C00
000000
000000
FC07C0
FC07C0
FC07C0
FC07C0
FC07C0
FC07C0
FC07C0
FC07C0
FC07C0
FC07C0
FC07C0
FC07C0
FC07C0
FC07C0
FC07C0
FC07C0
FC07C0
FC0FC0
FFFFC0
FFFFC0
7FFF80
3FFF80
1FFF00
ENDCHAR
STARTCHAR 00DD
ENCODING 221
SWIDTH 450 0
DWIDTH 15 0
BBX 16 28 0 0
BITMAP
07FC
3FF8
3F00
0000
0000
F81F
F83F
FC3E
7C3E
7E7E
3E7C
3E7C
3FF8
1FF8
1FF0
0FF0
0FE0
07E0
07E0
07C0
07C0
07C0
07C0
07C0
07C0
07C0
07C0
07C0
ENDCHAR
STARTCHAR 00DE
ENCODING 222
SWIDTH 540 0
DWIDTH 18 0
BBX 16 27 1 0
BITMAP
FC00
FC00
FC00
FC00
FFFC
FFFC
FFFE
FFFF
FFFF
FC3F
FC1F
FC1F
FC1F
FC3F
FFFF
FFFF
FFFE
FFFC
FFFC
FC00
FC00
FC00
FC00
FC00
FC00
FC00
FC00
ENDCHAR
STARTCHAR 00DF
ENCODING 223
SWIDTH 570 0
DWIDTH 19 0
BBX 17 23 1 0
BITMAP
3FFE00
3FFF00
7FFF00
FFFF80
FC1F80
FC0F80
FC0F80
FC0F80
FC0F80
FDFF80
FDFF00
FDFF00
FDFF80
FCFF80
FC0F80
FC0F80
FC0F80
FC0F80
FDFF80
FDFF80
FDFF00
FDFE00
FDFE00
ENDCHAR
STARTCHAR 00E0
ENCODING 224
SWIDTH 570 0
DWIDTH 19 0
BBX 19 28 0 0
BITMAP
0F8000
0FFC00
07FF00
000000
000000
07FE00
07FE00
0FFE00
0FFE00
0FFF00
0F1F00
0F1F00
1F0F00
1F0F00
1F0F80
1E0F80
1E0F80
3E0F80
3E0780
3F0FC0
3FFFC0
3FFFC0
7DFFC0
7C07C0
7C07E0
7C03E0
7C03E0
FC03E0
ENDCHAR
STARTCHAR 00E1
ENCODING 225
SWIDTH 570 0
DWIDTH 19 0
BBX 19 28 0 0
BITMAP
01FF00
0FFE00
0FC000
000000
000000
07FE00
07FE00
0FFE00
0FFE00
0FFF00
0F1F00
0F1F00
1F0F00
1F0F00
1F0F80
1E0F80
1E0F80
3E0F80
3E0780
3F0FC0
3FFFC0
3FFFC0
7DFFC0
7C07C0
7C07E0
7C03E0
7C03E0
FC03E0
ENDCHAR
STARTCHAR 00E2
ENCODING 226
SWIDTH 570 0
DWIDTH 19 0
BBX 19 29 0 0
BITMAP
07FC00
0FFE00
1FFF00
1C0700
000000
000000
07FE00
07FE00
0FFE00
0FFE00
0FFF00
0F1F00
0F1F00
1F0F00
1F0F00
1F0F80
1E0F80
1E0F80
3E0F80
3E0780
3F0FC0
3FFFC0
3FFFC0
7DFFC0
7C07C0
7C07E0
7C03E0
7C03E0
FC03E0
ENDCHAR
STARTCHAR 00E3
ENCODING 227
SWIDTH 570 0
DWIDTH 19 0
BBX 19 29 0 0
BITMAP
038000
0FF380
1EFF80
181F00
000000
000000
07FE00
07FE00
0FFE00
0FFE00
0FFF00
0F1F00
0F1F00
1F0F00
1F0F00
1F0F80
1E0F80
1E0F80
3E0F80
3E0780
3F0FC0
3FFFC0
3FFFC0
7DFFC0
7C07C0
7C07E0
7C03E0
7C03E0
FC03E0
ENDCHAR
STARTCHAR 00E4
ENCODING 228
SWIDTH 570 0
DWIDTH 19 0
BBX 19 28 0 0
BITMAP
039C00
039C00
039C00
000000
000000
07FE00
07FE00
0FFE00
0FFE00
0FFF00
0F1F00
0F1F00
1F0F00
1F0F00
1F0F80
1E0F80
1E0F80
3E0F80
3E0780
3F0FC0
3FFFC0
3FFFC0
7DFFC0
7C07C0
7C07E0
7C03E0
7C03E0
FC03E0
ENDCHAR
STARTCHAR 00E5
ENCODING 229
SWIDTH 570 0
DWIDTH 19 0
BBX 19 29 0 0
BITMAP
01F000
019000
019000
01F000
000000
000000
07FE00
07FE00
0FFE00
0FFE00
0FFF00
0F1F00
0F1F00
1F0F00
1F0F00
1F0F80
1E0F80
1E0F80
3E0F80
3E0780
3F0FC0
3FFFC0
3FFFC0
7DFFC0
7C07C0
7C07E0
7C03E0
7C03E0
FC03E0
ENDCHAR
STARTCHAR 00E6
ENCODING 230
SWIDTH 840 0
DWIDTH 28 0
BBX 27 23 0 0
BITMAP
07FFFF80
07FFFF80
0FFFFFC0
0FFFFFE0
0FFFFFE0
0F1F03E0
0F1F0000
1F1F0000
1F1F0000
1F1FFE00
1E1FFE00
1E1FFE00
3E1FFE00
3E1F0000
3F1F0000
3FFF0000
3FFF0000
7DFF03E0
7C1FFFE0
7C1FFFE0
7C1FFFC0
7C1FFF80
FC1FFF00
ENDCHAR
STARTCHAR 00E7
ENCODING 231
SWIDTH 540 0
DWIDTH 18 0
BBX 16 28 1 -5
BITMAP
FFFC
FFFE
FFFE
FFFF
FFFF
FC1F
FC00
FC00
FC00
FC00
FC00
FC00
FC00
FC00
FC00
FC00
FC00
FC3F
FFFF
FFFF
FFFE
FFFC
FFFC
00C0
0380
0380
0780
0F00
ENDCHAR
STARTCHAR 00E8
ENCODING 232
SWIDTH 540 0
DWIDTH 18 0
BBX 16 28 1 0
BITMAP
3E00
3FF0
1FFC
0000
0000
FFFC
FFFC
FFFE
FFFF
FFFF
FC1F
FC00
FC00
FC00
FFF0
FFF0
FFF0
FFF0
FC00
FC00
FC00
FC00
FC1F
FFFF
FFFF
FFFE
FFFC
FFF8
ENDCHAR
STARTCHAR 00E9
ENCODING 233
SWIDTH 540 0
DWIDTH 18 0
BBX 16 28 1 0
BITMAP
07FC
3FF8
3F00
0000
0000
FFFC
FFFC
FFFE
FFFF
FFFF
FC1F
FC00
FC00
FC00
FFF0
FFF0
FFF0
FFF0
FC00
FC00
FC00
FC00
FC1F
FFFF
FFFF
FFFE
FFFC
FFF8
ENDCHAR
STARTCHAR 00EA
ENCODING 234
SWIDTH 540 0
DWIDTH 18 0
BBX 16 29 1 0
BITMAP
1FF0
3FF8
7FFC
F03C
0000
0000
FFFC
FFFC
FFFE
FFFF
FFFF
FC1F
FC00
FC00
FC00
FFF0
FFF0
FFF0
FFF0
FC00
FC00
FC00
FC00
FC1F
FFFF
FFFF
FFFE
FFFC
FFF8
ENDCHAR
STARTCHAR 00EB
ENCODING 235
SWIDTH 540 0
DWIDTH 18 0
BBX 16 28 1 0
BITMAP
1CF0
1CF0
1CF0
0000
0000
FFFC
FFFC
FFFE
FFFF
FFFF
FC1F
FC00
FC00
FC00
FFF0
FFF0
FFF0
FFF0
FC00
FC00
FC00
FC00
FC1F
FFFF
FFFF
FFFE
FFFC
FFF8
ENDCHAR
STARTCHAR 00EC
ENCODING 236
SWIDTH 210 0
DWIDTH 7 0
BBX 12 28 -2 0
BITMAP
F800
FFC0
7FF0
0000
0000
1F80
1F80
1F80
1F80
1F80
1F80
1F80
1F80
1F80
1F80
1F80
1F80
1F80
1F80
1F80
1F80
1F80
1F80
1F80
1F80
1F80
1F80
1F80
ENDCHAR
STARTCHAR 00ED
ENCODING 237
SWIDTH 210 0
DWIDTH 7 0
BBX 12 28 -2 0
BITMAP
1FF0
FFE0
FC00
0000
0000
1F80
1F80
1F80
1F80
1F80
1F80
1F80
1F80
1F80
1F80
1F80
1F80
1F80
1F80
1F80
1F80
1F80
1F80
1F80
1F80
1F80
1F80
1F80
ENDCHAR
STARTCHAR 00EE
ENCODING 238
SWIDTH 480 0
DWIDTH 16 0
BBX 14 29 1 0
BITMAP
1FF0
3FF8
7FFC
F03C
0000
0000
07C0
07C0
07C0
07C0
07C0
07C0
07C0
07C0
07C0
07C0
07C0
07C0
07C0
07C0
07C0
07C0
07C0
07C0
07C0
07C0
07C0
07C0
07C0
ENDCHAR
STARTCHAR 00EF
ENCODING 239
SWIDTH 210 0
DWIDTH 7 0
BBX 8 28 0 0
BITMAP
E7
E7
E7
00
00
7E
7E
7E
7E
7E
7E
7E
7E
7E
7E
7E
7E
7E
7E
7E
7E
7E
7E
7E
7E
7E
7E
7E
ENDCHAR
STARTCHAR 00F0
ENCODING 240
SWIDTH 570 0
DWIDTH 19 0
BBX 19 23 -1 0
BITMAP
3FFF80
3FFFC0
3FFFC0
3FFFE0
3FFFE0
3F07E0
3F03E0
3F03E0
3F03E0
3F03E0
FFC3E0
FFC3E0
FFC3E0
3F03E0
3F03E0
3F03E0
3F03E0
3F07E0
3FFFE0
3FFFE0
3FFFC0
3FFF80
3FFF80
ENDCHAR
STARTCHAR 00F1
ENCODING 241
SWIDTH 570 0
DWIDTH 19 0
BBX 17 29 1 0
BITMAP
078000
1FE700
3DFF00
383E00
000000
000000
3C0F80
3C0F80
7E0F80
FE0F80
FF0F80
FF0F80
FF8F80
FF8F80
FF8F80
FFCF80
FFCF80
FFFF80
FDFF80
FDFF80
FCFF80
FCFF80
FC7F80
FC7F80
FC3F80
FC3F80
FC3F00
FC1E00
FC1C00
ENDCHAR
STARTCHAR 00F2
ENCODING 242
SWIDTH 600 0
DWIDTH 20 0
BBX 18 28 1 0
BITMAP
1F0000
1FF800
0FFE00
000000
000000
3FFF00
3FFF80
7FFFC0
FFFFC0
FFFFC0
FC07C0
FC07C0
FC07C0
FC07C0
FC07C0
FC07C0
FC07C0
FC07C0
FC07C0
FC07C0
FC07C0
FC07C0
FC07C0
FFFFC0
FFFFC0
7FFF80
3FFF80
1FFF00
ENDCHAR
STARTCHAR 00F3
ENCODING 243
SWIDTH 600 0
DWIDTH 20 0
BBX 18 28 1 0
BITMAP
01FE00
1FFC00
1FC000
000000
000000
3FFF00
3FFF80
7FFFC0
FFFFC0
FFFFC0
FC07C0
FC07C0
FC07C0
FC07C0
FC07C0
FC07C0
FC07C0
FC07C0
FC07C0
FC07C0
FC07C0
FC07C0
FC07C0
FFFFC0
FFFFC0
7FFF80
3FFF80
1FFF00
ENDCHAR
STARTCHAR 00F4
ENCODING 244
SWIDTH 600 0
DWIDTH 20 0
BBX 18 29 1 0
BITMAP
07FC00
0FFE00
1FFF00
1C0700
000000
000000
3FFF00
3FFF80
7FFFC0
FFFFC0
FFFFC0
FC07C0
FC07C0
FC07C0
FC07C0
FC07C0
FC07C0
FC07C0
FC07C0
FC07C0
FC07C0
FC07C0
FC07C0
FC07C0
FFFFC0
FFFFC0
7FFF80
3FFF80
1FFF00
ENDCHAR
STARTCHAR 00F5
ENCODING 245
SWIDTH 600 0
DWIDTH 20 0
BBX 18 29 1 0
BITMAP
038000
0FF300
1EFF00
183E00
000000
000000
3FFF00
3FFF80
7FFFC0
FFFFC0
FFFFC0
FC07C0
FC07C0
FC07C0
FC07C0
FC07C0
FC07C0
FC07C0
FC07C0
FC07C0
FC07C0
FC07C0
FC07C0
FC07C0
FFFFC0
FFFFC0
7FFF80
3FFF80
1FFF00
ENDCHAR
STARTCHAR 00F6
ENCODING 246
SWIDTH 600 0
DWIDTH 20 0
BBX 18 28 1 0
BITMAP
073C00
073C00
073C00
000000
000000
3FFF00
3FFF80
7FFFC0
FFFFC0
FFFFC0
FC07C0
FC07C0
FC07C0
FC07C0
FC07C0
FC07C0
FC07C0
FC07C0
FC07C0
FC07C0
FC07C0
FC07C0
FC07C0
FFFFC0
FFFFC0
7FFF80
3FFF80
1FFF00
ENDCHAR
STARTCHAR 00F7
ENCODING 247
SWIDTH 420 0
DWIDTH 14 0
BBX 13 12 1 6
BITMAP
0F00
0F00
0F00
0000
FFF8
FFF8
FFF8
FFF8
0000
0F00
0F00
0F00
ENDCHAR
STARTCHAR 00F8
ENCODING 248
SWIDTH 600 0
DWIDTH 20 0
BBX 18 29 1 -3
BITMAP
0003C0
000780
000780
3FFF00
3FFF80
7FFFC0
FFFFC0
FFFFC0
FC3FC0
FC3FC0
FC7FC0
FC7FC0
FCF7C0
FCF7C0
FDE7C0
FDE7C0
FFC7C0
FFC7C0
FF87C0
FF87C0
FF07C0
FFFFC0
FFFFC0
7FFF80
3FFF80
3FFF00
380000
780000
780000
ENDCHAR
STARTCHAR 00F9
ENCODING 249
SWIDTH 600 0
DWIDTH 20 0
BBX 18 28 1 0
BITMAP
1F8000
1FF800
07FE00
000000
000000
FC07C0
FC07C0
FC07C0
FC07C0
FC07C0
FC07C0
FC07C0
FC07C0
FC07C0
FC07C0
FC07C0
FC07C0
FC07C0
FC07C0
FC07C0
FC07C0
FC07C0
FC0FC0
FFFFC0
FFFFC0
7FFF80
3FFF80
1FFF00
ENDCHAR
STARTCHAR 00FA
ENCODING 250
SWIDTH 600 0
DWIDTH 20 0
BBX 18 28 1 0
BITMAP
01FE00
1FFE00
1FC000
000000
000000
FC07C0
FC07C0
FC07C0
FC07C0
FC07C0
FC07C0
FC07C0
FC07C0
FC07C0
FC07C0
FC07C0
FC07C0
FC07C0
FC07C0
FC07C0
FC07C0
FC07C0
FC0FC0
FFFFC0
FFFFC0
7FFF80
3FFF80
1FFF00
ENDCHAR
STARTCHAR 00FB
ENCODING 251
SWIDTH 600 0
DWIDTH 20 0
BBX 18 29 1 0
BITMAP
07FC00
0FFE00
1FFF00
3C0700
000000
000000
FC07C0
FC07C0
FC07C0
FC07C0
FC07C0
FC07C0
FC07C0
FC07C0
FC07C0
FC07C0
FC07C0
FC07C0
FC07C0
FC07C0
FC07C0
FC07C0
FC07C0
FC0FC0
FFFFC0
FFFFC0
7FFF80
3FFF80
1FFF00
ENDCHAR
STARTCHAR 00FC
ENCODING 252
SWIDTH 600 0
DWIDTH 20 0
BBX 18 28 1 0
BITMAP
073C00
073C00
073C00
000000
000000
FC07C0
FC07C0
FC07C0
FC07C0
FC07C0
FC07C0
FC07C0
FC07C0
FC07C0
FC07C0
FC07C0
FC07C0
FC07C0
FC07C0
FC07C0
FC07C0
FC07C0
FC0FC0
FFFFC0
FFFFC0
7FFF80
3FFF80
1FFF00
ENDCHAR
STARTCHAR 00FD
ENCODING 253
SWIDTH 450 0
DWIDTH 15 0
BBX 16 28 0 0
BITMAP
07FC
3FF8
3F00
0000
0000
F81F
F83F
FC3E
7C3E
7E7E
3E7C
3E7C
3FF8
1FF8
1FF0
0FF0
0FE0
07E0
07E0
07C0
07C0
07C0
07C0
07C0
07C0
07C0
07C0
07C0
ENDCHAR
STARTCHAR 00FE
ENCODING 254
SWIDTH 540 0
DWIDTH 18 0
BBX 16 27 1 0
BITMAP
FC00
FC00
FC00
FC00
FFFC
FFFC
FFFE
FFFF
FFFF
FC3F
FC1F
FC1F
FC1F
FC3F
FFFF
FFFF
FFFE
FFFC
FFFC
FC00
FC00
FC00
FC00
FC00
FC00
FC00
FC00
ENDCHAR
STARTCHAR 00FF
ENCODING 255
SWIDTH 450 0
DWIDTH 15 0
BBX 16 28 0 0
BITMAP
0E70
0E70
0E70
0000
0000
F81F
F83F
FC3E
7C3E
7E7E
3E7C
3E7C
3FF8
1FF8
1FF0
0FF0
0FE0
07E0
07E0
07C0
07C0
07C0
07C0
07C0
07C0
07C0
07C0
07C0
ENDCHAR
STARTCHAR 0100
ENCODING 256
SWIDTH 570 0
DWIDTH 19 0
BBX 19 28 0 0
BITMAP
1FFF00
1FFF00
1FFF00
000000
000000
07FE00
07FE00
0FFE00
0FFE00
0FFF00
0F1F00
0F1F00
1F0F00
1F0F00
1F0F80
1E0F80
1E0F80
3E0F80
3E0780
3F0FC0
3FFFC0
3FFFC0
7DFFC0
7C07C0
7C07E0
7C03E0
7C03E0
FC03E0
ENDCHAR
STARTCHAR 0101
ENCODING 257
SWIDTH 570 0
DWIDTH 19 0
BBX 19 28 0 0
BITMAP
1FFF00
1FFF00
1FFF00
000000
000000
07FE00
07FE00
0FFE00
0FFE00
0FFF00
0F1F00
0F1F00
1F0F00
1F0F00
1F0F80
1E0F80
1E0F80
3E0F80
3E0780
3F0FC0
3FFFC0
3FFFC0
7DFFC0
7C07C0
7C07E0
7C03E0
7C03E0
FC03E0
ENDCHAR
STARTCHAR 0102
ENCODING 258
SWIDTH 570 0
DWIDTH 19 0
BBX 19 29 0 0
BITMAP
180300
1E0700
1FFF00
0FFE00
000000
000000
07FE00
07FE00
0FFE00
0FFE00
0FFF00
0F1F00
0F1F00
1F0F00
1F0F00
1F0F80
1E0F80
1E0F80
3E0F80
3E0780
3F0FC0
3FFFC0
3FFFC0
7DFFC0
7C07C0
7C07E0
7C03E0
7C03E0
FC03E0
ENDCHAR
STARTCHAR 0103
ENCODING 259
SWIDTH 570 0
DWIDTH 19 0
BBX 19 29 0 0
BITMAP
180300
1E0700
1FFF00
0FFE00
000000
000000
07FE00
07FE00
0FFE00
0FFE00
0FFF00
0F1F00
0F1F00
1F0F00
1F0F00
1F0F80
1E0F80
1E0F80
3E0F80
3E0780
3F0FC0
3FFFC0
3FFFC0
7DFFC0
7C07C0
7C07E0
7C03E0
7C03E0
FC03E0
ENDCHAR
STARTCHAR 0104
ENCODING 260
SWIDTH 570 0
DWIDTH 19 0
BBX 21 28 0 -5
BITMAP
07FE00
07FE00
0FFE00
0FFE00
0FFF00
0F1F00
0F1F00
1F0F00
1F0F00
1F0F80
1E0F80
1E0F80
3E0F80
3E0780
3F0FC0
3FFFC0
3FFFC0
7DFFC0
7C07C0
7C07E0
7C03E0
7C03E0
FC03E0
000060
0000C0
0001D8
0001F8
0001F8
ENDCHAR
STARTCHAR 0105
ENCODING 261
SWIDTH 570 0
DWIDTH 19 0
BBX 21 28 0 -5
BITMAP
07FE00
07FE00
0FFE00
0FFE00
0FFF00
0F1F00
0F1F00
1F0F00
1F0F00
1F0F80
1E0F80
1E0F80
3E0F80
3E0780
3F0FC0
3FFFC0
3FFFC0
7DFFC0
7C07C0
7C07E0
7C03E0
7C03E0
FC03E0
000060
0000C0
0001D8
0001F8
0001F8
ENDCHAR
STARTCHAR 0106
ENCODING 262
SWIDTH 540 0
DWIDTH 18 0
BBX 16 28 1 0
BITMAP
07FC
3FFC
3F80
0000
0000
FFFC
FFFE
FFFE
FFFF
FFFF
FC1F
FC00
FC00
FC00
FC00
FC00
FC00
FC00
FC00
FC00
FC00
FC00
FC3F
FFFF
FFFF
FFFE
FFFC
FFFC
ENDCHAR
STARTCHAR 0107
ENCODING 263
SWIDTH 540 0
DWIDTH 18 0
BBX 16 28 1 0
BITMAP
07FC
3FFC
3F80
0000
0000
FFFC
FFFE
FFFE
FFFF
FFFF
FC1F
FC00
FC00
FC00
FC00
FC00
FC00
FC00
FC00
FC00
FC00
FC00
FC3F
FFFF
FFFF
FFFE
FFFC
FFFC
ENDCHAR
STARTCHAR 0108
ENCODING 264
SWIDTH 540 0
DWIDTH 18 0
BBX 16 29 1 0
BITMAP
1FF0
3FF8
7FFC
F03C
0000
0000
FFFC
FFFE
FFFE
FFFF
FFFF
FC1F
FC00
FC00
FC00
FC00
FC00
FC00
FC00
FC00
FC00
FC00
FC00
FC3F
FFFF
FFFF
FFFE
FFFC
FFFC
ENDCHAR
STARTCHAR 0109
ENCODING 265
SWIDTH 540 0
DWIDTH 18 0
BBX 16 29 1 0
BITMAP
1FF0
3FF8
7FFC
F03C
0000
0000
FFFC
FFFE
FFFE
FFFF
FFFF
FC1F
FC00
FC00
FC00
FC00
FC00
FC00
FC00
FC00
FC00
FC00
FC00
FC3F
FFFF
FFFF
FFFE
FFFC
FFFC
ENDCHAR
STARTCHAR 010A
ENCODING 266
SWIDTH 540 0
DWIDTH 18 0
BBX 16 29 1 0
BITMAP
0180
03C0
03C0
03C0
0000
0000
FFFC
FFFE
FFFE
FFFF
FFFF
FC1F
FC00
FC00
FC00
FC00
FC00
FC00
FC00
FC00
FC00
FC00
FC00
FC3F
FFFF
FFFF
FFFE
FFFC
FFFC
ENDCHAR
STARTCHAR 010B
ENCODING 267
SWIDTH 540 0
DWIDTH 18 0
BBX 16 29 1 0
BITMAP
0180
03C0
03C0
03C0
0000
0000
FFFC
FFFE
FFFE
FFFF
FFFF
FC1F
FC00
FC00
FC00
FC00
FC00
FC00
FC00
FC00
FC00
FC00
FC00
FC3F
FFFF
FFFF
FFFE
FFFC
FFFC
ENDCHAR
STARTCHAR 010C
ENCODING 268
SWIDTH 540 0
DWIDTH 18 0
BBX 16 29 1 0
BITMAP
1830
1C70
1FE0
07C0
0000
0000
FFFC
FFFE
FFFE
FFFF
FFFF
FC1F
FC00
FC00
FC00
FC00
FC00
FC00
FC00
FC00
FC00
FC00
FC00
FC3F
FFFF
FFFF
FFFE
FFFC
FFFC
ENDCHAR
STARTCHAR 010D
ENCODING 269
SWIDTH 540 0
DWIDTH 18 0
BBX 16 29 1 0
BITMAP
1830
1C70
1FE0
07C0
0000
0000
FFFC
FFFE
FFFE
FFFF
FFFF
FC1F
FC00
FC00
FC00
FC00
FC00
FC00
FC00
FC00
FC00
FC00
FC00
FC3F
FFFF
FFFF
FFFE
FFFC
FFFC
ENDCHAR
STARTCHAR 010E
ENCODING 270
SWIDTH 570 0
DWIDTH 19 0
BBX 17 29 1 0
BITMAP
0C1800
0E3800
07F800
03F000
000000
000000
FFFE00
FFFF00
FFFF00
FFFF80
FFFF80
FC1F80
FC0F80
FC0F80
FC0F80
FC0F80
FC0F80
FC0F80
FC0F80
FC0F80
FC0F80
FC0F80
FC0F80
FC1F80
FFFF80
FFFF80
FFFF00
FFFE00
FFFE00
ENDCHAR
STARTCHAR 010F
ENCODING 271
SWIDTH 750 0
DWIDTH 25 0
BBX 24 23 1 0
BITMAP
FFFE0F
FFFF0F
FFFF0F
FFFF8F
FFFF8E
FC1F9E
FC0F9C
FC0FB8
FC0F80
FC0F80
FC0F80
FC0F80
FC0F80
FC0F80
FC0F80
FC0F80
FC0F80
FC1F80
FFFF80
FFFF80
FFFF00
FFFE00
FFFE00
ENDCHAR
STARTCHAR 0110
ENCODING 272
SWIDTH 570 0
DWIDTH 19 0
BBX 19 23 -1 0
BITMAP
3FFF80
3FFFC0
3FFFC0
3FFFE0
3FFFE0
3F07E0
3F03E0
3F03E0
3F03E0
3F03E0
FFC3E0
FFC3E0
FFC3E0
3F03E0
3F03E0
3F03E0
3F03E0
3F07E0
3FFFE0
3FFFE0
3FFFC0
3FFF80
3FFF80
ENDCHAR
STARTCHAR 0111
ENCODING 273
SWIDTH 570 0
DWIDTH 19 0
BBX 19 23 -1 0
BITMAP
3FFF80
3FFFC0
3FFFC0
3FFFE0
3FFFE0
3F07E0
3F03E0
3F03E0
3F03E0
3F03E0
FFC3E0
FFC3E0
FFC3E0
3F03E0
3F03E0
3F03E0
3F03E0
3F07E0
3FFFE0
3FFFE0
3FFFC0
3FFF80
3FFF80
ENDCHAR
STARTCHAR 0112
ENCODING 274
SWIDTH 540 0
DWIDTH 18 0
BBX 16 28 1 0
BITMAP
FFFC
FFFC
FFFC
0000
0000
FFFC
FFFC
FFFE
FFFF
FFFF
FC1F
FC00
FC00
FC00
FFF0
FFF0
FFF0
FFF0
FC00
FC00
FC00
FC00
FC1F
FFFF
FFFF
FFFE
FFFC
FFF8
ENDCHAR
STARTCHAR 0113
ENCODING 275
SWIDTH 540 0
DWIDTH 18 0
BBX 16 28 1 0
BITMAP
FFFC
FFFC
FFFC
0000
0000
FFFC
FFFC
FFFE
FFFF
FFFF
FC1F
FC00
FC00
FC00
FFF0
FFF0
FFF0
FFF0
FC00
FC00
FC00
FC00
FC1F
FFFF
FFFF
FFFE
FFFC
FFF8
ENDCHAR
STARTCHAR 0116
ENCODING 278
SWIDTH 540 0
DWIDTH 18 0
BBX 16 29 1 0
BITMAP
0380
03C0
03C0
03C0
0000
0000
FFFC
FFFC
FFFE
FFFF
FFFF
FC1F
FC00
FC00
FC00
FFF0
FFF0
FFF0
FFF0
FC00
FC00
FC00
FC00
FC1F
FFFF
FFFF
FFFE
FFFC
FFF8
ENDCHAR
STARTCHAR 0117
ENCODING 279
SWIDTH 540 0
DWIDTH 18 0
BBX 16 29 1 0
BITMAP
0380
03C0
03C0
03C0
0000
0000
FFFC
FFFC
FFFE
FFFF
FFFF
FC1F
FC00
FC00
FC00
FFF0
FFF0
FFF0
FFF0
FC00
FC00
FC00
FC00
FC1F
FFFF
FFFF
FFFE
FFFC
FFF8
ENDCHAR
STARTCHAR 0118
ENCODING 280
SWIDTH 540 0
DWIDTH 18 0
BBX 16 28 1 -5
BITMAP
FFFC
FFFC
FFFE
FFFF
FFFF
FC1F
FC00
FC00
FC00
FFF0
FFF0
FFF0
FFF0
FC00
FC00
FC00
FC00
FC1F
FFFF
FFFF
FFFE
FFFC
FFF8
0300
0700
0660
07E0
07C0
ENDCHAR
STARTCHAR 0119
ENCODING 281
SWIDTH 540 0
DWIDTH 18 0
BBX 16 28 1 -5
BITMAP
FFFC
FFFC
FFFE
FFFF
FFFF
FC1F
FC00
FC00
FC00
FFF0
FFF0
FFF0
FFF0
FC00
FC00
FC00
FC00
FC1F
FFFF
FFFF
FFFE
FFFC
FFF8
0300
0700
0660
07E0
07C0
ENDCHAR
STARTCHAR 011C
ENCODING 284
SWIDTH 540 0
DWIDTH 18 0
BBX 16 29 1 0
BITMAP
0FF0
1FFC
7FFE
781E
0000
0000
FFFC
FFFE
FFFF
FFFF
FFFF
FC1F
FC00
FC00
FC00
FC00
FCFF
FCFF
FCFF
FCFF
FCFF
FC1F
FC1F
FC1F
FFFF
FFFF
FFFF
FFFF
FFF7
ENDCHAR
STARTCHAR 011D
ENCODING 285
SWIDTH 540 0
DWIDTH 18 0
BBX 16 29 1 0
BITMAP
0FF0
1FFC
7FFE
781E
0000
0000
FFFC
FFFE
FFFF
FFFF
FFFF
FC1F
FC00
FC00
FC00
FC00
FCFF
FCFF
FCFF
FCFF
FCFF
FC1F
FC1F
FC1F
FFFF
FFFF
FFFF
FFFF
FFF7
ENDCHAR
STARTCHAR 011E
ENCODING 286
SWIDTH 540 0
DWIDTH 18 0
BBX 16 29 1 0
BITMAP
700E
781E
3FFC
1FF8
0000
0000
FFFC
FFFE
FFFF
FFFF
FFFF
FC1F
FC00
FC00
FC00
FC00
FCFF
FCFF
FCFF
FCFF
FCFF
FC1F
FC1F
FC1F
FFFF
FFFF
FFFF
FFFF
FFF7
ENDCHAR
STARTCHAR 011F
ENCODING 287
SWIDTH 540 0
DWIDTH 18 0
BBX 16 29 1 0
BITMAP
700E
781E
3FFC
1FF8
0000
0000
FFFC
FFFE
FFFF
FFFF
FFFF
FC1F
FC00
FC00
FC00
FC00
FCFF
FCFF
FCFF
FCFF
FCFF
FC1F
FC1F
FC1F
FFFF
FFFF
FFFF
FFFF
FFF7
ENDCHAR
STARTCHAR 0120
ENCODING 288
SWIDTH 540 0
DWIDTH 18 0
BBX 16 29 1 0
BITMAP
01C0
03C0
03C0
03C0
0000
0000
FFFC
FFFE
FFFF
FFFF
FFFF
FC1F
FC00
FC00
FC00
FC00
FCFF
FCFF
FCFF
FCFF
FCFF
FC1F
FC1F
FC1F
FFFF
FFFF
FFFF
FFFF
FFF7
ENDCHAR
STARTCHAR 0121
ENCODING 289
SWIDTH 540 0
DWIDTH 18 0
BBX 16 29 1 0
BITMAP
01C0
03C0
03C0
03C0
0000
0000
FFFC
FFFE
FFFF
FFFF
FFFF
FC1F
FC00
FC00
FC00
FC00
FCFF
FCFF
FCFF
FCFF
FCFF
FC1F
FC1F
FC1F
FFFF
FFFF
FFFF
FFFF
FFF7
ENDCHAR
STARTCHAR 0122
ENCODING 290
SWIDTH 540 0
DWIDTH 18 0
BBX 16 28 1 -5
BITMAP
FFFC
FFFE
FFFF
FFFF
FFFF
FC1F
FC00
FC00
FC00
FC00
FCFF
FCFF
FCFF
FCFF
FCFF
FC1F
FC1F
FC1F
FFFF
FFFF
FFFF
FFFF
FFF7
0000
0180
0180
0180
0300
ENDCHAR
STARTCHAR 0123
ENCODING 291
SWIDTH 540 0
DWIDTH 18 0
BBX 16 28 1 -5
BITMAP
FFFC
FFFE
FFFF
FFFF
FFFF
FC1F
FC00
FC00
FC00
FC00
FCFF
FCFF
FCFF
FCFF
FCFF
FC1F
FC1F
FC1F
FFFF
FFFF
FFFF
FFFF
FFF7
0000
0180
0180
0180
0300
ENDCHAR
STARTCHAR 0124
ENCODING 292
SWIDTH 570 0
DWIDTH 19 0
BBX 17 29 1 0
BITMAP
0FF800
1FFC00
3FFE00
380F00
000000
000000
FC0F80
FC0F80
FC0F80
FC0F80
FC0F80
FC0F80
FC0F80
FC0F80
FFFF80
FFFF80
FFFF80
FFFF80
FFFF80
FFFF80
FC0F80
FC0F80
FC0F80
FC0F80
FC0F80
FC0F80
FC0F80
FC0F80
FC0F80
ENDCHAR
STARTCHAR 0125
ENCODING 293
SWIDTH 570 0
DWIDTH 19 0
BBX 17 29 1 0
BITMAP
0FF800
1FFC00
3FFE00
380F00
000000
000000
FC0F80
FC0F80
FC0F80
FC0F80
FC0F80
FC0F80
FC0F80
FC0F80
FFFF80
FFFF80
FFFF80
FFFF80
FFFF80
FFFF80
FC0F80
FC0F80
FC0F80
FC0F80
FC0F80
FC0F80
FC0F80
FC0F80
FC0F80
ENDCHAR
STARTCHAR 0126
ENCODING 294
SWIDTH 570 0
DWIDTH 19 0
BBX 22 23 -1 0
BITMAP
3F03E0
3F03E0
FFFFFC
FFFFFC
FFFFFC
3F03E0
3F03E0
3F03E0
3FFFE0
3FFFE0
3FFFE0
3FFFE0
3FFFE0
3FFFE0
3F03E0
3F03E0
3F03E0
3F03E0
3F03E0
3F03E0
3F03E0
3F03E0
3F03E0
ENDCHAR
STARTCHAR 0127
ENCODING 295
SWIDTH 570 0
DWIDTH 19 0
BBX 22 23 -1 0
BITMAP
3F03E0
3F03E0
FFFFFC
FFFFFC
FFFFFC
3F03E0
3F03E0
3F03E0
3FFFE0
3FFFE0
3FFFE0
3FFFE0
3FFFE0
3FFFE0
3F03E0
3F03E0
3F03E0
3F03E0
3F03E0
3F03E0
3F03E0
3F03E0
3F03E0
ENDCHAR
STARTCHAR 0128
ENCODING 296
SWIDTH 210 0
DWIDTH 7 0
BBX 14 29 -3 0
BITMAP
1E00
7F9C
F7FC
E0F8
0000
0000
0FC0
0FC0
0FC0
0FC0
0FC0
0FC0
0FC0
0FC0
0FC0
0FC0
0FC0
0FC0
0FC0
0FC0
0FC0
0FC0
0FC0
0FC0
0FC0
0FC0
0FC0
0FC0
0FC0
ENDCHAR
STARTCHAR 0129
ENCODING 297
SWIDTH 210 0
DWIDTH 7 0
BBX 14 29 -3 0
BITMAP
1E00
7FDC
F7FC
E0F8
0000
0000
0FC0
0FC0
0FC0
0FC0
0FC0
0FC0
0FC0
0FC0
0FC0
0FC0
0FC0
0FC0
0FC0
0FC0
0FC0
0FC0
0FC0
0FC0
0FC0
0FC0
0FC0
0FC0
0FC0
ENDCHAR
STARTCHAR 012A
ENCODING 298
SWIDTH 210 0
DWIDTH 7 0
BBX 14 28 -3 0
BITMAP
FFFC
FFFC
FFFC
0000
0000
0FC0
0FC0
0FC0
0FC0
0FC0
0FC0
0FC0
0FC0
0FC0
0FC0
0FC0
0FC0
0FC0
0FC0
0FC0
0FC0
0FC0
0FC0
0FC0
0FC0
0FC0
0FC0
0FC0
ENDCHAR
STARTCHAR 012B
ENCODING 299
SWIDTH 210 0
DWIDTH 7 0
BBX 14 28 -3 0
BITMAP
FFFC
FFFC
FFFC
0000
0000
0FC0
0FC0
0FC0
0FC0
0FC0
0FC0
0FC0
0FC0
0FC0
0FC0
0FC0
0FC0
0FC0
0FC0
0FC0
0FC0
0FC0
0FC0
0FC0
0FC0
0FC0
0FC0
0FC0
ENDCHAR
STARTCHAR 012E
ENCODING 302
SWIDTH 210 0
DWIDTH 7 0
BBX 6 28 1 -5
BITMAP
FC
FC
FC
FC
FC
FC
FC
FC
FC
FC
FC
FC
FC
FC
FC
FC
FC
FC
FC
FC
FC
FC
FC
70
60
CC
FC
F8
ENDCHAR
STARTCHAR 012F
ENCODING 303
SWIDTH 210 0
DWIDTH 7 0
BBX 6 28 1 -5
BITMAP
FC
FC
FC
FC
FC
FC
FC
FC
FC
FC
FC
FC
FC
FC
FC
FC
FC
FC
FC
FC
FC
FC
FC
70
60
CC
FC
F8
ENDCHAR
STARTCHAR 0134
ENCODING 308
SWIDTH 510 0
DWIDTH 17 0
BBX 15 29 1 0
BITMAP
07F0
0FF8
1FFC
1C1E
0000
0000
1FFE
1FFE
1FFE
1FFE
1FFE
007E
007E
007E
007E
007E
007E
007E
007E
007E
007E
007E
007E
FC7E
FFFE
FFFE
7FFE
3FFE
1FFE
ENDCHAR
STARTCHAR 0135
ENCODING 309
SWIDTH 510 0
DWIDTH 17 0
BBX 15 29 1 0
BITMAP
07F0
0FF8
1FFC
1C1E
0000
0000
1FFE
1FFE
1FFE
1FFE
1FFE
007E
007E
007E
007E
007E
007E
007E
007E
007E
007E
007E
007E
FC7E
FFFE
FFFE
7FFE
3FFE
1FFE
ENDCHAR
STARTCHAR 0136
ENCODING 310
SWIDTH 570 0
DWIDTH 19 0
BBX 17 28 1 -5
BITMAP
FC1F80
FC3F80
FC3F80
FC7F00
FCFE00
FCFC00
FDFC00
FFF800
FFF000
FFF000
FFE000
FFC000
FFE000
FFF000
FFF000
FDF800
FDFC00
FCFE00
FC7E00
FC7F00
FC3F80
FC1F80
FC0F80
000000
00C000
00C000
01C000
018000
ENDCHAR
STARTCHAR 0137
ENCODING 311
SWIDTH 570 0
DWIDTH 19 0
BBX 17 28 1 -5
BITMAP
FC1F80
FC3F80
FC3F80
FC7F00
FCFE00
FCFC00
FDFC00
FFF800
FFF000
FFF000
FFE000
FFC000
FFE000
FFF000
FFF000
FDF800
FDFC00
FCFE00
FC7E00
FC7F00
FC3F80
FC1F80
FC0F80
000000
00C000
00C000
01C000
018000
ENDCHAR
STARTCHAR 0139
ENCODING 313
SWIDTH 390 0
DWIDTH 13 0
BBX 16 28 -2 0
BITMAP
0FF0
FFF0
FE00
0000
0000
1F80
1F80
1F80
1F80
1F80
1F80
1F80
1F80
1F80
1F80
1F80
1F80
1F80
1F80
1F80
1F80
1F80
1F80
1FFF
1FFF
1FFE
1FFC
1FFC
ENDCHAR
STARTCHAR 013A
ENCODING 314
SWIDTH 390 0
DWIDTH 13 0
BBX 16 28 -2 0
BITMAP
0FF0
FFF0
FE00
0000
0000
1F80
1F80
1F80
1F80
1F80
1F80
1F80
1F80
1F80
1F80
1F80
1F80
1F80
1F80
1F80
1F80
1F80
1F80
1FFF
1FFF
1FFE
1FFC
1FFC
ENDCHAR
STARTCHAR 013C
ENCODING 316
SWIDTH 390 0
DWIDTH 13 0
BBX 13 28 1 -5
BITMAP
FC00
FC00
FC00
FC00
FC00
FC00
FC00
FC00
FC00
FC00
FC00
FC00
FC00
FC00
FC00
FC00
FC00
FC00
FFF8
FFF8
FFF0
FFE0
FFE0
0000
0300
0300
0600
0600
ENDCHAR
STARTCHAR 013D
ENCODING 317
SWIDTH 390 0
DWIDTH 13 0
BBX 14 29 0 0
BITMAP
8100
C300
FF00
7E00
0000
0000
7E00
7E00
7E00
7E00
7E00
7E00
7E00
7E00
7E00
7E00
7E00
7E00
7E00
7E00
7E00
7E00
7E00
7E00
7FFC
7FFC
7FF8
7FF0
7FF0
ENDCHAR
STARTCHAR 013E
ENCODING 318
SWIDTH 390 0
DWIDTH 13 0
BBX 14 29 0 0
BITMAP
8100
C300
FF00
7E00
0000
0000
7E00
7E00
7E00
7E00
7E00
7E00
7E00
7E00
7E00
7E00
7E00
7E00
7E00
7E00
7E00
7E00
7E00
7E00
7FFC
7FFC
7FF8
7FF0
7FF0
ENDCHAR
STARTCHAR 0141
ENCODING 321
SWIDTH 480 0
DWIDTH 16 0
BBX 16 23 1 0
BITMAP
1F80
1F80
1F80
1F80
1F80
1F98
1FF8
1FF8
1FF0
1FE0
3F80
FF80
FF80
FF80
DF80
1F80
1F80
1F80
1FFF
1FFF
1FFE
1FFC
1FFC
ENDCHAR
STARTCHAR 0142
ENCODING 322
SWIDTH 480 0
DWIDTH 16 0
BBX 16 23 1 0
BITMAP
1F80
1F80
1F80
1F80
1F80
1F98
1FF8
1FF8
1FF0
1FE0
3F80
FF80
FF80
FF80
DF80
1F80
1F80
1F80
1FFF
1FFF
1FFE
1FFC
1FFC
ENDCHAR
STARTCHAR 0143
ENCODING 323
SWIDTH 570 0
DWIDTH 19 0
BBX 17 28 1 0
BITMAP
03FE00
1FFC00
1F8000
000000
000000
3C0F80
3C0F80
7E0F80
FE0F80
FF0F80
FF0F80
FF8F80
FF8F80
FF8F80
FFCF80
FFCF80
FFFF80
FDFF80
FDFF80
FCFF80
FCFF80
FC7F80
FC7F80
FC3F80
FC3F80
FC3F00
FC1E00
FC1C00
ENDCHAR
STARTCHAR 0144
ENCODING 324
SWIDTH 570 0
DWIDTH 19 0
BBX 17 28 1 0
BITMAP
03FE00
1FFC00
1F8000
000000
000000
3C0F80
3C0F80
7E0F80
FE0F80
FF0F80
FF0F80
FF8F80
FF8F80
FF8F80
FFCF80
FFCF80
FFFF80
FDFF80
FDFF80
FCFF80
FCFF80
FC7F80
FC7F80
FC3F80
FC3F80
FC3F00
FC1E00
FC1C00
ENDCHAR
STARTCHAR 0145
ENCODING 325
SWIDTH 570 0
DWIDTH 19 0
BBX 17 28 1 -5
BITMAP
3C0F80
3C0F80
7E0F80
FE0F80
FF0F80
FF0F80
FF8F80
FF8F80
FF8F80
FFCF80
FFCF80
FFFF80
FDFF80
FDFF80
FCFF80
FCFF80
FC7F80
FC7F80
FC3F80
FC3F80
FC3F00
FC1E00
FC1C00
000000
00C000
00C000
00C000
018000
ENDCHAR
STARTCHAR 0146
ENCODING 326
SWIDTH 570 0
DWIDTH 19 0
BBX 17 28 1 -5
BITMAP
3C0F80
3C0F80
7E0F80
FE0F80
FF0F80
FF0F80
FF8F80
FF8F80
FF8F80
FFCF80
FFCF80
FFFF80
FDFF80
FDFF80
FCFF80
FCFF80
FC7F80
FC7F80
FC3F80
FC3F80
FC3F00
FC1E00
FC1C00
000000
00C000
00C000
00C000
018000
ENDCHAR
STARTCHAR 0147
ENCODING 327
SWIDTH 570 0
DWIDTH 19 0
BBX 17 29 1 0
BITMAP
0C1800
0E3800
07F800
03E000
000000
000000
3C0F80
3C0F80
7E0F80
FE0F80
FF0F80
FF0F80
FF8F80
FF8F80
FF8F80
FFCF80
FFCF80
FFFF80
FDFF80
FDFF80
FCFF80
FCFF80
FC7F80
FC7F80
FC3F80
FC3F80
FC3F00
FC1E00
FC1C00
ENDCHAR
STARTCHAR 0148
ENCODING 328
SWIDTH 570 0
DWIDTH 19 0
BBX 17 29 1 0
BITMAP
0C1800
0E3800
07F800
03E000
000000
000000
3C0F80
3C0F80
7E0F80
FE0F80
FF0F80
FF0F80
FF8F80
FF8F80
FF8F80
FFCF80
FFCF80
FFFF80
FDFF80
FDFF80
FCFF80
FCFF80
FC7F80
FC7F80
FC3F80
FC3F80
FC3F00
FC1E00
FC1C00
ENDCHAR
STARTCHAR 014C
ENCODING 332
SWIDTH 600 0
DWIDTH 20 0
BBX 18 28 1 0
BITMAP
1FFF00
1FFF00
1FFF00
000000
000000
3FFF00
3FFF80
7FFFC0
FFFFC0
FFFFC0
FC07C0
FC07C0
FC07C0
FC07C0
FC07C0
FC07C0
FC07C0
FC07C0
FC07C0
FC07C0
FC07C0
FC07C0
FC07C0
FFFFC0
FFFFC0
7FFF80
3FFF80
1FFF00
ENDCHAR
STARTCHAR 014D
ENCODING 333
SWIDTH 600 0
DWIDTH 20 0
BBX 18 28 1 0
BITMAP
1FFF00
1FFF00
1FFF00
000000
000000
3FFF00
3FFF80
7FFFC0
FFFFC0
FFFFC0
FC07C0
FC07C0
FC07C0
FC07C0
FC07C0
FC07C0
FC07C0
FC07C0
FC07C0
FC07C0
FC07C0
FC07C0
FC07C0
FFFFC0
FFFFC0
7FFF80
3FFF80
1FFF00
ENDCHAR
STARTCHAR 0150
ENCODING 336
SWIDTH 600 0
DWIDTH 20 0
BBX 18 30 1 0
BITMAP
00DC00
00DC00
00D800
019800
01B000
000000
000000
3FFF00
3FFF80
7FFFC0
FFFFC0
FFFFC0
FC07C0
FC07C0
FC07C0
FC07C0
FC07C0
FC07C0
FC07C0
FC07C0
FC07C0
FC07C0
FC07C0
FC07C0
FC07C0
FFFFC0
FFFFC0
7FFF80
3FFF80
1FFF00
ENDCHAR
STARTCHAR 0151
ENCODING 337
SWIDTH 600 0
DWIDTH 20 0
BBX 18 30 1 0
BITMAP
00DC00
00DC00
00D800
019800
01B000
000000
000000
3FFF00
3FFF80
7FFFC0
FFFFC0
FFFFC0
FC07C0
FC07C0
FC07C0
FC07C0
FC07C0
FC07C0
FC07C0
FC07C0
FC07C0
FC07C0
FC07C0
FC07C0
FC07C0
FFFFC0
FFFFC0
7FFF80
3FFF80
1FFF00
ENDCHAR
STARTCHAR 0152
ENCODING 338
SWIDTH 840 0
DWIDTH 28 0
BBX 26 23 1 0
BITMAP
3FFFFF00
3FFFFF80
7FFFFFC0
FFFFFFC0
FFFFFFC0
FC1F03C0
FC1F0000
FC1F0000
FC1F0000
FC1FFC00
FC1FFC00
FC1FFC00
FC1FFC00
FC1F0000
FC1F0000
FC1F0000
FC1F0000
FC1F03C0
FFFFFFC0
FFFFFFC0
7FFFFF80
3FFFFF80
1FFFFF00
ENDCHAR
STARTCHAR 0153
ENCODING 339
SWIDTH 840 0
DWIDTH 28 0
BBX 26 23 1 0
BITMAP
3FFFFF00
3FFFFF80
7FFFFFC0
FFFFFFC0
FFFFFFC0
FC1F03C0
FC1F0000
FC1F0000
FC1F0000
FC1FFC00
FC1FFC00
FC1FFC00
FC1FFC00
FC1F0000
FC1F0000
FC1F0000
FC1F0000
FC1F03C0
FFFFFFC0
FFFFFFC0
7FFFFF80
3FFFFF80
1FFFFF00
ENDCHAR
STARTCHAR 0154
ENCODING 340
SWIDTH 540 0
DWIDTH 18 0
BBX 16 28 1 0
BITMAP
03FC
3FF8
3F80
0000
0000
FFFC
FFFC
FFFE
FFFF
FFFF
FC3F
FC1F
FC1F
FC3F
FFFE
FFFE
FFFC
FFF8
FFF8
FCFC
FC7C
FC7E
FC7E
FC3F
FC3F
FC3F
FC1F
FC1F
ENDCHAR
STARTCHAR 0155
ENCODING 341
SWIDTH 540 0
DWIDTH 18 0
BBX 16 28 1 0
BITMAP
03FC
3FF8
3F80
0000
0000
FFFC
FFFC
FFFE
FFFF
FFFF
FC3F
FC1F
FC1F
FC3F
FFFE
FFFE
FFFC
FFF8
FFF8
FCFC
FC7C
FC7E
FC7E
FC3F
FC3F
FC3F
FC1F
FC1F
ENDCHAR
STARTCHAR 0156
ENCODING 342
SWIDTH 540 0
DWIDTH 18 0
BBX 16 28 1 -5
BITMAP
FFFC
FFFC
FFFE
FFFF
FFFF
FC3F
FC1F
FC1F
FC3F
FFFE
FFFE
FFFC
FFF8
FFF8
FCFC
FC7C
FC7E
FC7E
FC3F
FC3F
FC3F
FC1F
FC1F
0000
00C0
00C0
01C0
0180
ENDCHAR
STARTCHAR 0157
ENCODING 343
SWIDTH 540 0
DWIDTH 18 0
BBX 16 28 1 -5
BITMAP
FFFC
FFFC
FFFE
FFFF
FFFF
FC3F
FC1F
FC1F
FC3F
FFFE
FFFE
FFFC
FFF8
FFF8
FCFC
FC7C
FC7E
FC7E
FC3F
FC3F
FC3F
FC1F
FC1F
0000
00C0
00C0
01C0
0180
ENDCHAR
STARTCHAR 0158
ENCODING 344
SWIDTH 540 0
DWIDTH 18 0
BBX 16 29 1 0
BITMAP
1830
1C70
1FE0
07C0
0000
0000
FFFC
FFFC
FFFE
FFFF
FFFF
FC3F
FC1F
FC1F
FC3F
FFFE
FFFE
FFFC
FFF8
FFF8
FCFC
FC7C
FC7E
FC7E
FC3F
FC3F
FC3F
FC1F
FC1F
ENDCHAR
STARTCHAR 0159
ENCODING 345
SWIDTH 540 0
DWIDTH 18 0
BBX 16 29 1 0
BITMAP
1830
1C70
1FE0
0FC0
0000
0000
FFFC
FFFC
FFFE
FFFF
FFFF
FC3F
FC1F
FC1F
FC3F
FFFE
FFFE
FFFC
FFF8
FFF8
FCFC
FC7C
FC7E
FC7E
FC3F
FC3F
FC3F
FC1F
FC1F
ENDCHAR
STARTCHAR 015C
ENCODING 348
SWIDTH 540 0
DWIDTH 18 0
BBX 16 29 1 0
BITMAP
1FF0
3FF8
7FFC
F03C
0000
0000
7FFC
FFFC
FFFE
FFFF
FFFF
FC1F
FE00
7F00
3F80
1FC0
0FE0
07F0
03F8
01FC
00FE
007F
003F
F81F
FFFF
FFFF
7FFF
3FFF
1FFE
ENDCHAR
STARTCHAR 015D
ENCODING 349
SWIDTH 540 0
DWIDTH 18 0
BBX 16 29 1 0
BITMAP
1FF0
3FF8
7FFC
F03C
0000
0000
7FFC
FFFC
FFFE
FFFF
FFFF
FC1F
FE00
7F00
3F80
1FC0
0FE0
07F0
03F8
01FC
00FE
007F
003F
F81F
FFFF
FFFF
7FFF
3FFF
1FFE
ENDCHAR
STARTCHAR 015E
ENCODING 350
SWIDTH 540 0
DWIDTH 18 0
BBX 16 28 1 -5
BITMAP
7FFC
FFFC
FFFE
FFFF
FFFF
FC1F
FE00
7F00
3F80
1FC0
0FE0
07F0
03F8
01FC
00FE
007F
003F
F81F
FFFF
FFFF
7FFF
3FFF
1FFE
0060
01C0
01C0
03C0
0780
ENDCHAR
STARTCHAR 015F
ENCODING 351
SWIDTH 540 0
DWIDTH 18 0
BBX 16 28 1 -5
BITMAP
7FFC
FFFC
FFFE
FFFF
FFFF
FC1F
FE00
7F00
3F80
1FC0
0FE0
07F0
03F8
01FC
00FE
007F
003F
F81F
FFFF
FFFF
7FFF
3FFF
1FFE
0060
01C0
01C0
03C0
0780
ENDCHAR
STARTCHAR 0160
ENCODING 352
SWIDTH 540 0
DWIDTH 18 0
BBX 16 29 1 0
BITMAP
1810
1C30
0FF0
07E0
0000
0000
7FFC
FFFC
FFFE
FFFF
FFFF
FC1F
FE00
7F00
3F80
1FC0
0FE0
07F0
03F8
01FC
00FE
007F
003F
F81F
FFFF
FFFF
7FFF
3FFF
1FFE
ENDCHAR
STARTCHAR 0161
ENCODING 353
SWIDTH 540 0
DWIDTH 18 0
BBX 16 29 1 0
BITMAP
1830
1C70
0FF0
07E0
0000
0000
7FFC
FFFC
FFFE
FFFF
FFFF
FC1F
FE00
7F00
3F80
1FC0
0FE0
07F0
03F8
01FC
00FE
007F
003F
F81F
FFFF
FFFF
7FFF
3FFF
1FFE
ENDCHAR
STARTCHAR 0162
ENCODING 354
SWIDTH 510 0
DWIDTH 17 0
BBX 18 28 0 -5
BITMAP
3FFF00
7FFF00
7FFF80
FFFFC0
FBEFC0
F3E3C0
03E000
03E000
03E000
03E000
03E000
03E000
03E000
03E000
03E000
03E000
03E000
03E000
03E000
03E000
03E000
03E000
03E000
006000
00E000
00E000
01E000
03C000
ENDCHAR
STARTCHAR 0163
ENCODING 355
SWIDTH 510 0
DWIDTH 17 0
BBX 18 28 0 -5
BITMAP
3FFF00
7FFF00
7FFF80
FFFFC0
FBEFC0
F3E3C0
03E000
03E000
03E000
03E000
03E000
03E000
03E000
03E000
03E000
03E000
03E000
03E000
03E000
03E000
03E000
03E000
03E000
006000
00E000
00E000
01E000
03C000
ENDCHAR
STARTCHAR 0164
ENCODING 356
SWIDTH 510 0
DWIDTH 17 0
BBX 18 29 0 0
BITMAP
0C0800
0E1800
07F800
03F000
000000
000000
3FFF00
7FFF00
7FFF80
FFFFC0
FBEFC0
F3E3C0
03E000
03E000
03E000
03E000
03E000
03E000
03E000
03E000
03E000
03E000
03E000
03E000
03E000
03E000
03E000
03E000
03E000
ENDCHAR
STARTCHAR 0165
ENCODING 357
SWIDTH 510 0
DWIDTH 17 0
BBX 18 29 0 0
BITMAP
0C0800
0E1800
07F800
03F000
000000
000000
3FFF00
7FFF00
7FFF80
FFFFC0
FBEFC0
F3E3C0
03E000
03E000
03E000
03E000
03E000
03E000
03E000
03E000
03E000
03E000
03E000
03E000
03E000
03E000
03E000
03E000
03E000
ENDCHAR
STARTCHAR 0166
ENCODING 358
SWIDTH 510 0
DWIDTH 17 0
BBX 18 23 0 0
BITMAP
3FFF00
7FFF00
7FFF80
FFFFC0
FBEFC0
F3E3C0
03E000
03E000
03E000
03E000
3FFE00
3FFE00
3FFE00
03E000
03E000
03E000
03E000
03E000
03E000
03E000
03E000
03E000
03E000
ENDCHAR
STARTCHAR 0167
ENCODING 359
SWIDTH 510 0
DWIDTH 17 0
BBX 18 23 0 0
BITMAP
3FFF00
7FFF00
7FFF80
FFFFC0
FBEFC0
F3E3C0
03E000
03E000
03E000
03E000
3FFE00
3FFE00
3FFE00
03E000
03E000
03E000
03E000
03E000
03E000
03E000
03E000
03E000
03E000
ENDCHAR
STARTCHAR 0168
ENCODING 360
SWIDTH 600 0
DWIDTH 20 0
BBX 18 29 1 0
BITMAP
078000
0FF300
3EFF00
383E00
000000
000000
FC07C0
FC07C0
FC07C0
FC07C0
FC07C0
FC07C0
FC07C0
FC07C0
FC07C0
FC07C0
FC07C0
FC07C0
FC07C0
FC07C0
FC07C0
FC07C0
FC07C0
FC0FC0
FFFFC0
FFFFC0
7FFF80
3FFF80
1FFF00
ENDCHAR
STARTCHAR 0169
ENCODING 361
SWIDTH 600 0
DWIDTH 20 0
BBX 18 29 1 0
BITMAP
078000
0FF300
3EFF00
383E00
000000
000000
FC07C0
FC07C0
FC07C0
FC07C0
FC07C0
FC07C0
FC07C0
FC07C0
FC07C0
FC07C0
FC07C0
FC07C0
FC07C0
FC07C0
FC07C0
FC07C0
FC07C0
FC0FC0
FFFFC0
FFFFC0
7FFF80
3FFF80
1FFF00
ENDCHAR
STARTCHAR 016A
ENCODING 362
SWIDTH 600 0
DWIDTH 20 0
BBX 18 28 1 0
BITMAP
1FFF00
1FFF00
1FFF00
000000
000000
FC07C0
FC07C0
FC07C0
FC07C0
FC07C0
FC07C0
FC07C0
FC07C0
FC07C0
FC07C0
FC07C0
FC07C0
FC07C0
FC07C0
FC07C0
FC07C0
FC07C0
FC0FC0
FFFFC0
FFFFC0
7FFF80
3FFF80
1FFF00
ENDCHAR
STARTCHAR 016B
ENCODING 363
SWIDTH 600 0
DWIDTH 20 0
BBX 18 28 1 0
BITMAP
1FFF00
1FFF00
1FFF00
000000
000000
FC07C0
FC07C0
FC07C0
FC07C0
FC07C0
FC07C0
FC07C0
FC07C0
FC07C0
FC07C0
FC07C0
FC07C0
FC07C0
FC07C0
FC07C0
FC07C0
FC07C0
FC0FC0
FFFFC0
FFFFC0
7FFF80
3FFF80
1FFF00
ENDCHAR
STARTCHAR 016E
ENCODING 366
SWIDTH 600 0
DWIDTH 20 0
BBX 18 29 1 0
BITMAP
01F000
013000
013000
01E000
000000
000000
FC07C0
FC07C0
FC07C0
FC07C0
FC07C0
FC07C0
FC07C0
FC07C0
FC07C0
FC07C0
FC07C0
FC07C0
FC07C0
FC07C0
FC07C0
FC07C0
FC07C0
FC0FC0
FFFFC0
FFFFC0
7FFF80
3FFF80
1FFF00
ENDCHAR
STARTCHAR 016F
ENCODING 367
SWIDTH 600 0
DWIDTH 20 0
BBX 18 29 1 0
BITMAP
01F000
013000
013000
01E000
000000
000000
FC07C0
FC07C0
FC07C0
FC07C0
FC07C0
FC07C0
FC07C0
FC07C0
FC07C0
FC07C0
FC07C0
FC07C0
FC07C0
FC07C0
FC07C0
FC07C0
FC07C0
FC0FC0
FFFFC0
FFFFC0
7FFF80
3FFF80
1FFF00
ENDCHAR
STARTCHAR 0170
ENCODING 368
SWIDTH 600 0
DWIDTH 20 0
BBX 18 30 1 0
BITMAP
00DC00
00DC00
00D800
01B800
01B000
000000
000000
FC07C0
FC07C0
FC07C0
FC07C0
FC07C0
FC07C0
FC07C0
FC07C0
FC07C0
FC07C0
FC07C0
FC07C0
FC07C0
FC07C0
FC07C0
FC07C0
FC07C0
FC0FC0
FFFFC0
FFFFC0
7FFF80
3FFF80
1FFF00
ENDCHAR
STARTCHAR 0171
ENCODING 369
SWIDTH 600 0
DWIDTH 20 0
BBX 18 30 1 0
BITMAP
00DC00
00DC00
00D800
01B800
01B000
000000
000000
FC07C0
FC07C0
FC07C0
FC07C0
FC07C0
FC07C0
FC07C0
FC07C0
FC07C0
FC07C0
FC07C0
FC07C0
FC07C0
FC07C0
FC07C0
FC07C0
FC07C0
FC0FC0
FFFFC0
FFFFC0
7FFF80
3FFF80
1FFF00
ENDCHAR
STARTCHAR 0172
ENCODING 370
SWIDTH 600 0
DWIDTH 20 0
BBX 18 28 1 -5
BITMAP
FC07C0
FC07C0
FC07C0
FC07C0
FC07C0
FC07C0
FC07C0
FC07C0
FC07C0
FC07C0
FC07C0
FC07C0
FC07C0
FC07C0
FC07C0
FC07C0
FC07C0
FC0FC0
FFFFC0
FFFFC0
7FFF80
3FFF80
1FFF00
00C000
018000
03B000
03F000
03F000
ENDCHAR
STARTCHAR 0173
ENCODING 371
SWIDTH 600 0
DWIDTH 20 0
BBX 18 28 1 -5
BITMAP
FC07C0
FC07C0
FC07C0
FC07C0
FC07C0
FC07C0
FC07C0
FC07C0
FC07C0
FC07C0
FC07C0
FC07C0
FC07C0
FC07C0
FC07C0
FC07C0
FC07C0
FC0FC0
FFFFC0
FFFFC0
7FFF80
3FFF80
1FFF00
00C000
018000
03B000
03F000
03F000
ENDCHAR
STARTCHAR 0174
ENCODING 372
SWIDTH 870 0
DWIDTH 29 0
BBX 27 29 1 0
BITMAP
007FC000
00FFE000
01FFF000
01C07000
00000000
00000000
FC0003E0
FC0003E0
FC0007E0
7C0007E0
7C0007E0
7E0007C0
7E0F07C0
7E1F87C0
3E1F8FC0
3E3F8FC0
3F3F8F80
3F3FCF80
3F3BCF80
1F7BDF80
1F79DF80
1FF9FF00
1FF9FF00
0FF1FF00
0FF1FF00
0FF0FF00
0FF0FE00
0FF0FE00
07E0FE00
ENDCHAR
STARTCHAR 0175
ENCODING 373
SWIDTH 870 0
DWIDTH 29 0
BBX 27 29 1 0
BITMAP
007FC000
00FFE000
01FFF000
01C07000
00000000
00000000
FC0003E0
FC0003E0
FC0007E0
7C0007E0
7C0007E0
7E0007C0
7E0F07C0
7E1F87C0
3E1F8FC0
3E3F8FC0
3F3F8F80
3F3FCF80
3F3BCF80
1F7BDF80
1F79DF80
1FF9FF00
1FF9FF00
0FF1FF00
0FF1FF00
0FF0FF00
0FF0FE00
0FF0FE00
07E0FE00
ENDCHAR
STARTCHAR 0176
ENCODING 374
SWIDTH 450 0
DWIDTH 15 0
BBX 16 29 0 0
BITMAP
1FF0
3FF8
7FFC
781E
0000
0000
F81F
F83F
FC3E
7C3E
7E7E
3E7C
3E7C
3FF8
1FF8
1FF0
0FF0
0FE0
07E0
07E0
07C0
07C0
07C0
07C0
07C0
07C0
07C0
07C0
07C0
ENDCHAR
STARTCHAR 0177
ENCODING 375
SWIDTH 450 0
DWIDTH 15 0
BBX 16 29 0 0
BITMAP
1FF0
3FF8
7FFC
781E
0000
0000
F81F
F83F
FC3E
7C3E
7E7E
3E7C
3E7C
3FF8
1FF8
1FF0
0FF0
0FE0
07E0
07E0
07C0
07C0
07C0
07C0
07C0
07C0
07C0
07C0
07C0
ENDCHAR
STARTCHAR 0178
ENCODING 376
SWIDTH 450 0
DWIDTH 15 0
BBX 16 28 0 0
BITMAP
0E70
0E70
0E70
0000
0000
F81F
F83F
FC3E
7C3E
7E7E
3E7C
3E7C
3FF8
1FF8
1FF0
0FF0
0FE0
07E0
07E0
07C0
07C0
07C0
07C0
07C0
07C0
07C0
07C0
07C0
ENDCHAR
STARTCHAR 017B
ENCODING 379
SWIDTH 540 0
DWIDTH 18 0
BBX 17 29 1 0
BITMAP
01C000
03C000
03C000
03C000
000000
000000
FFFE00
FFFE00
FFFF00
FFFF80
7FFF00
007E00
00FE00
00FC00
01F800
03F800
03F000
07F000
0FE000
0FC000
1FC000
1F8000
3F8000
7F0000
7FFF00
FFFF80
7FFF80
3FFF80
1FFF80
ENDCHAR
STARTCHAR 017C
ENCODING 380
SWIDTH 540 0
DWIDTH 18 0
BBX 17 30 1 0
BITMAP
01C000
03C000
03C000
01C000
000000
000000
000000
FFFE00
FFFE00
FFFF00
FFFF80
7FFF00
007E00
00FE00
00FC00
01F800
03F800
03F000
07F000
0FE000
0FC000
1FC000
1F8000
3F8000
7F0000
7FFF00
FFFF80
7FFF80
3FFF80
1FFF80
ENDCHAR
STARTCHAR 017D
ENCODING 381
SWIDTH 540 0
DWIDTH 18 0
BBX 17 29 1 0
BITMAP
0C1800
0E3800
0FF000
07E000
000000
000000
FFFE00
FFFE00
FFFF00
FFFF80
7FFF00
007E00
00FE00
00FC00
01F800
03F800
03F000
07F000
0FE000
0FC000
1FC000
1F8000
3F8000
7F0000
7FFF00
FFFF80
7FFF80
3FFF80
1FFF80
ENDCHAR
STARTCHAR 017E
ENCODING 382
SWIDTH 540 0
DWIDTH 18 0
BBX 17 29 1 0
BITMAP
0C1800
0E3800
0FF800
03E000
000000
000000
FFFE00
FFFE00
FFFF00
FFFF80
7FFF00
007E00
00FE00
00FC00
01F800
03F800
03F000
07F000
0FE000
0FC000
1FC000
1F8000
3F8000
7F0000
7FFF00
FFFF80
7FFF80
3FFF80
1FFF80
ENDCHAR
STARTCHAR 01A0
ENCODING 416
SWIDTH 600 0
DWIDTH 20 0
BBX 20 26 1 0
BITMAP
000060
000070
0000F0
3FFFF0
3FFFC0
7FFFC0
FFFFC0
FFFFC0
FC07C0
FC07C0
FC07C0
FC07C0
FC07C0
FC07C0
FC07C0
FC07C0
FC07C0
FC07C0
FC07C0
FC07C0
FC07C0
FFFFC0
FFFFC0
7FFF80
3FFF80
1FFF00
ENDCHAR
STARTCHAR 01A1
ENCODING 417
SWIDTH 600 0
DWIDTH 20 0
BBX 20 26 1 0
BITMAP
000060
000070
0000F0
3FFFF0
3FFFC0
7FFFC0
FFFFC0
FFFFC0
FC07C0
FC07C0
FC07C0
FC07C0
FC07C0
FC07C0
FC07C0
FC07C0
FC07C0
FC07C0
FC07C0
FC07C0
FC07C0
FFFFC0
FFFFC0
7FFF80
3FFF80
1FFF00
ENDCHAR
STARTCHAR 01AF
ENCODING 431
SWIDTH 600 0
DWIDTH 20 0
BBX 20 26 1 0
BITMAP
000060
000060
0000F0
FC07E0
FC07C0
FC0780
FC07C0
FC07C0
FC07C0
FC07C0
FC07C0
FC07C0
FC07C0
FC07C0
FC07C0
FC07C0
FC07C0
FC07C0
FC07C0
FC07C0
FC0FC0
FFFFC0
FFFFC0
7FFF80
3FFF80
1FFF00
ENDCHAR
STARTCHAR 01B0
ENCODING 432
SWIDTH 600 0
DWIDTH 20 0
BBX 20 26 1 0
BITMAP
000060
000060
0000F0
FC07E0
FC07C0
FC0780
FC07C0
FC07C0
FC07C0
FC07C0
FC07C0
FC07C0
FC07C0
FC07C0
FC07C0
FC07C0
FC07C0
FC07C0
FC07C0
FC07C0
FC0FC0
FFFFC0
FFFFC0
7FFF80
3FFF80
1FFF00
ENDCHAR
STARTCHAR 0218
ENCODING 536
SWIDTH 540 0
DWIDTH 18 0
BBX 16 28 1 -5
BITMAP
7FFC
FFFC
FFFE
FFFF
FFFF
FC1F
FE00
7F00
3F80
1FC0
0FE0
07F0
03F8
01FC
00FE
007F
003F
F81F
FFFF
FFFF
7FFF
3FFF
1FFE
0000
00C0
00C0
01C0
0180
ENDCHAR
STARTCHAR 0219
ENCODING 537
SWIDTH 540 0
DWIDTH 18 0
BBX 16 28 1 -5
BITMAP
7FFC
FFFC
FFFE
FFFF
FFFF
FC1F
FE00
7F00
3F80
1FC0
0FE0
07F0
03F8
01FC
00FE
007F
003F
F81F
FFFF
FFFF
7FFF
3FFF
1FFE
0000
00C0
00C0
01C0
0180
ENDCHAR
STARTCHAR 021A
ENCODING 538
SWIDTH 510 0
DWIDTH 17 0
BBX 18 28 0 -5
BITMAP
3FFF00
7FFF00
7FFF80
FFFFC0
FBEFC0
F3E3C0
03E000
03E000
03E000
03E000
03E000
03E000
03E000
03E000
03E000
03E000
03E000
03E000
03E000
03E000
03E000
03E000
03E000
000000
00C000
00C000
00C000
018000
ENDCHAR
STARTCHAR 021B
ENCODING 539
SWIDTH 510 0
DWIDTH 17 0
BBX 18 28 0 -5
BITMAP
3FFF00
7FFF00
7FFF80
FFFFC0
FBEFC0
F3E3C0
03E000
03E000
03E000
03E000
03E000
03E000
03E000
03E000
03E000
03E000
03E000
03E000
03E000
03E000
03E000
03E000
03E000
000000
00C000
00C000
00C000
018000
ENDCHAR
STARTCHAR 0259
ENCODING 601
SWIDTH 540 0
DWIDTH 18 0
BBX 16 23 1 0
BITMAP
3FFF
3FFF
7FFF
FFFF
FFFF
F81F
001F
001F
001F
001F
FF1F
FF1F
FF1F
FF1F
FF1F
FC1F
FC1F
FC1F
FFFF
FFFF
FFFF
FFFF
EFFF
ENDCHAR
STARTCHAR 02C6
ENCODING 710
SWIDTH 420 0
DWIDTH 14 0
BBX 13 4 1 25
BITMAP
3FE0
7FF0
FFF8
E038
ENDCHAR
STARTCHAR 02C7
ENCODING 711
SWIDTH 300 0
DWIDTH 10 0
BBX 9 4 1 25
BITMAP
8180
C380
FF00
7E00
ENDCHAR
STARTCHAR 02D8
ENCODING 728
SWIDTH 420 0
DWIDTH 14 0
BBX 13 4 1 25
BITMAP
C018
F078
FFF8
7FF0
ENDCHAR
STARTCHAR 02D9
ENCODING 729
SWIDTH 150 0
DWIDTH 5 0
BBX 4 4 1 26
BITMAP
E0
F0
F0
F0
ENDCHAR
STARTCHAR 02DA
ENCODING 730
SWIDTH 180 0
DWIDTH 6 0
BBX 5 4 1 25
BITMAP
F0
98
98
F0
ENDCHAR
STARTCHAR 02DB
ENCODING 731
SWIDTH 210 0
DWIDTH 7 0
BBX 6 5 1 -5
BITMAP
60
E0
CC
FC
F8
ENDCHAR
STARTCHAR 02DC
ENCODING 732
SWIDTH 420 0
DWIDTH 14 0
BBX 13 4 1 25
BITMAP
1C00
7F98
F7F8
C0F0
ENDCHAR
STARTCHAR 02DD
ENCODING 733
SWIDTH 240 0
DWIDTH 8 0
BBX 7 5 1 25
BITMAP
66
66
6E
EC
DC
ENDCHAR
STARTCHAR 1E20
ENCODING 7712
SWIDTH 540 0
DWIDTH 18 0
BBX 16 28 1 0
BITMAP
FFFC
FFFC
FFFC
0000
0000
FFFC
FFFE
FFFF
FFFF
FFFF
FC1F
FC00
FC00
FC00
FC00
FCFF
FCFF
FCFF
FCFF
FCFF
FC1F
FC1F
FC1F
FFFF
FFFF
FFFF
FFFF
FFF7
ENDCHAR
STARTCHAR 1E3E
ENCODING 7742
SWIDTH 690 0
DWIDTH 23 0
BBX 21 28 1 0
BITMAP
00FF80
07FF00
07E000
000000
000000
3F8FE0
3F8FE0
7F8FF0
FF8FF8
FF8FF8
FF8FF8
FFCFF8
FFDEF8
FDDEF8
FDDCF8
FDDCF8
FDDCF8
FDFCF8
FDFCF8
FDFCF8
FCFCF8
FCF8F8
FC78F8
FC00F8
FC00F8
FC00F8
FC00F8
FC00F8
ENDCHAR
STARTCHAR 1E3F
ENCODING 7743
SWIDTH 690 0
DWIDTH 23 0
BBX 21 28 1 0
BITMAP
00FF80
07FF00
07E000
000000
000000
3F8FE0
3F8FE0
7F8FF0
FF8FF8
FF8FF8
FF8FF8
FFCFF8
FFDEF8
FDDEF8
FDDCF8
FDDCF8
FDDCF8
FDFCF8
FDFCF8
FDFCF8
FCFCF8
FCF8F8
FC78F8
FC00F8
FC00F8
FC00F8
FC00F8
FC00F8
ENDCHAR
STARTCHAR 1E44
ENCODING 7748
SWIDTH 570 0
DWIDTH 19 0
BBX 17 29 1 0
BITMAP
01C000
01E000
01E000
01E000
000000
000000
3C0F80
3C0F80
7E0F80
FE0F80
FF0F80
FF0F80
FF8F80
FF8F80
FF8F80
FFCF80
FFCF80
FFFF80
FDFF80
FDFF80
FCFF80
FCFF80
FC7F80
FC7F80
FC3F80
FC3F80
FC3F00
FC1E00
FC1C00
ENDCHAR
STARTCHAR 1E45
ENCODING 7749
SWIDTH 570 0
DWIDTH 19 0
BBX 17 29 1 0
BITMAP
01C000
01E000
01E000
01E000
000000
000000
3C0F80
3C0F80
7E0F80
FE0F80
FF0F80
FF0F80
FF8F80
FF8F80
FF8F80
FFCF80
FFCF80
FFFF80
FDFF80
FDFF80
FCFF80
FCFF80
FC7F80
FC7F80
FC3F80
FC3F80
FC3F00
FC1E00
FC1C00
ENDCHAR
STARTCHAR 1E80
ENCODING 7808
SWIDTH 870 0
DWIDTH 29 0
BBX 27 28 1 0
BITMAP
00F80000
00FFC000
007FF000
00000000
00000000
FC0003E0
FC0003E0
FC0007E0
7C0007E0
7C0007E0
7E0007C0
7E0F07C0
7E1F87C0
3E1F8FC0
3E3F8FC0
3F3F8F80
3F3FCF80
3F3BCF80
1F7BDF80
1F79DF80
1FF9FF00
1FF9FF00
0FF1FF00
0FF1FF00
0FF0FF00
0FF0FE00
0FF0FE00
07E0FE00
ENDCHAR
STARTCHAR 1E81
ENCODING 7809
SWIDTH 870 0
DWIDTH 29 0
BBX 27 28 1 0
BITMAP
00F80000
00FFC000
007FF000
00000000
00000000
FC0003E0
FC0003E0
FC0007E0
7C0007E0
7C0007E0
7E0007C0
7E0F07C0
7E1F87C0
3E1F8FC0
3E3F8FC0
3F3F8F80
3F3FCF80
3F3BCF80
1F7BDF80
1F79DF80
1FF9FF00
1FF9FF00
0FF1FF00
0FF1FF00
0FF0FF00
0FF0FE00
0FF0FE00
07E0FE00
ENDCHAR
STARTCHAR 1E82
ENCODING 7810
SWIDTH 870 0
DWIDTH 29 0
BBX 27 28 1 0
BITMAP
001FF000
00FFE000
00FC0000
00000000
00000000
FC0003E0
FC0003E0
FC0007E0
7C0007E0
7C0007E0
7E0007C0
7E0F07C0
7E1F87C0
3E1F8FC0
3E3F8FC0
3F3F8F80
3F3FCF80
3F3BCF80
1F7BDF80
1F79DF80
1FF9FF00
1FF9FF00
0FF1FF00
0FF1FF00
0FF0FF00
0FF0FE00
0FF0FE00
07E0FE00
ENDCHAR
STARTCHAR 1E83
ENCODING 7811
SWIDTH 870 0
DWIDTH 29 0
BBX 27 28 1 0
BITMAP
001FF000
00FFE000
00FC0000
00000000
00000000
FC0003E0
FC0003E0
FC0007E0
7C0007E0
7C0007E0
7E0007C0
7E0F07C0
7E1F87C0
3E1F8FC0
3E3F8FC0
3F3F8F80
3F3FCF80
3F3BCF80
1F7BDF80
1F79DF80
1FF9FF00
1FF9FF00
0FF1FF00
0FF1FF00
0FF0FF00
0FF0FE00
0FF0FE00
07E0FE00
ENDCHAR
STARTCHAR 1E84
ENCODING 7812
SWIDTH 870 0
DWIDTH 29 0
BBX 27 28 1 0
BITMAP
0071C000
0071C000
0071C000
00000000
00000000
FC0003E0
FC0003E0
FC0007E0
7C0007E0
7C0007E0
7E0007C0
7E0F07C0
7E1F87C0
3E1F8FC0
3E3F8FC0
3F3F8F80
3F3FCF80
3F3BCF80
1F7BDF80
1F79DF80
1FF9FF00
1FF9FF00
0FF1FF00
0FF1FF00
0FF0FF00
0FF0FE00
0FF0FE00
07E0FE00
ENDCHAR
STARTCHAR 1E85
ENCODING 7813
SWIDTH 870 0
DWIDTH 29 0
BBX 27 28 1 0
BITMAP
0071C000
0071C000
0071C000
00000000
00000000
FC0003E0
FC0003E0
FC0007E0
7C0007E0
7C0007E0
7E0007C0
7E0F07C0
7E1F87C0
3E1F8FC0
3E3F8FC0
3F3F8F80
3F3FCF80
3F3BCF80
1F7BDF80
1F79DF80
1FF9FF00
1FF9FF00
0FF1FF00
0FF1FF00
0FF0FF00
0FF0FE00
0FF0FE00
07E0FE00
ENDCHAR
STARTCHAR 1EA0
ENCODING 7840
SWIDTH 570 0
DWIDTH 19 0
BBX 19 26 0 -3
BITMAP
07FE00
07FE00
0FFE00
0FFE00
0FFF00
0F1F00
0F1F00
1F0F00
1F0F00
1F0F80
1E0F80
1E0F80
3E0F80
3E0780
3F0FC0
3FFFC0
3FFFC0
7DFFC0
7C07C0
7C07E0
7C03E0
7C03E0
FC03E0
000000
01F000
01F000
ENDCHAR
STARTCHAR 1EA1
ENCODING 7841
SWIDTH 570 0
DWIDTH 19 0
BBX 19 26 0 -3
BITMAP
07FE00
07FE00
0FFE00
0FFE00
0FFF00
0F1F00
0F1F00
1F0F00
1F0F00
1F0F80
1E0F80
1E0F80
3E0F80
3E0780
3F0FC0
3FFFC0
3FFFC0
7DFFC0
7C07C0
7C07E0
7C03E0
7C03E0
FC03E0
000000
01F000
01F000
ENDCHAR
STARTCHAR 1EA2
ENCODING 7842
SWIDTH 570 0
DWIDTH 19 0
BBX 19 30 0 0
BITMAP
01F000
01F800
01B000
007000
006000
000000
000000
07FE00
07FE00
0FFE00
0FFE00
0FFF00
0F1F00
0F1F00
1F0F00
1F0F00
1F0F80
1E0F80
1E0F80
3E0F80
3E0780
3F0FC0
3FFFC0
3FFFC0
7DFFC0
7C07C0
7C07E0
7C03E0
7C03E0
FC03E0
ENDCHAR
STARTCHAR 1EA3
ENCODING 7843
SWIDTH 570 0
DWIDTH 19 0
BBX 19 30 0 0
BITMAP
01F000
01F800
01B000
007000
006000
000000
000000
07FE00
07FE00
0FFE00
0FFE00
0FFF00
0F1F00
0F1F00
1F0F00
1F0F00
1F0F80
1E0F80
1E0F80
3E0F80
3E0780
3F0FC0
3FFFC0
3FFFC0
7DFFC0
7C07C0
7C07E0
7C03E0
7C03E0
FC03E0
ENDCHAR
STARTCHAR 1EA4
ENCODING 7844
SWIDTH 570 0
DWIDTH 19 0
BBX 19 34 0 0
BITMAP
000100
07FF00
0FF800
0F0000
000000
07FC00
0FFE00
1FFF00
1C0700
000000
000000
07FE00
07FE00
0FFE00
0FFE00
0FFF00
0F1F00
0F1F00
1F0F00
1F0F00
1F0F80
1E0F80
1E0F80
3E0F80
3E0780
3F0FC0
3FFFC0
3FFFC0
7DFFC0
7C07C0
7C07E0
7C03E0
7C03E0
FC03E0
ENDCHAR
STARTCHAR 1EA5
ENCODING 7845
SWIDTH 570 0
DWIDTH 19 0
BBX 19 34 0 0
BITMAP
000100
07FF00
0FF800
0F0000
000000
07FC00
0FFE00
1FFF00
1C0700
000000
000000
07FE00
07FE00
0FFE00
0FFE00
0FFF00
0F1F00
0F1F00
1F0F00
1F0F00
1F0F80
1E0F80
1E0F80
3E0F80
3E0780
3F0FC0
3FFFC0
3FFFC0
7DFFC0
7C07C0
7C07E0
7C03E0
7C03E0
FC03E0
ENDCHAR
STARTCHAR 1EA6
ENCODING 7846
SWIDTH 570 0
DWIDTH 19 0
BBX 19 34 0 0
BITMAP
0C0000
0FE000
0FFF00
007F00
000000
07FC00
0FFE00
1FFF00
1C0700
000000
000000
07FE00
07FE00
0FFE00
0FFE00
0FFF00
0F1F00
0F1F00
1F0F00
1F0F00
1F0F80
1E0F80
1E0F80
3E0F80
3E0780
3F0FC0
3FFFC0
3FFFC0
7DFFC0
7C07C0
7C07E0
7C03E0
7C03E0
FC03E0
ENDCHAR
STARTCHAR 1EA7
ENCODING 7847
SWIDTH 570 0
DWIDTH 19 0
BBX 19 34 0 0
BITMAP
0C0000
0FE000
0FFF00
007F00
000000
07FC00
0FFE00
1FFF00
1C0700
000000
000000
07FE00
07FE00
0FFE00
0FFE00
0FFF00
0F1F00
0F1F00
1F0F00
1F0F00
1F0F80
1E0F80
1E0F80
3E0F80
3E0780
3F0FC0
3FFFC0
3FFFC0
7DFFC0
7C07C0
7C07E0
7C03E0
7C03E0
FC03E0
ENDCHAR
STARTCHAR 1EA8
ENCODING 7848
SWIDTH 570 0
DWIDTH 19 0
BBX 19 35 0 0
BITMAP
01F800
01F800
003000
006000
006000
000000
07FC00
0FFE00
1FFF00
1C0700
000000
000000
07FE00
07FE00
0FFE00
0FFE00
0FFF00
0F1F00
0F1F00
1F0F00
1F0F00
1F0F80
1E0F80
1E0F80
3E0F80
3E0780
3F0FC0
3FFFC0
3FFFC0
7DFFC0
7C07C0
7C07E0
7C03E0
7C03E0
FC03E0
ENDCHAR
STARTCHAR 1EA9
ENCODING 7849
SWIDTH 570 0
DWIDTH 19 0
BBX 19 35 0 0
BITMAP
01F800
01F800
003000
006000
006000
000000
07FC00
0FFE00
1FFF00
1C0700
000000
000000
07FE00
07FE00
0FFE00
0FFE00
0FFF00
0F1F00
0F1F00
1F0F00
1F0F00
1F0F80
1E0F80
1E0F80
3E0F80
3E0780
3F0FC0
3FFFC0
3FFFC0
7DFFC0
7C07C0
7C07E0
7C03E0
7C03E0
FC03E0
ENDCHAR
STARTCHAR 1EAA
ENCODING 7850
SWIDTH 570 0
DWIDTH 19 0
BBX 19 35 0 0
BITMAP
010000
07E180
1FFF80
1C7F80
180E00
000000
07FC00
0FFE00
1FFF00
1C0700
000000
000000
07FE00
07FE00
0FFE00
0FFE00
0FFF00
0F1F00
0F1F00
1F0F00
1F0F00
1F0F80
1E0F80
1E0F80
3E0F80
3E0780
3F0FC0
3FFFC0
3FFFC0
7DFFC0
7C07C0
7C07E0
7C03E0
7C03E0
FC03E0
ENDCHAR
STARTCHAR 1EAB
ENCODING 7851
SWIDTH 570 0
DWIDTH 19 0
BBX 19 35 0 0
BITMAP
010000
07E180
1FFF80
1C7F80
180E00
000000
07FC00
0FFE00
1FFF00
1C0700
000000
000000
07FE00
07FE00
0FFE00
0FFE00
0FFF00
0F1F00
0F1F00
1F0F00
1F0F00
1F0F80
1E0F80
1E0F80
3E0F80
3E0780
3F0FC0
3FFFC0
3FFFC0
7DFFC0
7C07C0
7C07E0
7C03E0
7C03E0
FC03E0
ENDCHAR
STARTCHAR 1EAC
ENCODING 7852
SWIDTH 570 0
DWIDTH 19 0
BBX 19 32 0 -3
BITMAP
07FC00
0FFE00
1FFF00
1C0700
000000
000000
07FE00
07FE00
0FFE00
0FFE00
0FFF00
0F1F00
0F1F00
1F0F00
1F0F00
1F0F80
1E0F80
1E0F80
3E0F80
3E0780
3F0FC0
3FFFC0
3FFFC0
7DFFC0
7C07C0
7C07E0
7C03E0
7C03E0
FC03E0
000000
01F000
01F000
ENDCHAR
STARTCHAR 1EAD
ENCODING 7853
SWIDTH 570 0
DWIDTH 19 0
BBX 19 33 0 -4
BITMAP
07FC00
0FFE00
1FFF00
1C0700
000000
000000
07FE00
07FE00
0FFE00
0FFE00
0FFF00
0F1F00
0F1F00
1F0F00
1F0F00
1F0F80
1E0F80
1E0F80
3E0F80
3E0780
3F0FC0
3FFFC0
3FFFC0
7DFFC0
7C07C0
7C07E0
7C03E0
7C03E0
FC03E0
000000
01F000
01F000
01F000
ENDCHAR
STARTCHAR 1EAE
ENCODING 7854
SWIDTH 570 0
DWIDTH 19 0
BBX 19 34 0 0
BITMAP
000100
07FF00
0FF800
0F0000
000000
180300
1E0700
1FFF00
0FFE00
000000
000000
07FE00
07FE00
0FFE00
0FFE00
0FFF00
0F1F00
0F1F00
1F0F00
1F0F00
1F0F80
1E0F80
1E0F80
3E0F80
3E0780
3F0FC0
3FFFC0
3FFFC0
7DFFC0
7C07C0
7C07E0
7C03E0
7C03E0
FC03E0
ENDCHAR
STARTCHAR 1EAF
ENCODING 7855
SWIDTH 570 0
DWIDTH 19 0
BBX 19 34 0 0
BITMAP
000100
07FF00
0FF800
0F0000
000000
180300
1E0700
1FFF00
0FFE00
000000
000000
07FE00
07FE00
0FFE00
0FFE00
0FFF00
0F1F00
0F1F00
1F0F00
1F0F00
1F0F80
1E0F80
1E0F80
3E0F80
3E0780
3F0FC0
3FFFC0
3FFFC0
7DFFC0
7C07C0
7C07E0
7C03E0
7C03E0
FC03E0
ENDCHAR
STARTCHAR 1EB0
ENCODING 7856
SWIDTH 570 0
DWIDTH 19 0
BBX 19 34 0 0
BITMAP
0C0000
0FE000
0FFF00
007F00
000000
180300
1E0700
1FFF00
0FFE00
000000
000000
07FE00
07FE00
0FFE00
0FFE00
0FFF00
0F1F00
0F1F00
1F0F00
1F0F00
1F0F80
1E0F80
1E0F80
3E0F80
3E0780
3F0FC0
3FFFC0
3FFFC0
7DFFC0
7C07C0
7C07E0
7C03E0
7C03E0
FC03E0
ENDCHAR
STARTCHAR 1EB1
ENCODING 7857
SWIDTH 570 0
DWIDTH 19 0
BBX 19 34 0 0
BITMAP
0C0000
0FE000
0FFF00
007F00
000000
180300
1E0700
1FFF00
0FFE00
000000
000000
07FE00
07FE00
0FFE00
0FFE00
0FFF00
0F1F00
0F1F00
1F0F00
1F0F00
1F0F80
1E0F80
1E0F80
3E0F80
3E0780
3F0FC0
3FFFC0
3FFFC0
7DFFC0
7C07C0
7C07E0
7C03E0
7C03E0
FC03E0
ENDCHAR
STARTCHAR 1EB2
ENCODING 7858
SWIDTH 570 0
DWIDTH 19 0
BBX 19 34 0 0
BITMAP
01F800
01F800
01B000
007000
006000
180300
1E0700
1FFF00
0FFE00
000000
000000
07FE00
07FE00
0FFE00
0FFE00
0FFF00
0F1F00
0F1F00
1F0F00
1F0F00
1F0F80
1E0F80
1E0F80
3E0F80
3E0780
3F0FC0
3FFFC0
3FFFC0
7DFFC0
7C07C0
7C07E0
7C03E0
7C03E0
FC03E0
ENDCHAR
STARTCHAR 1EB3
ENCODING 7859
SWIDTH 570 0
DWIDTH 19 0
BBX 19 34 0 0
BITMAP
01F800
01F800
01B000
007000
006000
180300
1E0700
1FFF00
0FFE00
000000
000000
07FE00
07FE00
0FFE00
0FFE00
0FFF00
0F1F00
0F1F00
1F0F00
1F0F00
1F0F80
1E0F80
1E0F80
3E0F80
3E0780
3F0FC0
3FFFC0
3FFFC0
7DFFC0
7C07C0
7C07E0
7C03E0
7C03E0
FC03E0
ENDCHAR
STARTCHAR 1EB4
ENCODING 7860
SWIDTH 570 0
DWIDTH 19 0
BBX 19 35 0 0
BITMAP
010000
07E180
1FFF80
1C7F80
180E00
000000
180300
1E0700
1FFF00
0FFE00
000000
000000
07FE00
07FE00
0FFE00
0FFE00
0FFF00
0F1F00
0F1F00
1F0F00
1F0F00
1F0F80
1E0F80
1E0F80
3E0F80
3E0780
3F0FC0
3FFFC0
3FFFC0
7DFFC0
7C07C0
7C07E0
7C03E0
7C03E0
FC03E0
ENDCHAR
STARTCHAR 1EB5
ENCODING 7861
SWIDTH 570 0
DWIDTH 19 0
BBX 19 35 0 0
BITMAP
010000
07E180
1FFF80
1C7F80
180E00
000000
180300
1E0700
1FFF00
0FFE00
000000
000000
07FE00
07FE00
0FFE00
0FFE00
0FFF00
0F1F00
0F1F00
1F0F00
1F0F00
1F0F80
1E0F80
1E0F80
3E0F80
3E0780
3F0FC0
3FFFC0
3FFFC0
7DFFC0
7C07C0
7C07E0
7C03E0
7C03E0
FC03E0
ENDCHAR
STARTCHAR 1EB6
ENCODING 7862
SWIDTH 570 0
DWIDTH 19 0
BBX 19 32 0 -3
BITMAP
180300
1E0700
1FFF00
0FFE00
000000
000000
07FE00
07FE00
0FFE00
0FFE00
0FFF00
0F1F00
0F1F00
1F0F00
1F0F00
1F0F80
1E0F80
1E0F80
3E0F80
3E0780
3F0FC0
3FFFC0
3FFFC0
7DFFC0
7C07C0
7C07E0
7C03E0
7C03E0
FC03E0
000000
01F000
01F000
ENDCHAR
STARTCHAR 1EB7
ENCODING 7863
SWIDTH 570 0
DWIDTH 19 0
BBX 19 33 0 -4
BITMAP
180300
1E0700
1FFF00
0FFE00
000000
000000
07FE00
07FE00
0FFE00
0FFE00
0FFF00
0F1F00
0F1F00
1F0F00
1F0F00
1F0F80
1E0F80
1E0F80
3E0F80
3E0780
3F0FC0
3FFFC0
3FFFC0
7DFFC0
7C07C0
7C07E0
7C03E0
7C03E0
FC03E0
000000
01F000
01F000
01F000
ENDCHAR
STARTCHAR 1EB8
ENCODING 7864
SWIDTH 540 0
DWIDTH 18 0
BBX 16 27 1 -4
BITMAP
FFFC
FFFC
FFFE
FFFF
FFFF
FC1F
FC00
FC00
FC00
FFF0
FFF0
FFF0
FFF0
FC00
FC00
FC00
FC00
FC1F
FFFF
FFFF
FFFE
FFFC
FFF8
0000
07C0
07C0
07C0
ENDCHAR
STARTCHAR 1EB9
ENCODING 7865
SWIDTH 540 0
DWIDTH 18 0
BBX 16 27 1 -4
BITMAP
FFFC
FFFC
FFFE
FFFF
FFFF
FC1F
FC00
FC00
FC00
FFF0
FFF0
FFF0
FFF0
FC00
FC00
FC00
FC00
FC1F
FFFF
FFFF
FFFE
FFFC
FFF8
0000
07C0
07C0
07C0
ENDCHAR
STARTCHAR 1EBA
ENCODING 7866
SWIDTH 540 0
DWIDTH 18 0
BBX 16 30 1 0
BITMAP
07C0
0FE0
0CC0
0180
0180
0000
0000
FFFC
FFFC
FFFE
FFFF
FFFF
FC1F
FC00
FC00
FC00
FFF0
FFF0
FFF0
FFF0
FC00
FC00
FC00
FC00
FC1F
FFFF
FFFF
FFFE
FFFC
FFF8
ENDCHAR
STARTCHAR 1EBB
ENCODING 7867
SWIDTH 540 0
DWIDTH 18 0
BBX 16 30 1 0
BITMAP
07C0
0FE0
0CC0
0180
0180
0000
0000
FFFC
FFFC
FFFE
FFFF
FFFF
FC1F
FC00
FC00
FC00
FFF0
FFF0
FFF0
FFF0
FC00
FC00
FC00
FC00
FC1F
FFFF
FFFF
FFFE
FFFC
FFF8
ENDCHAR
STARTCHAR 1EBC
ENCODING 7868
SWIDTH 540 0
DWIDTH 18 0
BBX 16 29 1 0
BITMAP
1E00
7FCC
FFFC
E0F8
0000
0000
FFFC
FFFC
FFFE
FFFF
FFFF
FC1F
FC00
FC00
FC00
FFF0
FFF0
FFF0
FFF0
FC00
FC00
FC00
FC00
FC1F
FFFF
FFFF
FFFE
FFFC
FFF8
ENDCHAR
STARTCHAR 1EBD
ENCODING 7869
SWIDTH 540 0
DWIDTH 18 0
BBX 16 29 1 0
BITMAP
1E00
7FCC
FFFC
E0F8
0000
0000
FFFC
FFFC
FFFE
FFFF
FFFF
FC1F
FC00
FC00
FC00
FFF0
FFF0
FFF0
FFF0
FC00
FC00
FC00
FC00
FC1F
FFFF
FFFF
FFFE
FFFC
FFF8
ENDCHAR
STARTCHAR 1EBE
ENCODING 7870
SWIDTH 540 0
DWIDTH 18 0
BBX 16 34 1 0
BITMAP
0004
1FFC
3FE0
3C00
0000
1FF0
3FF8
7FFC
F03C
0000
0000
FFFC
FFFC
FFFE
FFFF
FFFF
FC1F
FC00
FC00
FC00
FFF0
FFF0
FFF0
FFF0
FC00
FC00
FC00
FC00
FC1F
FFFF
FFFF
FFFE
FFFC
FFF8
ENDCHAR
STARTCHAR 1EBF
ENCODING 7871
SWIDTH 540 0
DWIDTH 18 0
BBX 16 34 1 0
BITMAP
0004
1FFC
3FE0
3C00
0000
1FF0
3FF8
7FFC
F03C
0000
0000
FFFC
FFFC
FFFE
FFFF
FFFF
FC1F
FC00
FC00
FC00
FFF0
FFF0
FFF0
FFF0
FC00
FC00
FC00
FC00
FC1F
FFFF
FFFF
FFFE
FFFC
FFF8
ENDCHAR
STARTCHAR 1EC0
ENCODING 7872
SWIDTH 540 0
DWIDTH 18 0
BBX 16 34 1 0
BITMAP
3000
3F80
3FFC
01FC
0000
1FF0
3FF8
7FFC
F03C
0000
0000
FFFC
FFFC
FFFE
FFFF
FFFF
FC1F
FC00
FC00
FC00
FFF0
FFF0
FFF0
FFF0
FC00
FC00
FC00
FC00
FC1F
FFFF
FFFF
FFFE
FFFC
FFF8
ENDCHAR
STARTCHAR 1EC1
ENCODING 7873
SWIDTH 540 0
DWIDTH 18 0
BBX 16 34 1 0
BITMAP
3000
3F80
3FFC
01FC
0000
1FF0
3FF8
7FFC
F03C
0000
0000
FFFC
FFFC
FFFE
FFFF
FFFF
FC1F
FC00
FC00
FC00
FFF0
FFF0
FFF0
FFF0
FC00
FC00
FC00
FC00
FC1F
FFFF
FFFF
FFFE
FFFC
FFF8
ENDCHAR
STARTCHAR 1EC2
ENCODING 7874
SWIDTH 540 0
DWIDTH 18 0
BBX 16 35 1 0
BITMAP
07C0
0FC0
01C0
0180
0180
0000
1FF0
3FF8
7FFC
F03C
0000
0000
FFFC
FFFC
FFFE
FFFF
FFFF
FC1F
FC00
FC00
FC00
FFF0
FFF0
FFF0
FFF0
FC00
FC00
FC00
FC00
FC1F
FFFF
FFFF
FFFE
FFFC
FFF8
ENDCHAR
STARTCHAR 1EC3
ENCODING 7875
SWIDTH 540 0
DWIDTH 18 0
BBX 16 35 1 0
BITMAP
07C0
0FC0
01C0
0180
0180
0000
1FF0
3FF8
7FFC
F03C
0000
0000
FFFC
FFFC
FFFE
FFFF
FFFF
FC1F
FC00
FC00
FC00
FFF0
FFF0
FFF0
FFF0
FC00
FC00
FC00
FC00
FC1F
FFFF
FFFF
FFFE
FFFC
FFF8
ENDCHAR
STARTCHAR 1EC4
ENCODING 7876
SWIDTH 540 0
DWIDTH 18 0
BBX 16 34 1 1
BITMAP
1F04
7FFC
F1FC
C070
0000
1FF0
3FF8
7FFC
F03C
0000
0000
FFFC
FFFC
FFFE
FFFF
FFFF
FC1F
FC00
FC00
FC00
FFF0
FFF0
FFF0
FFF0
FC00
FC00
FC00
FC00
FC1F
FFFF
FFFF
FFFE
FFFC
FFF8
ENDCHAR
STARTCHAR 1EC5
ENCODING 7877
SWIDTH 540 0
DWIDTH 18 0
BBX 16 34 1 1
BITMAP
1F04
7FFC
F1FC
C070
0000
1FF0
3FF8
7FFC
F03C
0000
0000
FFFC
FFFC
FFFE
FFFF
FFFF
FC1F
FC00
FC00
FC00
FFF0
FFF0
FFF0
FFF0
FC00
FC00
FC00
FC00
FC1F
FFFF
FFFF
FFFE
FFFC
FFF8
ENDCHAR
STARTCHAR 1EC6
ENCODING 7878
SWIDTH 540 0
DWIDTH 18 0
BBX 16 33 1 -4
BITMAP
1FF0
3FF8
7FFC
F03C
0000
0000
FFFC
FFFC
FFFE
FFFF
FFFF
FC1F
FC00
FC00
FC00
FFF0
FFF0
FFF0
FFF0
FC00
FC00
FC00
FC00
FC1F
FFFF
FFFF
FFFE
FFFC
FFF8
0000
07C0
07C0
07C0
ENDCHAR
STARTCHAR 1EC7
ENCODING 7879
SWIDTH 540 0
DWIDTH 18 0
BBX 16 33 1 -4
BITMAP
1FF0
3FF8
7FFC
F03C
0000
0000
FFFC
FFFC
FFFE
FFFF
FFFF
FC1F
FC00
FC00
FC00
FFF0
FFF0
FFF0
FFF0
FC00
FC00
FC00
FC00
FC1F
FFFF
FFFF
FFFE
FFFC
FFF8
0000
07C0
07C0
07C0
ENDCHAR
STARTCHAR 1EC8
ENCODING 7880
SWIDTH 210 0
DWIDTH 7 0
BBX 6 30 1 0
BITMAP
F8
FC
D8
38
30
00
00
FC
FC
FC
FC
FC
FC
FC
FC
FC
FC
FC
FC
FC
FC
FC
FC
FC
FC
FC
FC
FC
FC
FC
ENDCHAR
STARTCHAR 1EC9
ENCODING 7881
SWIDTH 210 0
DWIDTH 7 0
BBX 6 30 1 0
BITMAP
F8
FC
D8
38
30
00
00
FC
FC
FC
FC
FC
FC
FC
FC
FC
FC
FC
FC
FC
FC
FC
FC
FC
FC
FC
FC
FC
FC
FC
ENDCHAR
STARTCHAR 1ECA
ENCODING 7882
SWIDTH 210 0
DWIDTH 7 0
BBX 6 27 1 -4
BITMAP
FC
FC
FC
FC
FC
FC
FC
FC
FC
FC
FC
FC
FC
FC
FC
FC
FC
FC
FC
FC
FC
FC
FC
00
FC
FC
FC
ENDCHAR
STARTCHAR 1ECB
ENCODING 7883
SWIDTH 210 0
DWIDTH 7 0
BBX 6 27 1 -4
BITMAP
FC
FC
FC
FC
FC
FC
FC
FC
FC
FC
FC
FC
FC
FC
FC
FC
FC
FC
FC
FC
FC
FC
FC
00
FC
FC
FC
ENDCHAR
STARTCHAR 1ECC
ENCODING 7884
SWIDTH 600 0
DWIDTH 20 0
BBX 18 27 1 -4
BITMAP
3FFF00
3FFF80
7FFFC0
FFFFC0
FFFFC0
FC07C0
FC07C0
FC07C0
FC07C0
FC07C0
FC07C0
FC07C0
FC07C0
FC07C0
FC07C0
FC07C0
FC07C0
FC07C0
FFFFC0
FFFFC0
7FFF80
3FFF80
1FFF00
000000
03F000
03F000
03F000
ENDCHAR
STARTCHAR 1ECD
ENCODING 7885
SWIDTH 600 0
DWIDTH 20 0
BBX 18 27 1 -4
BITMAP
3FFF00
3FFF80
7FFFC0
FFFFC0
FFFFC0
FC07C0
FC07C0
FC07C0
FC07C0
FC07C0
FC07C0
FC07C0
FC07C0
FC07C0
FC07C0
FC07C0
FC07C0
FC07C0
FFFFC0
FFFFC0
7FFF80
3FFF80
1FFF00
000000
03F000
03F000
03F000
ENDCHAR
STARTCHAR 1ECE
ENCODING 7886
SWIDTH 600 0
DWIDTH 20 0
BBX 18 30 1 0
BITMAP
01F000
03F800
033000
007000
006000
000000
000000
3FFF00
3FFF80
7FFFC0
FFFFC0
FFFFC0
FC07C0
FC07C0
FC07C0
FC07C0
FC07C0
FC07C0
FC07C0
FC07C0
FC07C0
FC07C0
FC07C0
FC07C0
FC07C0
FFFFC0
FFFFC0
7FFF80
3FFF80
1FFF00
ENDCHAR
STARTCHAR 1ECF
ENCODING 7887
SWIDTH 600 0
DWIDTH 20 0
BBX 18 30 1 0
BITMAP
01F000
03F800
033000
007000
006000
000000
000000
3FFF00
3FFF80
7FFFC0
FFFFC0
FFFFC0
FC07C0
FC07C0
FC07C0
FC07C0
FC07C0
FC07C0
FC07C0
FC07C0
FC07C0
FC07C0
FC07C0
FC07C0
FC07C0
FFFFC0
FFFFC0
7FFF80
3FFF80
1FFF00
ENDCHAR
STARTCHAR 1ED0
ENCODING 7888
SWIDTH 600 0
DWIDTH 20 0
BBX 18 34 1 0
BITMAP
000100
07FF00
0FF800
0F0000
000000
07FC00
0FFE00
1FFF00
1C0700
000000
000000
3FFF00
3FFF80
7FFFC0
FFFFC0
FFFFC0
FC07C0
FC07C0
FC07C0
FC07C0
FC07C0
FC07C0
FC07C0
FC07C0
FC07C0
FC07C0
FC07C0
FC07C0
FC07C0
FFFFC0
FFFFC0
7FFF80
3FFF80
1FFF00
ENDCHAR
STARTCHAR 1ED1
ENCODING 7889
SWIDTH 600 0
DWIDTH 20 0
BBX 18 34 1 0
BITMAP
000100
07FF00
0FF800
0F0000
000000
07FC00
0FFE00
1FFF00
1C0700
000000
000000
3FFF00
3FFF80
7FFFC0
FFFFC0
FFFFC0
FC07C0
FC07C0
FC07C0
FC07C0
FC07C0
FC07C0
FC07C0
FC07C0
FC07C0
FC07C0
FC07C0
FC07C0
FC07C0
FFFFC0
FFFFC0
7FFF80
3FFF80
1FFF00
ENDCHAR
STARTCHAR 1ED2
ENCODING 7890
SWIDTH 600 0
DWIDTH 20 0
BBX 18 34 1 0
BITMAP
0C0000
0FE000
0FFF00
007F00
000000
07FC00
0FFE00
1FFF00
1C0700
000000
000000
3FFF00
3FFF80
7FFFC0
FFFFC0
FFFFC0
FC07C0
FC07C0
FC07C0
FC07C0
FC07C0
FC07C0
FC07C0
FC07C0
FC07C0
FC07C0
FC07C0
FC07C0
FC07C0
FFFFC0
FFFFC0
7FFF80
3FFF80
1FFF00
ENDCHAR
STARTCHAR 1ED3
ENCODING 7891
SWIDTH 600 0
DWIDTH 20 0
BBX 18 34 1 0
BITMAP
0C0000
0FE000
0FFF00
007F00
000000
07FC00
0FFE00
1FFF00
1C0700
000000
000000
3FFF00
3FFF80
7FFFC0
FFFFC0
FFFFC0
FC07C0
FC07C0
FC07C0
FC07C0
FC07C0
FC07C0
FC07C0
FC07C0
FC07C0
FC07C0
FC07C0
FC07C0
FC07C0
FFFFC0
FFFFC0
7FFF80
3FFF80
1FFF00
ENDCHAR
STARTCHAR 1ED4
ENCODING 7892
SWIDTH 600 0
DWIDTH 20 0
BBX 18 35 1 0
BITMAP
01F800
03F800
003000
006000
006000
000000
07FC00
0FFE00
1FFF00
1C0700
000000
000000
3FFF00
3FFF80
7FFFC0
FFFFC0
FFFFC0
FC07C0
FC07C0
FC07C0
FC07C0
FC07C0
FC07C0
FC07C0
FC07C0
FC07C0
FC07C0
FC07C0
FC07C0
FC07C0
FFFFC0
FFFFC0
7FFF80
3FFF80
1FFF00
ENDCHAR
STARTCHAR 1ED5
ENCODING 7893
SWIDTH 600 0
DWIDTH 20 0
BBX 18 35 1 0
BITMAP
01F800
03F800
003000
006000
006000
000000
07FC00
0FFE00
1FFF00
1C0700
000000
000000
3FFF00
3FFF80
7FFFC0
FFFFC0
FFFFC0
FC07C0
FC07C0
FC07C0
FC07C0
FC07C0
FC07C0
FC07C0
FC07C0
FC07C0
FC07C0
FC07C0
FC07C0
FC07C0
FFFFC0
FFFFC0
7FFF80
3FFF80
1FFF00
ENDCHAR
STARTCHAR 1ED6
ENCODING 7894
SWIDTH 600 0
DWIDTH 20 0
BBX 18 34 1 1
BITMAP
07C100
1FFF00
1C7F00
180C00
000000
07FC00
0FFE00
1FFF00
1C0700
000000
000000
3FFF00
3FFF80
7FFFC0
FFFFC0
FFFFC0
FC07C0
FC07C0
FC07C0
FC07C0
FC07C0
FC07C0
FC07C0
FC07C0
FC07C0
FC07C0
FC07C0
FC07C0
FC07C0
FFFFC0
FFFFC0
7FFF80
3FFF80
1FFF00
ENDCHAR
STARTCHAR 1ED7
ENCODING 7895
SWIDTH 600 0
DWIDTH 20 0
BBX 18 34 1 1
BITMAP
07C100
1FFF00
1C7F00
180C00
000000
07FC00
0FFE00
1FFF00
1C0700
000000
000000
3FFF00
3FFF80
7FFFC0
FFFFC0
FFFFC0
FC07C0
FC07C0
FC07C0
FC07C0
FC07C0
FC07C0
FC07C0
FC07C0
FC07C0
FC07C0
FC07C0
FC07C0
FC07C0
FFFFC0
FFFFC0
7FFF80
3FFF80
1FFF00
ENDCHAR
STARTCHAR 1ED8
ENCODING 7896
SWIDTH 600 0
DWIDTH 20 0
BBX 18 33 1 -4
BITMAP
07FC00
0FFE00
1FFF00
1C0700
000000
000000
3FFF00
3FFF80
7FFFC0
FFFFC0
FFFFC0
FC07C0
FC07C0
FC07C0
FC07C0
FC07C0
FC07C0
FC07C0
FC07C0
FC07C0
FC07C0
FC07C0
FC07C0
FC07C0
FFFFC0
FFFFC0
7FFF80
3FFF80
1FFF00
000000
03F000
03F000
03F000
ENDCHAR
STARTCHAR 1ED9
ENCODING 7897
SWIDTH 600 0
DWIDTH 20 0
BBX 18 33 1 -4
BITMAP
07FC00
0FFE00
1FFF00
1C0700
000000
000000
3FFF00
3FFF80
7FFFC0
FFFFC0
FFFFC0
FC07C0
FC07C0
FC07C0
FC07C0
FC07C0
FC07C0
FC07C0
FC07C0
FC07C0
FC07C0
FC07C0
FC07C0
FC07C0
FFFFC0
FFFFC0
7FFF80
3FFF80
1FFF00
000000
03F000
03F000
03F000
ENDCHAR
STARTCHAR 1EDA
ENCODING 7898
SWIDTH 600 0
DWIDTH 20 0
BBX 20 28 1 0
BITMAP
01FE00
1FFE00
1FC060
000070
0000F0
3FFFF0
3FFFC0
7FFFC0
FFFFC0
FFFFC0
FC07C0
FC07C0
FC07C0
FC07C0
FC07C0
FC07C0
FC07C0
FC07C0
FC07C0
FC07C0
FC07C0
FC07C0
FC07C0
FFFFC0
FFFFC0
7FFF80
3FFF80
1FFF00
ENDCHAR
STARTCHAR 1EDB
ENCODING 7899
SWIDTH 600 0
DWIDTH 20 0
BBX 20 28 1 0
BITMAP
01FE00
1FFE00
1FC060
000070
0000F0
3FFFF0
3FFFC0
7FFFC0
FFFFC0
FFFFC0
FC07C0
FC07C0
FC07C0
FC07C0
FC07C0
FC07C0
FC07C0
FC07C0
FC07C0
FC07C0
FC07C0
FC07C0
FC07C0
FFFFC0
FFFFC0
7FFF80
3FFF80
1FFF00
ENDCHAR
STARTCHAR 1EDC
ENCODING 7900
SWIDTH 600 0
DWIDTH 20 0
BBX 20 28 1 0
BITMAP
1F0000
1FF800
0FFE60
000070
0000F0
3FFFF0
3FFFC0
7FFFC0
FFFFC0
FFFFC0
FC07C0
FC07C0
FC07C0
FC07C0
FC07C0
FC07C0
FC07C0
FC07C0
FC07C0
FC07C0
FC07C0
FC07C0
FC07C0
FFFFC0
FFFFC0
7FFF80
3FFF80
1FFF00
ENDCHAR
STARTCHAR 1EDD
ENCODING 7901
SWIDTH 600 0
DWIDTH 20 0
BBX 20 28 1 0
BITMAP
1F0000
1FF800
0FFE60
000070
0000F0
3FFFF0
3FFFC0
7FFFC0
FFFFC0
FFFFC0
FC07C0
FC07C0
FC07C0
FC07C0
FC07C0
FC07C0
FC07C0
FC07C0
FC07C0
FC07C0
FC07C0
FC07C0
FC07C0
FFFFC0
FFFFC0
7FFF80
3FFF80
1FFF00
ENDCHAR
STARTCHAR 1EDE
ENCODING 7902
SWIDTH 600 0
DWIDTH 20 0
BBX 20 30 1 0
BITMAP
01F000
03F800
033000
007000
006060
000070
0000F0
3FFFF0
3FFFC0
7FFFC0
FFFFC0
FFFFC0
FC07C0
FC07C0
FC07C0
FC07C0
FC07C0
FC07C0
FC07C0
FC07C0
FC07C0
FC07C0
FC07C0
FC07C0
FC07C0
FFFFC0
FFFFC0
7FFF80
3FFF80
1FFF00
ENDCHAR
STARTCHAR 1EDF
ENCODING 7903
SWIDTH 600 0
DWIDTH 20 0
BBX 20 30 1 0
BITMAP
01F000
03F800
033000
007000
006060
000070
0000F0
3FFFF0
3FFFC0
7FFFC0
FFFFC0
FFFFC0
FC07C0
FC07C0
FC07C0
FC07C0
FC07C0
FC07C0
FC07C0
FC07C0
FC07C0
FC07C0
FC07C0
FC07C0
FC07C0
FFFFC0
FFFFC0
7FFF80
3FFF80
1FFF00
ENDCHAR
STARTCHAR 1EE0
ENCODING 7904
SWIDTH 600 0
DWIDTH 20 0
BBX 20 30 1 1
BITMAP
07C100
1FFF00
1C7F00
180C00
000060
000070
0000F0
3FFFF0
3FFFC0
7FFFC0
FFFFC0
FFFFC0
FC07C0
FC07C0
FC07C0
FC07C0
FC07C0
FC07C0
FC07C0
FC07C0
FC07C0
FC07C0
FC07C0
FC07C0
FC07C0
FFFFC0
FFFFC0
7FFF80
3FFF80
1FFF00
ENDCHAR
STARTCHAR 1EE1
ENCODING 7905
SWIDTH 600 0
DWIDTH 20 0
BBX 20 30 1 1
BITMAP
07C100
1FFF00
1C7F00
180C00
000060
000070
0000F0
3FFFF0
3FFFC0
7FFFC0
FFFFC0
FFFFC0
FC07C0
FC07C0
FC07C0
FC07C0
FC07C0
FC07C0
FC07C0
FC07C0
FC07C0
FC07C0
FC07C0
FC07C0
FC07C0
FFFFC0
FFFFC0
7FFF80
3FFF80
1FFF00
ENDCHAR
STARTCHAR 1EE2
ENCODING 7906
SWIDTH 600 0
DWIDTH 20 0
BBX 20 30 1 -4
BITMAP
000060
000070
0000F0
3FFFF0
3FFFC0
7FFFC0
FFFFC0
FFFFC0
FC07C0
FC07C0
FC07C0
FC07C0
FC07C0
FC07C0
FC07C0
FC07C0
FC07C0
FC07C0
FC07C0
FC07C0
FC07C0
FFFFC0
FFFFC0
7FFF80
3FFF80
1FFF00
000000
03F000
03F000
03F000
ENDCHAR
STARTCHAR 1EE3
ENCODING 7907
SWIDTH 600 0
DWIDTH 20 0
BBX 20 30 1 -4
BITMAP
000060
000070
0000F0
3FFFF0
3FFFC0
7FFFC0
FFFFC0
FFFFC0
FC07C0
FC07C0
FC07C0
FC07C0
FC07C0
FC07C0
FC07C0
FC07C0
FC07C0
FC07C0
FC07C0
FC07C0
FC07C0
FFFFC0
FFFFC0
7FFF80
3FFF80
1FFF00
000000
03F000
03F000
03F000
ENDCHAR
STARTCHAR 1EE4
ENCODING 7908
SWIDTH 600 0
DWIDTH 20 0
BBX 18 27 1 -4
BITMAP
FC07C0
FC07C0
FC07C0
FC07C0
FC07C0
FC07C0
FC07C0
FC07C0
FC07C0
FC07C0
FC07C0
FC07C0
FC07C0
FC07C0
FC07C0
FC07C0
FC07C0
FC0FC0
FFFFC0
FFFFC0
7FFF80
3FFF80
1FFF00
000000
03F000
03F000
03F000
ENDCHAR
STARTCHAR 1EE5
ENCODING 7909
SWIDTH 600 0
DWIDTH 20 0
BBX 18 27 1 -4
BITMAP
FC07C0
FC07C0
FC07C0
FC07C0
FC07C0
FC07C0
FC07C0
FC07C0
FC07C0
FC07C0
FC07C0
FC07C0
FC07C0
FC07C0
FC07C0
FC07C0
FC07C0
FC0FC0
FFFFC0
FFFFC0
7FFF80
3FFF80
1FFF00
000000
03F000
03F000
03F000
ENDCHAR
STARTCHAR 1EE6
ENCODING 7910
SWIDTH 600 0
DWIDTH 20 0
BBX 18 30 1 0
BITMAP
01F000
03F800
033000
006000
006000
000000
000000
FC07C0
FC07C0
FC07C0
FC07C0
FC07C0
FC07C0
FC07C0
FC07C0
FC07C0
FC07C0
FC07C0
FC07C0
FC07C0
FC07C0
FC07C0
FC07C0
FC07C0
FC0FC0
FFFFC0
FFFFC0
7FFF80
3FFF80
1FFF00
ENDCHAR
STARTCHAR 1EE7
ENCODING 7911
SWIDTH 600 0
DWIDTH 20 0
BBX 18 30 1 0
BITMAP
01F000
03F800
033000
006000
006000
000000
000000
FC07C0
FC07C0
FC07C0
FC07C0
FC07C0
FC07C0
FC07C0
FC07C0
FC07C0
FC07C0
FC07C0
FC07C0
FC07C0
FC07C0
FC07C0
FC07C0
FC07C0
FC0FC0
FFFFC0
FFFFC0
7FFF80
3FFF80
1FFF00
ENDCHAR
STARTCHAR 1EE8
ENCODING 7912
SWIDTH 600 0
DWIDTH 20 0
BBX 20 28 1 0
BITMAP
01FE00
1FFE00
1FC060
000060
0000F0
FC07E0
FC07C0
FC0780
FC07C0
FC07C0
FC07C0
FC07C0
FC07C0
FC07C0
FC07C0
FC07C0
FC07C0
FC07C0
FC07C0
FC07C0
FC07C0
FC07C0
FC0FC0
FFFFC0
FFFFC0
7FFF80
3FFF80
1FFF00
ENDCHAR
STARTCHAR 1EE9
ENCODING 7913
SWIDTH 600 0
DWIDTH 20 0
BBX 20 28 1 0
BITMAP
01FE00
1FFE00
1FC060
000060
0000F0
FC07E0
FC07C0
FC0780
FC07C0
FC07C0
FC07C0
FC07C0
FC07C0
FC07C0
FC07C0
FC07C0
FC07C0
FC07C0
FC07C0
FC07C0
FC07C0
FC07C0
FC0FC0
FFFFC0
FFFFC0
7FFF80
3FFF80
1FFF00
ENDCHAR
STARTCHAR 1EEA
ENCODING 7914
SWIDTH 600 0
DWIDTH 20 0
BBX 20 28 1 0
BITMAP
1F0000
1FF800
0FFE60
000060
0000F0
FC07E0
FC07C0
FC0780
FC07C0
FC07C0
FC07C0
FC07C0
FC07C0
FC07C0
FC07C0
FC07C0
FC07C0
FC07C0
FC07C0
FC07C0
FC07C0
FC07C0
FC0FC0
FFFFC0
FFFFC0
7FFF80
3FFF80
1FFF00
ENDCHAR
STARTCHAR 1EEB
ENCODING 7915
SWIDTH 600 0
DWIDTH 20 0
BBX 20 28 1 0
BITMAP
1F0000
1FF800
0FFE60
000060
0000F0
FC07E0
FC07C0
FC0780
FC07C0
FC07C0
FC07C0
FC07C0
FC07C0
FC07C0
FC07C0
FC07C0
FC07C0
FC07C0
FC07C0
FC07C0
FC07C0
FC07C0
FC0FC0
FFFFC0
FFFFC0
7FFF80
3FFF80
1FFF00
ENDCHAR
STARTCHAR 1EEC
ENCODING 7916
SWIDTH 600 0
DWIDTH 20 0
BBX 20 30 1 0
BITMAP
01F000
03F800
033000
006000
006060
000060
0000F0
FC07E0
FC07C0
FC0780
FC07C0
FC07C0
FC07C0
FC07C0
FC07C0
FC07C0
FC07C0
FC07C0
FC07C0
FC07C0
FC07C0
FC07C0
FC07C0
FC07C0
FC0FC0
FFFFC0
FFFFC0
7FFF80
3FFF80
1FFF00
ENDCHAR
STARTCHAR 1EED
ENCODING 7917
SWIDTH 600 0
DWIDTH 20 0
BBX 20 30 1 0
BITMAP
01F000
03F800
033000
006000
006060
000060
0000F0
FC07E0
FC07C0
FC0780
FC07C0
FC07C0
FC07C0
FC07C0
FC07C0
FC07C0
FC07C0
FC07C0
FC07C0
FC07C0
FC07C0
FC07C0
FC07C0
FC07C0
FC0FC0
FFFFC0
FFFFC0
7FFF80
3FFF80
1FFF00
ENDCHAR
STARTCHAR 1EEE
ENCODING 7918
SWIDTH 600 0
DWIDTH 20 0
BBX 20 30 1 1
BITMAP
07C100
1FFF00
1C7F00
180C00
000060
000060
0000F0
FC07E0
FC07C0
FC0780
FC07C0
FC07C0
FC07C0
FC07C0
FC07C0
FC07C0
FC07C0
FC07C0
FC07C0
FC07C0
FC07C0
FC07C0
FC07C0
FC07C0
FC0FC0
FFFFC0
FFFFC0
7FFF80
3FFF80
1FFF00
ENDCHAR
STARTCHAR 1EEF
ENCODING 7919
SWIDTH 600 0
DWIDTH 20 0
BBX 20 30 1 1
BITMAP
07C100
1FFF00
1C7F00
180C00
000060
000060
0000F0
FC07E0
FC07C0
FC0780
FC07C0
FC07C0
FC07C0
FC07C0
FC07C0
FC07C0
FC07C0
FC07C0
FC07C0
FC07C0
FC07C0
FC07C0
FC07C0
FC07C0
FC0FC0
FFFFC0
FFFFC0
7FFF80
3FFF80
1FFF00
ENDCHAR
STARTCHAR 1EF0
ENCODING 7920
SWIDTH 600 0
DWIDTH 20 0
BBX 20 30 1 -4
BITMAP
000060
000060
0000F0
FC07E0
FC07C0
FC0780
FC07C0
FC07C0
FC07C0
FC07C0
FC07C0
FC07C0
FC07C0
FC07C0
FC07C0
FC07C0
FC07C0
FC07C0
FC07C0
FC07C0
FC0FC0
FFFFC0
FFFFC0
7FFF80
3FFF80
1FFF00
000000
03F000
03F000
03F000
ENDCHAR
STARTCHAR 1EF1
ENCODING 7921
SWIDTH 600 0
DWIDTH 20 0
BBX 20 30 1 -4
BITMAP
000060
000060
0000F0
FC07E0
FC07C0
FC0780
FC07C0
FC07C0
FC07C0
FC07C0
FC07C0
FC07C0
FC07C0
FC07C0
FC07C0
FC07C0
FC07C0
FC07C0
FC07C0
FC07C0
FC0FC0
FFFFC0
FFFFC0
7FFF80
3FFF80
1FFF00
000000
03F000
03F000
03F000
ENDCHAR
STARTCHAR 1EF2
ENCODING 7922
SWIDTH 450 0
DWIDTH 15 0
BBX 16 28 0 0
BITMAP
3E00
3FF0
1FFC
0000
0000
F81F
F83F
FC3E
7C3E
7E7E
3E7C
3E7C
3FF8
1FF8
1FF0
0FF0
0FE0
07E0
07E0
07C0
07C0
07C0
07C0
07C0
07C0
07C0
07C0
07C0
ENDCHAR
STARTCHAR 1EF3
ENCODING 7923
SWIDTH 450 0
DWIDTH 15 0
BBX 16 28 0 0
BITMAP
3E00
3FF0
1FFC
0000
0000
F81F
F83F
FC3E
7C3E
7E7E
3E7C
3E7C
3FF8
1FF8
1FF0
0FF0
0FE0
07E0
07E0
07C0
07C0
07C0
07C0
07C0
07C0
07C0
07C0
07C0
ENDCHAR
STARTCHAR 1EF4
ENCODING 7924
SWIDTH 450 0
DWIDTH 15 0
BBX 16 27 0 -4
BITMAP
F81F
F83F
FC3E
7C3E
7E7E
3E7C
3E7C
3FF8
1FF8
1FF0
0FF0
0FE0
07E0
07E0
07C0
07C0
07C0
07C0
07C0
07C0
07C0
07C0
07C0
0000
07C0
07C0
07C0
ENDCHAR
STARTCHAR 1EF5
ENCODING 7925
SWIDTH 450 0
DWIDTH 15 0
BBX 16 27 0 -4
BITMAP
F81F
F83F
FC3E
7C3E
7E7E
3E7C
3E7C
3FF8
1FF8
1FF0
0FF0
0FE0
07E0
07E0
07C0
07C0
07C0
07C0
07C0
07C0
07C0
07C0
07C0
0000
07C0
07C0
07C0
ENDCHAR
STARTCHAR 1EF6
ENCODING 7926
SWIDTH 450 0
DWIDTH 15 0
BBX 16 30 0 0
BITMAP
07C0
07E0
06C0
01C0
0180
0000
0000
F81F
F83F
FC3E
7C3E
7E7E
3E7C
3E7C
3FF8
1FF8
1FF0
0FF0
0FE0
07E0
07E0
07C0
07C0
07C0
07C0
07C0
07C0
07C0
07C0
07C0
ENDCHAR
STARTCHAR 1EF7
ENCODING 7927
SWIDTH 450 0
DWIDTH 15 0
BBX 16 30 0 0
BITMAP
07C0
07E0
06C0
01C0
0180
0000
0000
F81F
F83F
FC3E
7C3E
7E7E
3E7C
3E7C
3FF8
1FF8
1FF0
0FF0
0FE0
07E0
07E0
07C0
07C0
07C0
07C0
07C0
07C0
07C0
07C0
07C0
ENDCHAR
STARTCHAR 1EF8
ENCODING 7928
SWIDTH 450 0
DWIDTH 15 0
BBX 16 30 0 0
BITMAP
0600
1FC6
7FFE
70FC
4010
0000
0000
F81F
F83F
FC3E
7C3E
7E7E
3E7C
3E7C
3FF8
1FF8
1FF0
0FF0
0FE0
07E0
07E0
07C0
07C0
07C0
07C0
07C0
07C0
07C0
07C0
07C0
ENDCHAR
STARTCHAR 1EF9
ENCODING 7929
SWIDTH 450 0
DWIDTH 15 0
BBX 16 30 0 0
BITMAP
0600
1FC6
7FFE
70FC
4010
0000
0000
F81F
F83F
FC3E
7C3E
7E7E
3E7C
3E7C
3FF8
1FF8
1FF0
0FF0
0FE0
07E0
07E0
07C0
07C0
07C0
07C0
07C0
07C0
07C0
07C0
07C0
ENDCHAR
STARTCHAR 2013
ENCODING 8211
SWIDTH 480 0
DWIDTH 16 0
BBX 15 3 1 10
BITMAP
FFFE
FFFE
FFFE
ENDCHAR
STARTCHAR 2014
ENCODING 8212
SWIDTH 990 0
DWIDTH 33 0
BBX 32 3 1 10
BITMAP
FFFFFFFF
FFFFFFFF
FFFFFFFF
ENDCHAR
STARTCHAR 2018
ENCODING 8216
SWIDTH 210 0
DWIDTH 7 0
BBX 5 8 1 15
BITMAP
38
78
F0
E0
E0
E0
E0
E0
ENDCHAR
STARTCHAR 2019
ENCODING 8217
SWIDTH 210 0
DWIDTH 7 0
BBX 6 8 1 15
BITMAP
38
3C
3C
3C
78
70
F0
E0
ENDCHAR
STARTCHAR 201A
ENCODING 8218
SWIDTH 150 0
DWIDTH 5 0
BBX 6 8 -1 -3
BITMAP
38
3C
3C
3C
3C
38
70
F0
ENDCHAR
STARTCHAR 201C
ENCODING 8220
SWIDTH 360 0
DWIDTH 12 0
BBX 11 8 1 15
BITMAP
39E0
7BC0
F380
E700
E700
E700
E700
E300
ENDCHAR
STARTCHAR 201D
ENCODING 8221
SWIDTH 360 0
DWIDTH 12 0
BBX 11 8 1 15
BITMAP
39E0
3DE0
3DE0
3DE0
79C0
73C0
F780
E700
ENDCHAR
STARTCHAR 201E
ENCODING 8222
SWIDTH 360 0
DWIDTH 12 0
BBX 11 8 1 -3
BITMAP
39C0
3DE0
3DE0
3DE0
39E0
7BC0
F380
E780
ENDCHAR
STARTCHAR 2020
ENCODING 8224
SWIDTH 510 0
DWIDTH 17 0
BBX 16 23 1 0
BITMAP
0380
0380
0380
0380
0380
0380
FFFF
FFFF
FFFF
FFFF
0380
0380
0380
0380
0380
0380
0380
0380
0380
0380
0380
0380
0380
ENDCHAR
STARTCHAR 2021
ENCODING 8225
SWIDTH 510 0
DWIDTH 17 0
BBX 16 23 1 0
BITMAP
0380
0380
0380
0380
0380
0380
FFFF
FFFF
FFFF
FFFF
0380
0380
0380
FFFF
FFFF
FFFF
0380
0380
0380
0380
0380
0380
0380
ENDCHAR
STARTCHAR 2022
ENCODING 8226
SWIDTH 210 0
DWIDTH 7 0
BBX 6 7 1 9
BITMAP
FC
FC
FC
FC
FC
FC
FC
ENDCHAR
STARTCHAR 2026
ENCODING 8230
SWIDTH 510 0
DWIDTH 17 0
BBX 15 4 1 0
BITMAP
F7DE
F7DE
F7DE
F7DE
ENDCHAR
STARTCHAR 2030
ENCODING 8240
SWIDTH 870 0
DWIDTH 29 0
BBX 27 23 1 0
BITMAP
7F070000
FF0F0000
FF0E0000
E71E0000
E71C0000
FF3C0000
FF380000
7E780000
00700000
00F00000
00F00000
01E00000
01E00000
03C00000
03C00000
079FCFE0
07BFDFE0
073FDFE0
0F39DCE0
0E39DCE0
1E3FDFE0
1C3FDFE0
3C1FCFE0
ENDCHAR
STARTCHAR 2039
ENCODING 8249
SWIDTH 240 0
DWIDTH 8 0
BBX 7 13 1 5
BITMAP
06
0E
1E
7C
F0
E0
E0
F0
78
3E
0E
06
02
ENDCHAR
STARTCHAR 203A
ENCODING 8250
SWIDTH 240 0
DWIDTH 8 0
BBX 7 13 1 5
BITMAP
C0
E0
F0
78
1E
0E
0E
1E
3C
F0
E0
C0
80
ENDCHAR
STARTCHAR 2044
ENCODING 8260
SWIDTH 330 0
DWIDTH 11 0
BBX 14 23 -1 0
BITMAP
001C
0038
0038
0070
0070
00E0
00E0
01C0
01C0
0380
0380
0700
0700
0E00
0E00
0E00
1C00
1C00
3800
3800
7000
7000
E000
ENDCHAR
STARTCHAR 20AB
ENCODING 8363
SWIDTH 450 0
DWIDTH 15 0
BBX 15 23 -1 0
BITMAP
3FFC
3FFE
3FFE
3FFE
3C1E
3C1E
3C1E
3C1E
FF1E
FF1E
3C1E
3C1E
3C1E
3C1E
3FFE
3FFE
3FFE
3FFC
0000
0000
3FFE
3FFE
3FFE
ENDCHAR
STARTCHAR 20AC
ENCODING 8364
SWIDTH 600 0
DWIDTH 20 0
BBX 18 23 1 0
BITMAP
3FFF00
3FFF80
3FFF80
3FFFC0
3FFFC0
3F07C0
3F0000
FFE000
FFE000
FFE000
FFE000
3F0000
FFE000
FFE000
FFE000
3F0000
3F0000
3F0FC0
3FFFC0
3FFFC0
3FFF80
3FFF00
3FFF00
ENDCHAR
STARTCHAR 2122
ENCODING 8482
SWIDTH 600 0
DWIDTH 20 0
BBX 20 11 0 12
BITMAP
7F3CE0
FFBDF0
DDBDF0
1C35F0
1C35F0
1C3770
1C3770
1C3770
1C3370
1C3070
1C3070
ENDCHAR
STARTCHAR 215B
ENCODING 8539
SWIDTH 630 0
DWIDTH 21 0
BBX 20 23 1 0
BITMAP
3C0E00
7C0E00
FC1C00
FC1C00
9C3800
1C3800
1C7000
1C7000
1C6000
1CE000
1CE000
01CFC0
01CFE0
039FF0
039C70
071C70
071FE0
0E0FE0
0E1C70
1C1C70
1C1FF0
381FE0
380FE0
ENDCHAR
STARTCHAR 215C
ENCODING 8540
SWIDTH 690 0
DWIDTH 23 0
BBX 21 23 1 0
BITMAP
FF0380
7F0700
070700
070600
3F0E00
3F0E00
3F1C00
071C00
073800
7F3800
7F7000
0073F0
00E7F8
00E7F8
01C738
01C618
0387F8
0387F8
070618
070618
0707F8
0E07F8
0E03F0
ENDCHAR
STARTCHAR 215D
ENCODING 8541
SWIDTH 690 0
DWIDTH 23 0
BBX 21 23 1 0
BITMAP
FF0380
FE0300
E00700
E00700
FF0E00
FF0E00
7F1C00
071C00
073800
7F3800
FF7000
0073F0
00E7F8
00E7F8
01C738
01C618
0387F8
0387F8
078618
070618
0707F8
0E07F8
0E03F0
ENDCHAR
STARTCHAR 215E
ENCODING 8542
SWIDTH 630 0
DWIDTH 21 0
BBX 19 23 1 0
BITMAP
FE0E00
7E1C00
0E1C00
0E3800
0E3800
1C7000
1C7000
1C6000
38E000
38E000
39C000
01CFC0
039FE0
039FE0
071C60
071C60
0E1FE0
0E1FE0
1C1C60
1C1C60
381FE0
381FE0
700FC0
ENDCHAR
STARTCHAR 2190
ENCODING 8592
SWIDTH 420 0
DWIDTH 14 0
BBX 12 11 1 4
BITMAP
1C00
3C00
7800
F000
FFF0
FFF0
FFF0
F000
7800
3C00
1C00
ENDCHAR
STARTCHAR 2191
ENCODING 8593
SWIDTH 360 0
DWIDTH 12 0
BBX 11 13 1 4
BITMAP
1E00
3F00
7F80
FFC0
FFE0
DEE0
1E00
1E00
1E00
1E00
1E00
1E00
1E00
ENDCHAR
STARTCHAR 2192
ENCODING 8594
SWIDTH 420 0
DWIDTH 14 0
BBX 12 11 1 4
BITMAP
0380
03C0
01E0
00F0
FFF0
FFF0
FFF0
00F0
01E0
03C0
0380
ENDCHAR
STARTCHAR 2193
ENCODING 8595
SWIDTH 360 0
DWIDTH 12 0
BBX 11 13 1 4
BITMAP
1E00
1E00
1E00
1E00
1E00
1E00
1E00
DEE0
FFE0
FFC0
7F80
3F80
1F00
ENDCHAR
STARTCHAR 2194
ENCODING 8596
SWIDTH 510 0
DWIDTH 17 0
BBX 16 11 1 4
BITMAP
1C38
3C3C
781E
F00F
FFFF
FFFF
FFFF
F00F
781E
3C3C
1C38
ENDCHAR
STARTCHAR 2195
ENCODING 8597
SWIDTH 360 0
DWIDTH 12 0
BBX 11 16 1 4
BITMAP
3F00
7F80
7FC0
FFE0
FEE0
DE60
1E00
1E00
1E00
1E00
DEE0
FFE0
FFC0
7F80
3F80
1F00
ENDCHAR
STARTCHAR 2196
ENCODING 8598
SWIDTH 390 0
DWIDTH 13 0
BBX 12 11 1 4
BITMAP
3F00
7F80
FF00
FC00
FE00
FF00
EF80
E7E0
61F0
00E0
0040
ENDCHAR
STARTCHAR 2197
ENCODING 8599
SWIDTH 390 0
DWIDTH 13 0
BBX 12 11 1 4
BITMAP
1FC0
1FC0
1FE0
03F0
0FF0
1F60
3EE0
7CE0
F8E0
7040
4000
ENDCHAR
STARTCHAR 2198
ENCODING 8600
SWIDTH 390 0
DWIDTH 13 0
BBX 12 11 1 4
BITMAP
6000
F040
F8E0
7CE0
3E60
1FF0
07F0
03F0
1FE0
3FC0
1F80
ENDCHAR
STARTCHAR 2199
ENCODING 8601
SWIDTH 390 0
DWIDTH 13 0
BBX 12 11 1 4
BITMAP
0040
00E0
E3F0
E7C0
EF80
FF00
FE00
FC00
FF00
7F80
3F00
ENDCHAR
STARTCHAR 220F
ENCODING 8719
SWIDTH 480 0
DWIDTH 16 0
BBX 15 23 1 0
BITMAP
FFFE
FFFE
FFFE
1C70
1C70
1C70
1C70
1C70
1C70
1C70
1C70
1C70
1C70
1C70
1C70
1C70
1C70
1C70
1C70
1C70
1C70
1C70
1C70
ENDCHAR
STARTCHAR 2211
ENCODING 8721
SWIDTH 390 0
DWIDTH 13 0
BBX 12 23 1 0
BITMAP
FFF0
FFF0
FFF0
F000
F000
7800
7800
3C00
3C00
1E00
1E00
0F00
1E00
1E00
3C00
3C00
7800
7800
F000
F000
FFF0
FFF0
FFF0
ENDCHAR
STARTCHAR 2212
ENCODING 8722
SWIDTH 420 0
DWIDTH 14 0
BBX 13 3 1 10
BITMAP
FFF8
FFF8
FFF8
ENDCHAR
STARTCHAR 221A
ENCODING 8730
SWIDTH 510 0
DWIDTH 17 0
BBX 25 30 1 0
BITMAP
0007FF80
0007FF80
0007FF80
00070000
00070000
000F0000
000F0000
000F0000
000E0000
000E0000
000E0000
000E0000
001E0000
001E0000
001E0000
001C0000
001C0000
FC1C0000
FC1C0000
FC1C0000
1E3C0000
1E3C0000
0E380000
0F380000
0F380000
07380000
07380000
07F80000
03F80000
03F80000
ENDCHAR
STARTCHAR 2260
ENCODING 8800
SWIDTH 420 0
DWIDTH 14 0
BBX 13 14 1 4
BITMAP
03C0
0380
FFF8
FFF8
FFF8
FFF8
0700
0F00
FFF8
FFF8
FFF8
1E00
1C00
1C00
ENDCHAR
STARTCHAR 2264
ENCODING 8804
SWIDTH 390 0
DWIDTH 13 0
BBX 12 23 1 0
BITMAP
0030
00F0
03F0
0FF0
3FE0
7F80
FE00
F800
E000
E000
F800
FF00
7FC0
1FF0
07F0
01F0
0070
0010
0000
0000
FFF0
FFF0
FFF0
ENDCHAR
STARTCHAR 2265
ENCODING 8805
SWIDTH 390 0
DWIDTH 13 0
BBX 12 23 1 0
BITMAP
8000
E000
F800
FE00
FF80
3FE0
0FF0
03F0
00F0
00F0
03F0
0FF0
3FC0
FF00
FC00
F000
C000
8000
0000
0000
FFF0
FFF0
FFF0
ENDCHAR
ENDFONT
